SplineFontDB: 3.2
FontName: KarmaticArcade
FullName: Karmatic Arcade
FamilyName: Karmatic Arcade
Weight: Book
Copyright: 2004 Vic Fieger
Version: 1.0
ItalicAngle: 0
UnderlinePosition: -292
UnderlineWidth: 150
Ascent: 1638
Descent: 410
InvalidEm: 0
sfntRevision: 0x00010000
LayerCount: 2
Layer: 0 1 "Back" 1
Layer: 1 1 "Fore" 0
XUID: [1021 624 319610792 8188]
StyleMap: 0x0040
FSType: 8
OS2Version: 1
OS2_WeightWidthSlopeOnly: 0
OS2_UseTypoMetrics: 0
CreationTime: 1118803974
ModificationTime: 1611352076
PfmFamily: 17
TTFWeight: 400
TTFWidth: 5
LineGap: 67
VLineGap: 0
Panose: 2 0 0 0 0 0 0 0 0 0
OS2TypoAscent: 1491
OS2TypoAOffset: 0
OS2TypoDescent: -431
OS2TypoDOffset: 0
OS2TypoLinegap: 307
OS2WinAscent: 1854
OS2WinAOffset: 0
OS2WinDescent: 434
OS2WinDOffset: 0
HheadAscent: 1854
HheadAOffset: 0
HheadDescent: -434
HheadDOffset: 0
OS2SubXSize: 1434
OS2SubYSize: 1331
OS2SubXOff: 0
OS2SubYOff: 283
OS2SupXSize: 1434
OS2SupYSize: 1331
OS2SupXOff: 0
OS2SupYOff: 977
OS2StrikeYSize: 102
OS2StrikeYPos: 530
OS2Vendor: 'HL  '
OS2CodePages: 6000019f.dff70000
OS2UnicodeRanges: a00002af.500078fb.00000000.00000000
DEI: 91125
TtTable: prep
PUSHW_1
 511
SCANCTRL
PUSHB_1
 1
SCANTYPE
SVTCA[y-axis]
MPPEM
PUSHB_1
 8
LT
IF
PUSHB_2
 1
 1
INSTCTRL
EIF
PUSHB_2
 70
 6
CALL
IF
POP
PUSHB_1
 16
EIF
MPPEM
PUSHB_1
 20
GT
IF
POP
PUSHB_1
 128
EIF
SCVTCI
PUSHB_1
 6
CALL
NOT
IF
EIF
PUSHB_1
 20
CALL
EndTTInstrs
TtTable: fpgm
PUSHB_1
 0
FDEF
PUSHB_1
 0
SZP0
MPPEM
PUSHB_1
 42
LT
IF
PUSHB_1
 74
SROUND
EIF
PUSHB_1
 0
SWAP
MIAP[rnd]
RTG
PUSHB_1
 6
CALL
IF
RTDG
EIF
MPPEM
PUSHB_1
 42
LT
IF
RDTG
EIF
DUP
MDRP[rp0,rnd,grey]
PUSHB_1
 1
SZP0
MDAP[no-rnd]
RTG
ENDF
PUSHB_1
 1
FDEF
DUP
MDRP[rp0,min,white]
PUSHB_1
 12
CALL
ENDF
PUSHB_1
 2
FDEF
MPPEM
GT
IF
RCVT
SWAP
EIF
POP
ENDF
PUSHB_1
 3
FDEF
ROUND[Black]
RTG
DUP
PUSHB_1
 64
LT
IF
POP
PUSHB_1
 64
EIF
ENDF
PUSHB_1
 4
FDEF
PUSHB_1
 6
CALL
IF
POP
SWAP
POP
ROFF
IF
MDRP[rp0,min,rnd,black]
ELSE
MDRP[min,rnd,black]
EIF
ELSE
MPPEM
GT
IF
IF
MIRP[rp0,min,rnd,black]
ELSE

StartChar: .notdef
Encoding: 65536 -1 0
Width: 1536
Flags: W
LayerCount: 2
Fore
SplineSet
256 0 m 1,0,-1
 256 1280 l 1,1,-1
 1280 1280 l 1,2,-1
 1280 0 l 1,3,-1
 256 0 l 1,0,-1
288 32 m 1,4,-1
 1248 32 l 1,5,-1
 1248 1248 l 1,6,-1
 288 1248 l 1,7,-1
 288 32 l 1,4,-1
EndSplineSet
Validated: 1
EndChar

StartChar: exclam
Encoding: 33 33 4
Width: 798
Flags: W
LayerCount: 2
Fore
SplineSet
798 399 m 1,0,-1
 798 600 l 1,1,-1
 999 600 l 1,2,-1
 999 399 l 1,3,-1
 798 399 l 1,0,-1
798 600 m 1,4,-1
 798 800 l 1,5,-1
 999 800 l 1,6,-1
 999 600 l 1,7,-1
 798 600 l 1,4,-1
798 800 m 1,8,-1
 798 1001 l 1,9,-1
 999 1001 l 1,10,-1
 999 800 l 1,11,-1
 798 800 l 1,8,-1
798 1001 m 1,12,-1
 798 1202 l 1,13,-1
 999 1202 l 1,14,-1
 999 1001 l 1,15,-1
 798 1001 l 1,12,-1
798 1202 m 1,16,-1
 798 1398 l 1,17,-1
 999 1398 l 1,18,-1
 999 1202 l 1,19,-1
 798 1202 l 1,16,-1
602 1398 m 1,20,-1
 602 1599 l 1,21,-1
 798 1599 l 1,22,-1
 798 1398 l 1,23,-1
 602 1398 l 1,20,-1
798 -198 m 1,24,-1
 798 -396 l 1,25,-1
 602 -396 l 1,26,-1
 602 -198 l 1,27,-1
 798 -198 l 1,24,-1
602 -198 m 1,28,-1
 602 -2 l 1,29,-1
 798 -2 l 1,30,-1
 798 -198 l 1,31,-1
 602 -198 l 1,28,-1
602 -2 m 1,32,-1
 602 199 l 1,33,-1
 798 199 l 1,34,-1
 798 -2 l 1,35,-1
 602 -2 l 1,32,-1
602 199 m 1,36,-1
 602 399 l 1,37,-1
 798 399 l 1,38,-1
 798 199 l 1,39,-1
 602 199 l 1,36,-1
602 399 m 1,40,-1
 602 600 l 1,41,-1
 798 600 l 1,42,-1
 798 399 l 1,43,-1
 602 399 l 1,40,-1
602 600 m 1,44,-1
 602 800 l 1,45,-1
 798 800 l 1,46,-1
 798 600 l 1,47,-1
 602 600 l 1,44,-1
602 800 m 1,48,-1
 602 1001 l 1,49,-1
 798 1001 l 1,50,-1
 798 800 l 1,51,-1
 602 800 l 1,48,-1
602 1001 m 1,52,-1
 602 1202 l 1,53,-1
 798 1202 l 1,54,-1
 798 1001 l 1,55,-1
 602 1001 l 1,52,-1
602 1202 m 1,56,-1
 602 1398 l 1,57,-1
 798 1398 l 1,58,-1
 798 1202 l 1,59,-1
 602 1202 l 1,56,-1
401 1398 m 1,60,-1
 401 1599 l 1,61,-1
 602 1599 l 1,62,-1
 602 1398 l 1,63,-1
 401 1398 l 1,60,-1
602 -198 m 1,64,-1
 602 -396 l 1,65,-1
 401 -396 l 1,66,-1
 401 -198 l 1,67,-1
 602 -198 l 1,64,-1
401 -198 m 1,68,-1
 401 -2 l 1,69,-1
 602 -2 l 1,70,-1
 602 -198 l 1,71,-1
 401 -198 l 1,68,-1
401 -2 m 1,72,-1
 401 199 l 1,73,-1
 602 199 l 1,74,-1
 602 -2 l 1,75,-1
 401 -2 l 1,72,-1
401 199 m 1,76,-1
 401 399 l 1,77,-1
 602 399 l 1,78,-1
 602 199 l 1,79,-1
 401 199 l 1,76,-1
401 399 m 1,80,-1
 401 600 l 1,81,-1
 602 600 l 1,82,-1
 602 399 l 1,83,-1
 401 399 l 1,80,-1
401 600 m 1,84,-1
 401 800 l 1,85,-1
 602 800 l 1,86,-1
 602 600 l 1,87,-1
 401 600 l 1,84,-1
201 1398 m 1,88,-1
 201 1599 l 1,89,-1
 401 1599 l 1,90,-1
 401 1398 l 1,91,-1
 201 1398 l 1,88,-1
401 -198 m 1,92,-1
 401 -396 l 1,93,-1
 201 -396 l 1,94,-1
 201 -198 l 1,95,-1
 401 -198 l 1,92,-1
201 -198 m 1,96,-1
 201 -2 l 1,97,-1
 401 -2 l 1,98,-1
 401 -198 l 1,99,-1
 201 -198 l 1,96,-1
201 199 m 1,100,-1
 201 399 l 1,101,-1
 401 399 l 1,102,-1
 401 199 l 1,103,-1
 201 199 l 1,100,-1
0 1398 m 1,104,-1
 0 1599 l 1,105,-1
 201 1599 l 1,106,-1
 201 1398 l 1,107,-1
 0 1398 l 1,104,-1
0 -198 m 1,108,-1
 0 -2 l 1,109,-1
 201 -2 l 1,110,-1
 201 -198 l 1,111,-1
 0 -198 l 1,108,-1
0 -2 m 1,112,-1
 0 199 l 1,113,-1
 201 199 l 1,114,-1
 201 -2 l 1,115,-1
 0 -2 l 1,112,-1
0 199 m 1,116,-1
 0 399 l 1,117,-1
 201 399 l 1,118,-1
 201 199 l 1,119,-1
 0 199 l 1,116,-1
0 399 m 1,120,-1
 0 600 l 1,121,-1
 201 600 l 1,122,-1
 201 399 l 1,123,-1
 0 399 l 1,120,-1
0 600 m 1,124,-1
 0 800 l 1,125,-1
 201 800 l 1,126,-1
 201 600 l 1,127,-1
 0 600 l 1,124,-1
0 800 m 1,128,-1
 0 1001 l 1,129,-1
 201 1001 l 1,130,-1
 201 800 l 1,131,-1
 0 800 l 1,128,-1
0 1001 m 1,132,-1
 0 1202 l 1,133,-1
 201 1202 l 1,134,-1
 201 1001 l 1,135,-1
 0 1001 l 1,132,-1
0 1202 m 1,136,-1
 0 1398 l 1,137,-1
 201 1398 l 1,138,-1
 201 1202 l 1,139,-1
 0 1202 l 1,136,-1
EndSplineSet
Validated: 5
EndChar

StartChar: quotedbl
Encoding: 34 34 5
Width: 1400
Flags: W
LayerCount: 2
Fore
SplineSet
1400 399 m 1,0,-1
 1400 600 l 1,1,-1
 1601 600 l 1,2,-1
 1601 399 l 1,3,-1
 1400 399 l 1,0,-1
1400 600 m 1,4,-1
 1400 800 l 1,5,-1
 1601 800 l 1,6,-1
 1601 600 l 1,7,-1
 1400 600 l 1,4,-1
1400 800 m 1,8,-1
 1400 1001 l 1,9,-1
 1601 1001 l 1,10,-1
 1601 800 l 1,11,-1
 1400 800 l 1,8,-1
1400 1001 m 1,12,-1
 1400 1202 l 1,13,-1
 1601 1202 l 1,14,-1
 1601 1001 l 1,15,-1
 1400 1001 l 1,12,-1
1400 1202 m 1,16,-1
 1400 1398 l 1,17,-1
 1601 1398 l 1,18,-1
 1601 1202 l 1,19,-1
 1400 1202 l 1,16,-1
1200 1398 m 1,20,-1
 1200 1599 l 1,21,-1
 1400 1599 l 1,22,-1
 1400 1398 l 1,23,-1
 1200 1398 l 1,20,-1
1200 399 m 1,24,-1
 1200 600 l 1,25,-1
 1400 600 l 1,26,-1
 1400 399 l 1,27,-1
 1200 399 l 1,24,-1
1200 600 m 1,28,-1
 1200 800 l 1,29,-1
 1400 800 l 1,30,-1
 1400 600 l 1,31,-1
 1200 600 l 1,28,-1
1200 800 m 1,32,-1
 1200 1001 l 1,33,-1
 1400 1001 l 1,34,-1
 1400 800 l 1,35,-1
 1200 800 l 1,32,-1
1200 1001 m 1,36,-1
 1200 1202 l 1,37,-1
 1400 1202 l 1,38,-1
 1400 1001 l 1,39,-1
 1200 1001 l 1,36,-1
1200 1202 m 1,40,-1
 1200 1398 l 1,41,-1
 1400 1398 l 1,42,-1
 1400 1202 l 1,43,-1
 1200 1202 l 1,40,-1
999 1398 m 1,44,-1
 999 1599 l 1,45,-1
 1200 1599 l 1,46,-1
 1200 1398 l 1,47,-1
 999 1398 l 1,44,-1
999 399 m 1,48,-1
 999 600 l 1,49,-1
 1200 600 l 1,50,-1
 1200 399 l 1,51,-1
 999 399 l 1,48,-1
999 600 m 1,52,-1
 999 800 l 1,53,-1
 1200 800 l 1,54,-1
 1200 600 l 1,55,-1
 999 600 l 1,52,-1
798 1398 m 1,56,-1
 798 1599 l 1,57,-1
 999 1599 l 1,58,-1
 999 1398 l 1,59,-1
 798 1398 l 1,56,-1
798 399 m 1,60,-1
 798 600 l 1,61,-1
 999 600 l 1,62,-1
 999 399 l 1,63,-1
 798 399 l 1,60,-1
798 600 m 1,64,-1
 798 800 l 1,65,-1
 999 800 l 1,66,-1
 999 600 l 1,67,-1
 798 600 l 1,64,-1
602 1398 m 1,68,-1
 602 1599 l 1,69,-1
 798 1599 l 1,70,-1
 798 1398 l 1,71,-1
 602 1398 l 1,68,-1
602 399 m 1,72,-1
 602 600 l 1,73,-1
 798 600 l 1,74,-1
 798 399 l 1,75,-1
 602 399 l 1,72,-1
602 600 m 1,76,-1
 602 800 l 1,77,-1
 798 800 l 1,78,-1
 798 600 l 1,79,-1
 602 600 l 1,76,-1
602 800 m 1,80,-1
 602 1001 l 1,81,-1
 798 1001 l 1,82,-1
 798 800 l 1,83,-1
 602 800 l 1,80,-1
602 1001 m 1,84,-1
 602 1202 l 1,85,-1
 798 1202 l 1,86,-1
 798 1001 l 1,87,-1
 602 1001 l 1,84,-1
602 1202 m 1,88,-1
 602 1398 l 1,89,-1
 798 1398 l 1,90,-1
 798 1202 l 1,91,-1
 602 1202 l 1,88,-1
401 1398 m 1,92,-1
 401 1599 l 1,93,-1
 602 1599 l 1,94,-1
 602 1398 l 1,95,-1
 401 1398 l 1,92,-1
401 399 m 1,96,-1
 401 600 l 1,97,-1
 602 600 l 1,98,-1
 602 399 l 1,99,-1
 401 399 l 1,96,-1
401 600 m 1,100,-1
 401 800 l 1,101,-1
 602 800 l 1,102,-1
 602 600 l 1,103,-1
 401 600 l 1,100,-1
201 1398 m 1,104,-1
 201 1599 l 1,105,-1
 401 1599 l 1,106,-1
 401 1398 l 1,107,-1
 201 1398 l 1,104,-1
201 399 m 1,108,-1
 201 600 l 1,109,-1
 401 600 l 1,110,-1
 401 399 l 1,111,-1
 201 399 l 1,108,-1
201 600 m 1,112,-1
 201 800 l 1,113,-1
 401 800 l 1,114,-1
 401 600 l 1,115,-1
 201 600 l 1,112,-1
0 1398 m 1,116,-1
 0 1599 l 1,117,-1
 201 1599 l 1,118,-1
 201 1398 l 1,119,-1
 0 1398 l 1,116,-1
0 600 m 1,120,-1
 0 800 l 1,121,-1
 201 800 l 1,122,-1
 201 600 l 1,123,-1
 0 600 l 1,120,-1
0 800 m 1,124,-1
 0 1001 l 1,125,-1
 201 1001 l 1,126,-1
 201 800 l 1,127,-1
 0 800 l 1,124,-1
0 1001 m 1,128,-1
 0 1202 l 1,129,-1
 201 1202 l 1,130,-1
 201 1001 l 1,131,-1
 0 1001 l 1,128,-1
0 1202 m 1,132,-1
 0 1398 l 1,133,-1
 201 1398 l 1,134,-1
 201 1202 l 1,135,-1
 0 1202 l 1,132,-1
EndSplineSet
Validated: 5
EndChar

StartChar: quotesingle
Encoding: 39 39 10
Width: 798
Flags: W
LayerCount: 2
Fore
SplineSet
798 399 m 1,0,-1
 798 600 l 1,1,-1
 999 600 l 1,2,-1
 999 399 l 1,3,-1
 798 399 l 1,0,-1
798 600 m 1,4,-1
 798 800 l 1,5,-1
 999 800 l 1,6,-1
 999 600 l 1,7,-1
 798 600 l 1,4,-1
798 800 m 1,8,-1
 798 1001 l 1,9,-1
 999 1001 l 1,10,-1
 999 800 l 1,11,-1
 798 800 l 1,8,-1
798 1001 m 1,12,-1
 798 1202 l 1,13,-1
 999 1202 l 1,14,-1
 999 1001 l 1,15,-1
 798 1001 l 1,12,-1
798 1202 m 1,16,-1
 798 1398 l 1,17,-1
 999 1398 l 1,18,-1
 999 1202 l 1,19,-1
 798 1202 l 1,16,-1
602 1398 m 1,20,-1
 602 1599 l 1,21,-1
 798 1599 l 1,22,-1
 798 1398 l 1,23,-1
 602 1398 l 1,20,-1
602 399 m 1,24,-1
 602 600 l 1,25,-1
 798 600 l 1,26,-1
 798 399 l 1,27,-1
 602 399 l 1,24,-1
602 600 m 1,28,-1
 602 800 l 1,29,-1
 798 800 l 1,30,-1
 798 600 l 1,31,-1
 602 600 l 1,28,-1
602 800 m 1,32,-1
 602 1001 l 1,33,-1
 798 1001 l 1,34,-1
 798 800 l 1,35,-1
 602 800 l 1,32,-1
602 1001 m 1,36,-1
 602 1202 l 1,37,-1
 798 1202 l 1,38,-1
 798 1001 l 1,39,-1
 602 1001 l 1,36,-1
602 1202 m 1,40,-1
 602 1398 l 1,41,-1
 798 1398 l 1,42,-1
 798 1202 l 1,43,-1
 602 1202 l 1,40,-1
401 1398 m 1,44,-1
 401 1599 l 1,45,-1
 602 1599 l 1,46,-1
 602 1398 l 1,47,-1
 401 1398 l 1,44,-1
401 399 m 1,48,-1
 401 600 l 1,49,-1
 602 600 l 1,50,-1
 602 399 l 1,51,-1
 401 399 l 1,48,-1
401 600 m 1,52,-1
 401 800 l 1,53,-1
 602 800 l 1,54,-1
 602 600 l 1,55,-1
 401 600 l 1,52,-1
201 1398 m 1,56,-1
 201 1599 l 1,57,-1
 401 1599 l 1,58,-1
 401 1398 l 1,59,-1
 201 1398 l 1,56,-1
201 399 m 1,60,-1
 201 600 l 1,61,-1
 401 600 l 1,62,-1
 401 399 l 1,63,-1
 201 399 l 1,60,-1
201 600 m 1,64,-1
 201 800 l 1,65,-1
 401 800 l 1,66,-1
 401 600 l 1,67,-1
 201 600 l 1,64,-1
0 1398 m 1,68,-1
 0 1599 l 1,69,-1
 201 1599 l 1,70,-1
 201 1398 l 1,71,-1
 0 1398 l 1,68,-1
0 600 m 1,72,-1
 0 800 l 1,73,-1
 201 800 l 1,74,-1
 201 600 l 1,75,-1
 0 600 l 1,72,-1
0 800 m 1,76,-1
 0 1001 l 1,77,-1
 201 1001 l 1,78,-1
 201 800 l 1,79,-1
 0 800 l 1,76,-1
0 1001 m 1,80,-1
 0 1202 l 1,81,-1
 201 1202 l 1,82,-1
 201 1001 l 1,83,-1
 0 1001 l 1,80,-1
0 1202 m 1,84,-1
 0 1398 l 1,85,-1
 201 1398 l 1,86,-1
 201 1202 l 1,87,-1
 0 1202 l 1,84,-1
EndSplineSet
Validated: 5
EndChar

StartChar: hyphen
Encoding: 45 45 16
AltUni2: 0000ad.ffffffff.0
Width: 999
Flags: W
LayerCount: 2
Fore
SplineSet
999 199 m 1,0,-1
 999 399 l 1,1,-1
 1200 399 l 1,2,-1
 1200 199 l 1,3,-1
 999 199 l 1,0,-1
999 399 m 1,4,-1
 999 600 l 1,5,-1
 1200 600 l 1,6,-1
 1200 399 l 1,7,-1
 999 399 l 1,4,-1
999 600 m 1,8,-1
 999 800 l 1,9,-1
 1200 800 l 1,10,-1
 1200 600 l 1,11,-1
 999 600 l 1,8,-1
798 199 m 1,12,-1
 798 399 l 1,13,-1
 999 399 l 1,14,-1
 999 199 l 1,15,-1
 798 199 l 1,12,-1
798 399 m 1,16,-1
 798 600 l 1,17,-1
 999 600 l 1,18,-1
 999 399 l 1,19,-1
 798 399 l 1,16,-1
798 600 m 1,20,-1
 798 800 l 1,21,-1
 999 800 l 1,22,-1
 999 600 l 1,23,-1
 798 600 l 1,20,-1
798 800 m 1,24,-1
 798 1001 l 1,25,-1
 999 1001 l 1,26,-1
 999 800 l 1,27,-1
 798 800 l 1,24,-1
602 199 m 1,28,-1
 602 399 l 1,29,-1
 798 399 l 1,30,-1
 798 199 l 1,31,-1
 602 199 l 1,28,-1
602 399 m 1,32,-1
 602 600 l 1,33,-1
 798 600 l 1,34,-1
 798 399 l 1,35,-1
 602 399 l 1,32,-1
602 800 m 1,36,-1
 602 1001 l 1,37,-1
 798 1001 l 1,38,-1
 798 800 l 1,39,-1
 602 800 l 1,36,-1
401 199 m 1,40,-1
 401 399 l 1,41,-1
 602 399 l 1,42,-1
 602 199 l 1,43,-1
 401 199 l 1,40,-1
401 399 m 1,44,-1
 401 600 l 1,45,-1
 602 600 l 1,46,-1
 602 399 l 1,47,-1
 401 399 l 1,44,-1
401 800 m 1,48,-1
 401 1001 l 1,49,-1
 602 1001 l 1,50,-1
 602 800 l 1,51,-1
 401 800 l 1,48,-1
201 199 m 1,52,-1
 201 399 l 1,53,-1
 401 399 l 1,54,-1
 401 199 l 1,55,-1
 201 199 l 1,52,-1
201 399 m 1,56,-1
 201 600 l 1,57,-1
 401 600 l 1,58,-1
 401 399 l 1,59,-1
 201 399 l 1,56,-1
201 800 m 1,60,-1
 201 1001 l 1,61,-1
 401 1001 l 1,62,-1
 401 800 l 1,63,-1
 201 800 l 1,60,-1
0 399 m 1,64,-1
 0 600 l 1,65,-1
 201 600 l 1,66,-1
 201 399 l 1,67,-1
 0 399 l 1,64,-1
0 600 m 1,68,-1
 0 800 l 1,69,-1
 201 800 l 1,70,-1
 201 600 l 1,71,-1
 0 600 l 1,68,-1
0 800 m 1,72,-1
 0 1001 l 1,73,-1
 201 1001 l 1,74,-1
 201 800 l 1,75,-1
 0 800 l 1,72,-1
EndSplineSet
Validated: 5
EndChar

StartChar: period
Encoding: 46 46 17
Width: 1200
Flags: W
LayerCount: 2
Fore
SplineSet
1200 -198 m 5,0,-1
 1200 -396 l 5,1,-1
 999 -396 l 5,2,-1
 999 -198 l 5,3,-1
 1200 -198 l 5,0,-1
999 -198 m 5,4,-1
 999 -2 l 5,5,-1
 1200 -2 l 5,6,-1
 1200 -198 l 5,7,-1
 999 -198 l 5,4,-1
999 -2 m 5,8,-1
 999 199 l 5,9,-1
 1200 199 l 5,10,-1
 1200 -2 l 5,11,-1
 999 -2 l 5,8,-1
999 199 m 5,12,-1
 999 399 l 5,13,-1
 1200 399 l 5,14,-1
 1200 199 l 5,15,-1
 999 199 l 5,12,-1
999 -198 m 5,16,-1
 999 -396 l 5,17,-1
 798 -396 l 5,18,-1
 798 -198 l 5,19,-1
 999 -198 l 5,16,-1
798 -198 m 5,20,-1
 798 -2 l 5,21,-1
 999 -2 l 5,22,-1
 999 -198 l 5,23,-1
 798 -198 l 5,20,-1
798 -2 m 5,24,-1
 798 199 l 5,25,-1
 999 199 l 5,26,-1
 999 -2 l 5,27,-1
 798 -2 l 5,24,-1
798 199 m 5,28,-1
 798 399 l 5,29,-1
 999 399 l 5,30,-1
 999 199 l 5,31,-1
 798 199 l 5,28,-1
798 399 m 5,32,-1
 798 600 l 5,33,-1
 999 600 l 5,34,-1
 999 399 l 5,35,-1
 798 399 l 5,32,-1
798 -198 m 5,36,-1
 798 -396 l 5,37,-1
 602 -396 l 5,38,-1
 602 -198 l 5,39,-1
 798 -198 l 5,36,-1
602 -198 m 5,40,-1
 602 -2 l 5,41,-1
 798 -2 l 5,42,-1
 798 -198 l 5,43,-1
 602 -198 l 5,40,-1
602 399 m 5,44,-1
 602 600 l 5,45,-1
 798 600 l 5,46,-1
 798 399 l 5,47,-1
 602 399 l 5,44,-1
602 -198 m 5,48,-1
 602 -396 l 5,49,-1
 401 -396 l 5,50,-1
 401 -198 l 5,51,-1
 602 -198 l 5,48,-1
401 -198 m 5,52,-1
 401 -2 l 5,53,-1
 602 -2 l 5,54,-1
 602 -198 l 5,55,-1
 401 -198 l 5,52,-1
401 399 m 5,56,-1
 401 600 l 5,57,-1
 602 600 l 5,58,-1
 602 399 l 5,59,-1
 401 399 l 5,56,-1
201 -198 m 5,60,-1
 201 -2 l 5,61,-1
 401 -2 l 5,62,-1
 401 -198 l 5,63,-1
 201 -198 l 5,60,-1
201 -2 m 5,64,-1
 201 199 l 5,65,-1
 401 199 l 5,66,-1
 401 -2 l 5,67,-1
 201 -2 l 5,64,-1
201 199 m 5,68,-1
 201 399 l 5,69,-1
 401 399 l 5,70,-1
 401 199 l 5,71,-1
 201 199 l 5,68,-1
201 399 m 5,72,-1
 201 600 l 5,73,-1
 401 600 l 5,74,-1
 401 399 l 5,75,-1
 201 399 l 5,72,-1
EndSplineSet
Validated: 5
EndChar

StartChar: zero
Encoding: 48 48 19
Width: 1801
Flags: W
LayerCount: 2
Fore
SplineSet
1801 -198 m 1,0,-1
 1801 -2 l 1,1,-1
 1998 -2 l 1,2,-1
 1998 -198 l 1,3,-1
 1801 -198 l 1,0,-1
1801 -2 m 1,4,-1
 1801 199 l 1,5,-1
 1998 199 l 1,6,-1
 1998 -2 l 1,7,-1
 1801 -2 l 1,4,-1
1801 199 m 1,8,-1
 1801 399 l 1,9,-1
 1998 399 l 1,10,-1
 1998 199 l 1,11,-1
 1801 199 l 1,8,-1
1801 399 m 1,12,-1
 1801 600 l 1,13,-1
 1998 600 l 1,14,-1
 1998 399 l 1,15,-1
 1801 399 l 1,12,-1
1801 600 m 1,16,-1
 1801 800 l 1,17,-1
 1998 800 l 1,18,-1
 1998 600 l 1,19,-1
 1801 600 l 1,16,-1
1801 800 m 1,20,-1
 1801 1001 l 1,21,-1
 1998 1001 l 1,22,-1
 1998 800 l 1,23,-1
 1801 800 l 1,20,-1
1801 1001 m 1,24,-1
 1801 1202 l 1,25,-1
 1998 1202 l 1,26,-1
 1998 1001 l 1,27,-1
 1801 1001 l 1,24,-1
1801 -198 m 1,28,-1
 1801 -396 l 1,29,-1
 1601 -396 l 1,30,-1
 1601 -198 l 1,31,-1
 1801 -198 l 1,28,-1
1601 -198 m 1,32,-1
 1601 -2 l 1,33,-1
 1801 -2 l 1,34,-1
 1801 -198 l 1,35,-1
 1601 -198 l 1,32,-1
1601 -2 m 1,36,-1
 1601 199 l 1,37,-1
 1801 199 l 1,38,-1
 1801 -2 l 1,39,-1
 1601 -2 l 1,36,-1
1601 199 m 1,40,-1
 1601 399 l 1,41,-1
 1801 399 l 1,42,-1
 1801 199 l 1,43,-1
 1601 199 l 1,40,-1
1601 399 m 1,44,-1
 1601 600 l 1,45,-1
 1801 600 l 1,46,-1
 1801 399 l 1,47,-1
 1601 399 l 1,44,-1
1601 600 m 1,48,-1
 1601 800 l 1,49,-1
 1801 800 l 1,50,-1
 1801 600 l 1,51,-1
 1601 600 l 1,48,-1
1601 800 m 1,52,-1
 1601 1001 l 1,53,-1
 1801 1001 l 1,54,-1
 1801 800 l 1,55,-1
 1601 800 l 1,52,-1
1601 1001 m 1,56,-1
 1601 1202 l 1,57,-1
 1801 1202 l 1,58,-1
 1801 1001 l 1,59,-1
 1601 1001 l 1,56,-1
1601 1202 m 1,60,-1
 1601 1398 l 1,61,-1
 1801 1398 l 1,62,-1
 1801 1202 l 1,63,-1
 1601 1202 l 1,60,-1
1400 1398 m 1,64,-1
 1400 1599 l 1,65,-1
 1601 1599 l 1,66,-1
 1601 1398 l 1,67,-1
 1400 1398 l 1,64,-1
1601 -198 m 1,68,-1
 1601 -396 l 1,69,-1
 1400 -396 l 1,70,-1
 1400 -198 l 1,71,-1
 1601 -198 l 1,68,-1
1400 -198 m 1,72,-1
 1400 -2 l 1,73,-1
 1601 -2 l 1,74,-1
 1601 -198 l 1,75,-1
 1400 -198 l 1,72,-1
1400 -2 m 1,76,-1
 1400 199 l 1,77,-1
 1601 199 l 1,78,-1
 1601 -2 l 1,79,-1
 1400 -2 l 1,76,-1
1400 1202 m 1,80,-1
 1400 1398 l 1,81,-1
 1601 1398 l 1,82,-1
 1601 1202 l 1,83,-1
 1400 1202 l 1,80,-1
1200 1398 m 1,84,-1
 1200 1599 l 1,85,-1
 1400 1599 l 1,86,-1
 1400 1398 l 1,87,-1
 1200 1398 l 1,84,-1
1400 -198 m 1,88,-1
 1400 -396 l 1,89,-1
 1200 -396 l 1,90,-1
 1200 -198 l 1,91,-1
 1400 -198 l 1,88,-1
1200 -198 m 1,92,-1
 1200 -2 l 1,93,-1
 1400 -2 l 1,94,-1
 1400 -198 l 1,95,-1
 1200 -198 l 1,92,-1
999 1398 m 1,96,-1
 999 1599 l 1,97,-1
 1200 1599 l 1,98,-1
 1200 1398 l 1,99,-1
 999 1398 l 1,96,-1
1200 -198 m 1,100,-1
 1200 -396 l 1,101,-1
 999 -396 l 1,102,-1
 999 -198 l 1,103,-1
 1200 -198 l 1,100,-1
999 -198 m 1,104,-1
 999 -2 l 1,105,-1
 1200 -2 l 1,106,-1
 1200 -198 l 1,107,-1
 999 -198 l 1,104,-1
999 199 m 1,108,-1
 999 399 l 1,109,-1
 1200 399 l 1,110,-1
 1200 199 l 1,111,-1
 999 199 l 1,108,-1
999 399 m 1,112,-1
 999 600 l 1,113,-1
 1200 600 l 1,114,-1
 1200 399 l 1,115,-1
 999 399 l 1,112,-1
999 600 m 1,116,-1
 999 800 l 1,117,-1
 1200 800 l 1,118,-1
 1200 600 l 1,119,-1
 999 600 l 1,116,-1
999 1001 m 1,120,-1
 999 1202 l 1,121,-1
 1200 1202 l 1,122,-1
 1200 1001 l 1,123,-1
 999 1001 l 1,120,-1
798 1398 m 1,124,-1
 798 1599 l 1,125,-1
 999 1599 l 1,126,-1
 999 1398 l 1,127,-1
 798 1398 l 1,124,-1
999 -198 m 1,128,-1
 999 -396 l 1,129,-1
 798 -396 l 1,130,-1
 798 -198 l 1,131,-1
 999 -198 l 1,128,-1
798 -198 m 1,132,-1
 798 -2 l 1,133,-1
 999 -2 l 1,134,-1
 999 -198 l 1,135,-1
 798 -198 l 1,132,-1
798 199 m 1,136,-1
 798 399 l 1,137,-1
 999 399 l 1,138,-1
 999 199 l 1,139,-1
 798 199 l 1,136,-1
798 399 m 1,140,-1
 798 600 l 1,141,-1
 999 600 l 1,142,-1
 999 399 l 1,143,-1
 798 399 l 1,140,-1
798 800 m 1,144,-1
 798 1001 l 1,145,-1
 999 1001 l 1,146,-1
 999 800 l 1,147,-1
 798 800 l 1,144,-1
798 1001 m 1,148,-1
 798 1202 l 1,149,-1
 999 1202 l 1,150,-1
 999 1001 l 1,151,-1
 798 1001 l 1,148,-1
602 1398 m 1,152,-1
 602 1599 l 1,153,-1
 798 1599 l 1,154,-1
 798 1398 l 1,155,-1
 602 1398 l 1,152,-1
798 -198 m 1,156,-1
 798 -396 l 1,157,-1
 602 -396 l 1,158,-1
 602 -198 l 1,159,-1
 798 -198 l 1,156,-1
602 -198 m 1,160,-1
 602 -2 l 1,161,-1
 798 -2 l 1,162,-1
 798 -198 l 1,163,-1
 602 -198 l 1,160,-1
602 199 m 1,164,-1
 602 399 l 1,165,-1
 798 399 l 1,166,-1
 798 199 l 1,167,-1
 602 199 l 1,164,-1
602 600 m 1,168,-1
 602 800 l 1,169,-1
 798 800 l 1,170,-1
 798 600 l 1,171,-1
 602 600 l 1,168,-1
602 800 m 1,172,-1
 602 1001 l 1,173,-1
 798 1001 l 1,174,-1
 798 800 l 1,175,-1
 602 800 l 1,172,-1
602 1001 m 1,176,-1
 602 1202 l 1,177,-1
 798 1202 l 1,178,-1
 798 1001 l 1,179,-1
 602 1001 l 1,176,-1
401 1398 m 1,180,-1
 401 1599 l 1,181,-1
 602 1599 l 1,182,-1
 602 1398 l 1,183,-1
 401 1398 l 1,180,-1
602 -198 m 1,184,-1
 602 -396 l 1,185,-1
 401 -396 l 1,186,-1
 401 -198 l 1,187,-1
 602 -198 l 1,184,-1
401 -198 m 1,188,-1
 401 -2 l 1,189,-1
 602 -2 l 1,190,-1
 602 -198 l 1,191,-1
 401 -198 l 1,188,-1
201 1398 m 1,192,-1
 201 1599 l 1,193,-1
 401 1599 l 1,194,-1
 401 1398 l 1,195,-1
 201 1398 l 1,192,-1
201 -198 m 1,196,-1
 201 -2 l 1,197,-1
 401 -2 l 1,198,-1
 401 -198 l 1,199,-1
 201 -198 l 1,196,-1
201 -2 m 1,200,-1
 201 199 l 1,201,-1
 401 199 l 1,202,-1
 401 -2 l 1,203,-1
 201 -2 l 1,200,-1
201 1202 m 1,204,-1
 201 1398 l 1,205,-1
 401 1398 l 1,206,-1
 401 1202 l 1,207,-1
 201 1202 l 1,204,-1
0 -2 m 1,208,-1
 0 199 l 1,209,-1
 201 199 l 1,210,-1
 201 -2 l 1,211,-1
 0 -2 l 1,208,-1
0 199 m 1,212,-1
 0 399 l 1,213,-1
 201 399 l 1,214,-1
 201 199 l 1,215,-1
 0 199 l 1,212,-1
0 399 m 1,216,-1
 0 600 l 1,217,-1
 201 600 l 1,218,-1
 201 399 l 1,219,-1
 0 399 l 1,216,-1
0 600 m 1,220,-1
 0 800 l 1,221,-1
 201 800 l 1,222,-1
 201 600 l 1,223,-1
 0 600 l 1,220,-1
0 800 m 1,224,-1
 0 1001 l 1,225,-1
 201 1001 l 1,226,-1
 201 800 l 1,227,-1
 0 800 l 1,224,-1
0 1001 m 1,228,-1
 0 1202 l 1,229,-1
 201 1202 l 1,230,-1
 201 1001 l 1,231,-1
 0 1001 l 1,228,-1
0 1202 m 1,232,-1
 0 1398 l 1,233,-1
 201 1398 l 1,234,-1
 201 1202 l 1,235,-1
 0 1202 l 1,232,-1
EndSplineSet
Validated: 5
EndChar

StartChar: one
Encoding: 49 49 20
Width: 1601
Flags: W
LayerCount: 2
Fore
SplineSet
1801 -198 m 1,0,-1
 1801 -396 l 1,1,-1
 1601 -396 l 1,2,-1
 1601 -198 l 1,3,-1
 1801 -198 l 1,0,-1
1601 -198 m 1,4,-1
 1601 -2 l 1,5,-1
 1801 -2 l 1,6,-1
 1801 -198 l 1,7,-1
 1601 -198 l 1,4,-1
1601 -2 m 1,8,-1
 1601 199 l 1,9,-1
 1801 199 l 1,10,-1
 1801 -2 l 1,11,-1
 1601 -2 l 1,8,-1
1601 -198 m 1,12,-1
 1601 -396 l 1,13,-1
 1400 -396 l 1,14,-1
 1400 -198 l 1,15,-1
 1601 -198 l 1,12,-1
1400 -198 m 1,16,-1
 1400 -2 l 1,17,-1
 1601 -2 l 1,18,-1
 1601 -198 l 1,19,-1
 1400 -198 l 1,16,-1
1400 -2 m 1,20,-1
 1400 199 l 1,21,-1
 1601 199 l 1,22,-1
 1601 -2 l 1,23,-1
 1400 -2 l 1,20,-1
1400 199 m 1,24,-1
 1400 399 l 1,25,-1
 1601 399 l 1,26,-1
 1601 199 l 1,27,-1
 1400 199 l 1,24,-1
1400 -198 m 1,28,-1
 1400 -396 l 1,29,-1
 1200 -396 l 1,30,-1
 1200 -198 l 1,31,-1
 1400 -198 l 1,28,-1
1200 -198 m 1,32,-1
 1200 -2 l 1,33,-1
 1400 -2 l 1,34,-1
 1400 -198 l 1,35,-1
 1200 -198 l 1,32,-1
1200 199 m 1,36,-1
 1200 399 l 1,37,-1
 1400 399 l 1,38,-1
 1400 199 l 1,39,-1
 1200 199 l 1,36,-1
1200 399 m 1,40,-1
 1200 600 l 1,41,-1
 1400 600 l 1,42,-1
 1400 399 l 1,43,-1
 1200 399 l 1,40,-1
1200 600 m 1,44,-1
 1200 800 l 1,45,-1
 1400 800 l 1,46,-1
 1400 600 l 1,47,-1
 1200 600 l 1,44,-1
1200 800 m 1,48,-1
 1200 1001 l 1,49,-1
 1400 1001 l 1,50,-1
 1400 800 l 1,51,-1
 1200 800 l 1,48,-1
1200 1001 m 1,52,-1
 1200 1202 l 1,53,-1
 1400 1202 l 1,54,-1
 1400 1001 l 1,55,-1
 1200 1001 l 1,52,-1
1200 1202 m 1,56,-1
 1200 1398 l 1,57,-1
 1400 1398 l 1,58,-1
 1400 1202 l 1,59,-1
 1200 1202 l 1,56,-1
999 1398 m 1,60,-1
 999 1599 l 1,61,-1
 1200 1599 l 1,62,-1
 1200 1398 l 1,63,-1
 999 1398 l 1,60,-1
1200 -198 m 1,64,-1
 1200 -396 l 1,65,-1
 999 -396 l 1,66,-1
 999 -198 l 1,67,-1
 1200 -198 l 1,64,-1
999 -198 m 1,68,-1
 999 -2 l 1,69,-1
 1200 -2 l 1,70,-1
 1200 -198 l 1,71,-1
 999 -198 l 1,68,-1
999 199 m 1,72,-1
 999 399 l 1,73,-1
 1200 399 l 1,74,-1
 1200 199 l 1,75,-1
 999 199 l 1,72,-1
999 399 m 1,76,-1
 999 600 l 1,77,-1
 1200 600 l 1,78,-1
 1200 399 l 1,79,-1
 999 399 l 1,76,-1
999 600 m 1,80,-1
 999 800 l 1,81,-1
 1200 800 l 1,82,-1
 1200 600 l 1,83,-1
 999 600 l 1,80,-1
999 800 m 1,84,-1
 999 1001 l 1,85,-1
 1200 1001 l 1,86,-1
 1200 800 l 1,87,-1
 999 800 l 1,84,-1
999 1001 m 1,88,-1
 999 1202 l 1,89,-1
 1200 1202 l 1,90,-1
 1200 1001 l 1,91,-1
 999 1001 l 1,88,-1
999 1202 m 1,92,-1
 999 1398 l 1,93,-1
 1200 1398 l 1,94,-1
 1200 1202 l 1,95,-1
 999 1202 l 1,92,-1
798 1398 m 1,96,-1
 798 1599 l 1,97,-1
 999 1599 l 1,98,-1
 999 1398 l 1,99,-1
 798 1398 l 1,96,-1
999 -198 m 1,100,-1
 999 -396 l 1,101,-1
 798 -396 l 1,102,-1
 798 -198 l 1,103,-1
 999 -198 l 1,100,-1
798 -198 m 1,104,-1
 798 -2 l 1,105,-1
 999 -2 l 1,106,-1
 999 -198 l 1,107,-1
 798 -198 l 1,104,-1
602 1398 m 1,108,-1
 602 1599 l 1,109,-1
 798 1599 l 1,110,-1
 798 1398 l 1,111,-1
 602 1398 l 1,108,-1
798 -198 m 1,112,-1
 798 -396 l 1,113,-1
 602 -396 l 1,114,-1
 602 -198 l 1,115,-1
 798 -198 l 1,112,-1
602 -198 m 1,116,-1
 602 -2 l 1,117,-1
 798 -2 l 1,118,-1
 798 -198 l 1,119,-1
 602 -198 l 1,116,-1
401 1398 m 1,120,-1
 401 1599 l 1,121,-1
 602 1599 l 1,122,-1
 602 1398 l 1,123,-1
 401 1398 l 1,120,-1
602 -198 m 1,124,-1
 602 -396 l 1,125,-1
 401 -396 l 1,126,-1
 401 -198 l 1,127,-1
 602 -198 l 1,124,-1
401 -198 m 1,128,-1
 401 -2 l 1,129,-1
 602 -2 l 1,130,-1
 602 -198 l 1,131,-1
 401 -198 l 1,128,-1
401 199 m 1,132,-1
 401 399 l 1,133,-1
 602 399 l 1,134,-1
 602 199 l 1,135,-1
 401 199 l 1,132,-1
401 399 m 1,136,-1
 401 600 l 1,137,-1
 602 600 l 1,138,-1
 602 399 l 1,139,-1
 401 399 l 1,136,-1
401 600 m 1,140,-1
 401 800 l 1,141,-1
 602 800 l 1,142,-1
 602 600 l 1,143,-1
 401 600 l 1,140,-1
401 800 m 1,144,-1
 401 1001 l 1,145,-1
 602 1001 l 1,146,-1
 602 800 l 1,147,-1
 401 800 l 1,144,-1
401 1202 m 1,148,-1
 401 1398 l 1,149,-1
 602 1398 l 1,150,-1
 602 1202 l 1,151,-1
 401 1202 l 1,148,-1
401 -198 m 1,152,-1
 401 -396 l 1,153,-1
 201 -396 l 1,154,-1
 201 -198 l 1,155,-1
 401 -198 l 1,152,-1
201 -198 m 1,156,-1
 201 -2 l 1,157,-1
 401 -2 l 1,158,-1
 401 -198 l 1,159,-1
 201 -198 l 1,156,-1
201 199 m 1,160,-1
 201 399 l 1,161,-1
 401 399 l 1,162,-1
 401 199 l 1,163,-1
 201 199 l 1,160,-1
201 800 m 1,164,-1
 201 1001 l 1,165,-1
 401 1001 l 1,166,-1
 401 800 l 1,167,-1
 201 800 l 1,164,-1
201 1001 m 1,168,-1
 201 1202 l 1,169,-1
 401 1202 l 1,170,-1
 401 1001 l 1,171,-1
 201 1001 l 1,168,-1
201 1202 m 1,172,-1
 201 1398 l 1,173,-1
 401 1398 l 1,174,-1
 401 1202 l 1,175,-1
 201 1202 l 1,172,-1
0 -198 m 1,176,-1
 0 -2 l 1,177,-1
 201 -2 l 1,178,-1
 201 -198 l 1,179,-1
 0 -198 l 1,176,-1
0 -2 m 1,180,-1
 0 199 l 1,181,-1
 201 199 l 1,182,-1
 201 -2 l 1,183,-1
 0 -2 l 1,180,-1
0 199 m 1,184,-1
 0 399 l 1,185,-1
 201 399 l 1,186,-1
 201 199 l 1,187,-1
 0 199 l 1,184,-1
EndSplineSet
Validated: 5
EndChar

StartChar: two
Encoding: 50 50 21
Width: 1801
Flags: W
LayerCount: 2
Fore
SplineSet
1998 -198 m 1,0,-1
 1998 -396 l 1,1,-1
 1801 -396 l 1,2,-1
 1801 -198 l 1,3,-1
 1998 -198 l 1,0,-1
1801 -198 m 1,4,-1
 1801 -2 l 1,5,-1
 1998 -2 l 1,6,-1
 1998 -198 l 1,7,-1
 1801 -198 l 1,4,-1
1801 -2 m 1,8,-1
 1801 199 l 1,9,-1
 1998 199 l 1,10,-1
 1998 -2 l 1,11,-1
 1801 -2 l 1,8,-1
1801 399 m 1,12,-1
 1801 600 l 1,13,-1
 1998 600 l 1,14,-1
 1998 399 l 1,15,-1
 1801 399 l 1,12,-1
1801 600 m 1,16,-1
 1801 800 l 1,17,-1
 1998 800 l 1,18,-1
 1998 600 l 1,19,-1
 1801 600 l 1,16,-1
1801 800 m 1,20,-1
 1801 1001 l 1,21,-1
 1998 1001 l 1,22,-1
 1998 800 l 1,23,-1
 1801 800 l 1,20,-1
1801 1001 m 1,24,-1
 1801 1202 l 1,25,-1
 1998 1202 l 1,26,-1
 1998 1001 l 1,27,-1
 1801 1001 l 1,24,-1
1801 -198 m 1,28,-1
 1801 -396 l 1,29,-1
 1601 -396 l 1,30,-1
 1601 -198 l 1,31,-1
 1801 -198 l 1,28,-1
1601 -198 m 1,32,-1
 1601 -2 l 1,33,-1
 1801 -2 l 1,34,-1
 1801 -198 l 1,35,-1
 1601 -198 l 1,32,-1
1601 -2 m 1,36,-1
 1601 199 l 1,37,-1
 1801 199 l 1,38,-1
 1801 -2 l 1,39,-1
 1601 -2 l 1,36,-1
1601 199 m 1,40,-1
 1601 399 l 1,41,-1
 1801 399 l 1,42,-1
 1801 199 l 1,43,-1
 1601 199 l 1,40,-1
1601 399 m 1,44,-1
 1601 600 l 1,45,-1
 1801 600 l 1,46,-1
 1801 399 l 1,47,-1
 1601 399 l 1,44,-1
1601 600 m 1,48,-1
 1601 800 l 1,49,-1
 1801 800 l 1,50,-1
 1801 600 l 1,51,-1
 1601 600 l 1,48,-1
1601 800 m 1,52,-1
 1601 1001 l 1,53,-1
 1801 1001 l 1,54,-1
 1801 800 l 1,55,-1
 1601 800 l 1,52,-1
1601 1001 m 1,56,-1
 1601 1202 l 1,57,-1
 1801 1202 l 1,58,-1
 1801 1001 l 1,59,-1
 1601 1001 l 1,56,-1
1601 1202 m 1,60,-1
 1601 1398 l 1,61,-1
 1801 1398 l 1,62,-1
 1801 1202 l 1,63,-1
 1601 1202 l 1,60,-1
1400 1398 m 1,64,-1
 1400 1599 l 1,65,-1
 1601 1599 l 1,66,-1
 1601 1398 l 1,67,-1
 1400 1398 l 1,64,-1
1601 -198 m 1,68,-1
 1601 -396 l 1,69,-1
 1400 -396 l 1,70,-1
 1400 -198 l 1,71,-1
 1601 -198 l 1,68,-1
1400 -198 m 1,72,-1
 1400 -2 l 1,73,-1
 1601 -2 l 1,74,-1
 1601 -198 l 1,75,-1
 1400 -198 l 1,72,-1
1400 199 m 1,76,-1
 1400 399 l 1,77,-1
 1601 399 l 1,78,-1
 1601 199 l 1,79,-1
 1400 199 l 1,76,-1
1400 399 m 1,80,-1
 1400 600 l 1,81,-1
 1601 600 l 1,82,-1
 1601 399 l 1,83,-1
 1400 399 l 1,80,-1
1400 600 m 1,84,-1
 1400 800 l 1,85,-1
 1601 800 l 1,86,-1
 1601 600 l 1,87,-1
 1400 600 l 1,84,-1
1400 1202 m 1,88,-1
 1400 1398 l 1,89,-1
 1601 1398 l 1,90,-1
 1601 1202 l 1,91,-1
 1400 1202 l 1,88,-1
1200 1398 m 1,92,-1
 1200 1599 l 1,93,-1
 1400 1599 l 1,94,-1
 1400 1398 l 1,95,-1
 1200 1398 l 1,92,-1
1400 -198 m 1,96,-1
 1400 -396 l 1,97,-1
 1200 -396 l 1,98,-1
 1200 -198 l 1,99,-1
 1400 -198 l 1,96,-1
1200 -198 m 1,100,-1
 1200 -2 l 1,101,-1
 1400 -2 l 1,102,-1
 1400 -198 l 1,103,-1
 1200 -198 l 1,100,-1
1200 199 m 1,104,-1
 1200 399 l 1,105,-1
 1400 399 l 1,106,-1
 1400 199 l 1,107,-1
 1200 199 l 1,104,-1
1200 399 m 1,108,-1
 1200 600 l 1,109,-1
 1400 600 l 1,110,-1
 1400 399 l 1,111,-1
 1200 399 l 1,108,-1
999 1398 m 1,112,-1
 999 1599 l 1,113,-1
 1200 1599 l 1,114,-1
 1200 1398 l 1,115,-1
 999 1398 l 1,112,-1
1200 -198 m 1,116,-1
 1200 -396 l 1,117,-1
 999 -396 l 1,118,-1
 999 -198 l 1,119,-1
 1200 -198 l 1,116,-1
999 -198 m 1,120,-1
 999 -2 l 1,121,-1
 1200 -2 l 1,122,-1
 1200 -198 l 1,123,-1
 999 -198 l 1,120,-1
999 199 m 1,124,-1
 999 399 l 1,125,-1
 1200 399 l 1,126,-1
 1200 199 l 1,127,-1
 999 199 l 1,124,-1
999 1001 m 1,128,-1
 999 1202 l 1,129,-1
 1200 1202 l 1,130,-1
 1200 1001 l 1,131,-1
 999 1001 l 1,128,-1
798 1398 m 1,132,-1
 798 1599 l 1,133,-1
 999 1599 l 1,134,-1
 999 1398 l 1,135,-1
 798 1398 l 1,132,-1
999 -198 m 1,136,-1
 999 -396 l 1,137,-1
 798 -396 l 1,138,-1
 798 -198 l 1,139,-1
 999 -198 l 1,136,-1
798 -198 m 1,140,-1
 798 -2 l 1,141,-1
 999 -2 l 1,142,-1
 999 -198 l 1,143,-1
 798 -198 l 1,140,-1
798 800 m 1,144,-1
 798 1001 l 1,145,-1
 999 1001 l 1,146,-1
 999 800 l 1,147,-1
 798 800 l 1,144,-1
798 1001 m 1,148,-1
 798 1202 l 1,149,-1
 999 1202 l 1,150,-1
 999 1001 l 1,151,-1
 798 1001 l 1,148,-1
602 1398 m 1,152,-1
 602 1599 l 1,153,-1
 798 1599 l 1,154,-1
 798 1398 l 1,155,-1
 602 1398 l 1,152,-1
798 -198 m 1,156,-1
 798 -396 l 1,157,-1
 602 -396 l 1,158,-1
 602 -198 l 1,159,-1
 798 -198 l 1,156,-1
602 -198 m 1,160,-1
 602 -2 l 1,161,-1
 798 -2 l 1,162,-1
 798 -198 l 1,163,-1
 602 -198 l 1,160,-1
602 600 m 1,164,-1
 602 800 l 1,165,-1
 798 800 l 1,166,-1
 798 600 l 1,167,-1
 602 600 l 1,164,-1
602 800 m 1,168,-1
 602 1001 l 1,169,-1
 798 1001 l 1,170,-1
 798 800 l 1,171,-1
 602 800 l 1,168,-1
602 1001 m 1,172,-1
 602 1202 l 1,173,-1
 798 1202 l 1,174,-1
 798 1001 l 1,175,-1
 602 1001 l 1,172,-1
401 1398 m 1,176,-1
 401 1599 l 1,177,-1
 602 1599 l 1,178,-1
 602 1398 l 1,179,-1
 401 1398 l 1,176,-1
602 -198 m 1,180,-1
 602 -396 l 1,181,-1
 401 -396 l 1,182,-1
 401 -198 l 1,183,-1
 602 -198 l 1,180,-1
401 -198 m 1,184,-1
 401 -2 l 1,185,-1
 602 -2 l 1,186,-1
 602 -198 l 1,187,-1
 401 -198 l 1,184,-1
401 399 m 1,188,-1
 401 600 l 1,189,-1
 602 600 l 1,190,-1
 602 399 l 1,191,-1
 401 399 l 1,188,-1
401 600 m 1,192,-1
 401 800 l 1,193,-1
 602 800 l 1,194,-1
 602 600 l 1,195,-1
 401 600 l 1,192,-1
201 1398 m 1,196,-1
 201 1599 l 1,197,-1
 401 1599 l 1,198,-1
 401 1398 l 1,199,-1
 201 1398 l 1,196,-1
401 -198 m 1,200,-1
 401 -396 l 1,201,-1
 201 -396 l 1,202,-1
 201 -198 l 1,203,-1
 401 -198 l 1,200,-1
201 -198 m 1,204,-1
 201 -2 l 1,205,-1
 401 -2 l 1,206,-1
 401 -198 l 1,207,-1
 201 -198 l 1,204,-1
201 199 m 1,208,-1
 201 399 l 1,209,-1
 401 399 l 1,210,-1
 401 199 l 1,211,-1
 201 199 l 1,208,-1
201 399 m 1,212,-1
 201 600 l 1,213,-1
 401 600 l 1,214,-1
 401 399 l 1,215,-1
 201 399 l 1,212,-1
201 600 m 1,216,-1
 201 800 l 1,217,-1
 401 800 l 1,218,-1
 401 600 l 1,219,-1
 201 600 l 1,216,-1
201 1202 m 1,220,-1
 201 1398 l 1,221,-1
 401 1398 l 1,222,-1
 401 1202 l 1,223,-1
 201 1202 l 1,220,-1
0 -198 m 1,224,-1
 0 -2 l 1,225,-1
 201 -2 l 1,226,-1
 201 -198 l 1,227,-1
 0 -198 l 1,224,-1
0 -2 m 1,228,-1
 0 199 l 1,229,-1
 201 199 l 1,230,-1
 201 -2 l 1,231,-1
 0 -2 l 1,228,-1
0 199 m 1,232,-1
 0 399 l 1,233,-1
 201 399 l 1,234,-1
 201 199 l 1,235,-1
 0 199 l 1,232,-1
0 600 m 1,236,-1
 0 800 l 1,237,-1
 201 800 l 1,238,-1
 201 600 l 1,239,-1
 0 600 l 1,236,-1
0 800 m 1,240,-1
 0 1001 l 1,241,-1
 201 1001 l 1,242,-1
 201 800 l 1,243,-1
 0 800 l 1,240,-1
0 1001 m 1,244,-1
 0 1202 l 1,245,-1
 201 1202 l 1,246,-1
 201 1001 l 1,247,-1
 0 1001 l 1,244,-1
0 1202 m 1,248,-1
 0 1398 l 1,249,-1
 201 1398 l 1,250,-1
 201 1202 l 1,251,-1
 0 1202 l 1,248,-1
EndSplineSet
Validated: 5
EndChar

StartChar: three
Encoding: 51 51 22
Width: 1801
Flags: W
LayerCount: 2
Fore
SplineSet
1801 -198 m 1,0,-1
 1801 -2 l 1,1,-1
 1998 -2 l 1,2,-1
 1998 -198 l 1,3,-1
 1801 -198 l 1,0,-1
1801 -2 m 1,4,-1
 1801 199 l 1,5,-1
 1998 199 l 1,6,-1
 1998 -2 l 1,7,-1
 1801 -2 l 1,4,-1
1801 199 m 1,8,-1
 1801 399 l 1,9,-1
 1998 399 l 1,10,-1
 1998 199 l 1,11,-1
 1801 199 l 1,8,-1
1801 399 m 1,12,-1
 1801 600 l 1,13,-1
 1998 600 l 1,14,-1
 1998 399 l 1,15,-1
 1801 399 l 1,12,-1
1801 600 m 1,16,-1
 1801 800 l 1,17,-1
 1998 800 l 1,18,-1
 1998 600 l 1,19,-1
 1801 600 l 1,16,-1
1801 800 m 1,20,-1
 1801 1001 l 1,21,-1
 1998 1001 l 1,22,-1
 1998 800 l 1,23,-1
 1801 800 l 1,20,-1
1801 1001 m 1,24,-1
 1801 1202 l 1,25,-1
 1998 1202 l 1,26,-1
 1998 1001 l 1,27,-1
 1801 1001 l 1,24,-1
1801 -198 m 1,28,-1
 1801 -396 l 1,29,-1
 1601 -396 l 1,30,-1
 1601 -198 l 1,31,-1
 1801 -198 l 1,28,-1
1601 -198 m 1,32,-1
 1601 -2 l 1,33,-1
 1801 -2 l 1,34,-1
 1801 -198 l 1,35,-1
 1601 -198 l 1,32,-1
1601 -2 m 1,36,-1
 1601 199 l 1,37,-1
 1801 199 l 1,38,-1
 1801 -2 l 1,39,-1
 1601 -2 l 1,36,-1
1601 199 m 1,40,-1
 1601 399 l 1,41,-1
 1801 399 l 1,42,-1
 1801 199 l 1,43,-1
 1601 199 l 1,40,-1
1601 399 m 1,44,-1
 1601 600 l 1,45,-1
 1801 600 l 1,46,-1
 1801 399 l 1,47,-1
 1601 399 l 1,44,-1
1601 600 m 1,48,-1
 1601 800 l 1,49,-1
 1801 800 l 1,50,-1
 1801 600 l 1,51,-1
 1601 600 l 1,48,-1
1601 800 m 1,52,-1
 1601 1001 l 1,53,-1
 1801 1001 l 1,54,-1
 1801 800 l 1,55,-1
 1601 800 l 1,52,-1
1601 1001 m 1,56,-1
 1601 1202 l 1,57,-1
 1801 1202 l 1,58,-1
 1801 1001 l 1,59,-1
 1601 1001 l 1,56,-1
1601 1202 m 1,60,-1
 1601 1398 l 1,61,-1
 1801 1398 l 1,62,-1
 1801 1202 l 1,63,-1
 1601 1202 l 1,60,-1
1400 1398 m 1,64,-1
 1400 1599 l 1,65,-1
 1601 1599 l 1,66,-1
 1601 1398 l 1,67,-1
 1400 1398 l 1,64,-1
1601 -198 m 1,68,-1
 1601 -396 l 1,69,-1
 1400 -396 l 1,70,-1
 1400 -198 l 1,71,-1
 1601 -198 l 1,68,-1
1400 -198 m 1,72,-1
 1400 -2 l 1,73,-1
 1601 -2 l 1,74,-1
 1601 -198 l 1,75,-1
 1400 -198 l 1,72,-1
1400 -2 m 1,76,-1
 1400 199 l 1,77,-1
 1601 199 l 1,78,-1
 1601 -2 l 1,79,-1
 1400 -2 l 1,76,-1
1400 600 m 1,80,-1
 1400 800 l 1,81,-1
 1601 800 l 1,82,-1
 1601 600 l 1,83,-1
 1400 600 l 1,80,-1
1400 1202 m 1,84,-1
 1400 1398 l 1,85,-1
 1601 1398 l 1,86,-1
 1601 1202 l 1,87,-1
 1400 1202 l 1,84,-1
1200 1398 m 1,88,-1
 1200 1599 l 1,89,-1
 1400 1599 l 1,90,-1
 1400 1398 l 1,91,-1
 1200 1398 l 1,88,-1
1400 -198 m 1,92,-1
 1400 -396 l 1,93,-1
 1200 -396 l 1,94,-1
 1200 -198 l 1,95,-1
 1400 -198 l 1,92,-1
1200 -198 m 1,96,-1
 1200 -2 l 1,97,-1
 1400 -2 l 1,98,-1
 1400 -198 l 1,99,-1
 1200 -198 l 1,96,-1
999 1398 m 1,100,-1
 999 1599 l 1,101,-1
 1200 1599 l 1,102,-1
 1200 1398 l 1,103,-1
 999 1398 l 1,100,-1
1200 -198 m 1,104,-1
 1200 -396 l 1,105,-1
 999 -396 l 1,106,-1
 999 -198 l 1,107,-1
 1200 -198 l 1,104,-1
999 -198 m 1,108,-1
 999 -2 l 1,109,-1
 1200 -2 l 1,110,-1
 1200 -198 l 1,111,-1
 999 -198 l 1,108,-1
999 199 m 1,112,-1
 999 399 l 1,113,-1
 1200 399 l 1,114,-1
 1200 199 l 1,115,-1
 999 199 l 1,112,-1
999 399 m 1,116,-1
 999 600 l 1,117,-1
 1200 600 l 1,118,-1
 1200 399 l 1,119,-1
 999 399 l 1,116,-1
999 800 m 1,120,-1
 999 1001 l 1,121,-1
 1200 1001 l 1,122,-1
 1200 800 l 1,123,-1
 999 800 l 1,120,-1
999 1001 m 1,124,-1
 999 1202 l 1,125,-1
 1200 1202 l 1,126,-1
 1200 1001 l 1,127,-1
 999 1001 l 1,124,-1
798 1398 m 1,128,-1
 798 1599 l 1,129,-1
 999 1599 l 1,130,-1
 999 1398 l 1,131,-1
 798 1398 l 1,128,-1
999 -198 m 1,132,-1
 999 -396 l 1,133,-1
 798 -396 l 1,134,-1
 798 -198 l 1,135,-1
 999 -198 l 1,132,-1
798 -198 m 1,136,-1
 798 -2 l 1,137,-1
 999 -2 l 1,138,-1
 999 -198 l 1,139,-1
 798 -198 l 1,136,-1
798 199 m 1,140,-1
 798 399 l 1,141,-1
 999 399 l 1,142,-1
 999 199 l 1,143,-1
 798 199 l 1,140,-1
798 399 m 1,144,-1
 798 600 l 1,145,-1
 999 600 l 1,146,-1
 999 399 l 1,147,-1
 798 399 l 1,144,-1
798 800 m 1,148,-1
 798 1001 l 1,149,-1
 999 1001 l 1,150,-1
 999 800 l 1,151,-1
 798 800 l 1,148,-1
798 1001 m 1,152,-1
 798 1202 l 1,153,-1
 999 1202 l 1,154,-1
 999 1001 l 1,155,-1
 798 1001 l 1,152,-1
602 1398 m 1,156,-1
 602 1599 l 1,157,-1
 798 1599 l 1,158,-1
 798 1398 l 1,159,-1
 602 1398 l 1,156,-1
798 -198 m 1,160,-1
 798 -396 l 1,161,-1
 602 -396 l 1,162,-1
 602 -198 l 1,163,-1
 798 -198 l 1,160,-1
602 -198 m 1,164,-1
 602 -2 l 1,165,-1
 798 -2 l 1,166,-1
 798 -198 l 1,167,-1
 602 -198 l 1,164,-1
602 199 m 1,168,-1
 602 399 l 1,169,-1
 798 399 l 1,170,-1
 798 199 l 1,171,-1
 602 199 l 1,168,-1
602 399 m 1,172,-1
 602 600 l 1,173,-1
 798 600 l 1,174,-1
 798 399 l 1,175,-1
 602 399 l 1,172,-1
602 600 m 1,176,-1
 602 800 l 1,177,-1
 798 800 l 1,178,-1
 798 600 l 1,179,-1
 602 600 l 1,176,-1
602 800 m 1,180,-1
 602 1001 l 1,181,-1
 798 1001 l 1,182,-1
 798 800 l 1,183,-1
 602 800 l 1,180,-1
602 1001 m 1,184,-1
 602 1202 l 1,185,-1
 798 1202 l 1,186,-1
 798 1001 l 1,187,-1
 602 1001 l 1,184,-1
401 1398 m 1,188,-1
 401 1599 l 1,189,-1
 602 1599 l 1,190,-1
 602 1398 l 1,191,-1
 401 1398 l 1,188,-1
602 -198 m 1,192,-1
 602 -396 l 1,193,-1
 401 -396 l 1,194,-1
 401 -198 l 1,195,-1
 602 -198 l 1,192,-1
401 -198 m 1,196,-1
 401 -2 l 1,197,-1
 602 -2 l 1,198,-1
 602 -198 l 1,199,-1
 401 -198 l 1,196,-1
401 399 m 1,200,-1
 401 600 l 1,201,-1
 602 600 l 1,202,-1
 602 399 l 1,203,-1
 401 399 l 1,200,-1
401 600 m 1,204,-1
 401 800 l 1,205,-1
 602 800 l 1,206,-1
 602 600 l 1,207,-1
 401 600 l 1,204,-1
401 800 m 1,208,-1
 401 1001 l 1,209,-1
 602 1001 l 1,210,-1
 602 800 l 1,211,-1
 401 800 l 1,208,-1
201 1398 m 1,212,-1
 201 1599 l 1,213,-1
 401 1599 l 1,214,-1
 401 1398 l 1,215,-1
 201 1398 l 1,212,-1
201 -198 m 1,216,-1
 201 -2 l 1,217,-1
 401 -2 l 1,218,-1
 401 -198 l 1,219,-1
 201 -198 l 1,216,-1
201 -2 m 1,220,-1
 201 199 l 1,221,-1
 401 199 l 1,222,-1
 401 -2 l 1,223,-1
 201 -2 l 1,220,-1
201 399 m 1,224,-1
 201 600 l 1,225,-1
 401 600 l 1,226,-1
 401 399 l 1,227,-1
 201 399 l 1,224,-1
201 600 m 1,228,-1
 201 800 l 1,229,-1
 401 800 l 1,230,-1
 401 600 l 1,231,-1
 201 600 l 1,228,-1
201 800 m 1,232,-1
 201 1001 l 1,233,-1
 401 1001 l 1,234,-1
 401 800 l 1,235,-1
 201 800 l 1,232,-1
201 1202 m 1,236,-1
 201 1398 l 1,237,-1
 401 1398 l 1,238,-1
 401 1202 l 1,239,-1
 201 1202 l 1,236,-1
0 -2 m 1,240,-1
 0 199 l 1,241,-1
 201 199 l 1,242,-1
 201 -2 l 1,243,-1
 0 -2 l 1,240,-1
0 199 m 1,244,-1
 0 399 l 1,245,-1
 201 399 l 1,246,-1
 201 199 l 1,247,-1
 0 199 l 1,244,-1
0 399 m 1,248,-1
 0 600 l 1,249,-1
 201 600 l 1,250,-1
 201 399 l 1,251,-1
 0 399 l 1,248,-1
0 800 m 1,252,-1
 0 1001 l 1,253,-1
 201 1001 l 1,254,-1
 201 800 l 1,255,-1
 0 800 l 1,252,-1
0 1001 m 1,256,-1
 0 1202 l 1,257,-1
 201 1202 l 1,258,-1
 201 1001 l 1,259,-1
 0 1001 l 1,256,-1
0 1202 m 1,260,-1
 0 1398 l 1,261,-1
 201 1398 l 1,262,-1
 201 1202 l 1,263,-1
 0 1202 l 1,260,-1
EndSplineSet
Validated: 5
EndChar

StartChar: four
Encoding: 52 52 23
Width: 1801
Flags: W
LayerCount: 2
Fore
SplineSet
1801 -198 m 1,0,-1
 1801 -2 l 1,1,-1
 1998 -2 l 1,2,-1
 1998 -198 l 1,3,-1
 1801 -198 l 1,0,-1
1801 -2 m 1,4,-1
 1801 199 l 1,5,-1
 1998 199 l 1,6,-1
 1998 -2 l 1,7,-1
 1801 -2 l 1,4,-1
1801 199 m 1,8,-1
 1801 399 l 1,9,-1
 1998 399 l 1,10,-1
 1998 199 l 1,11,-1
 1801 199 l 1,8,-1
1801 -198 m 1,12,-1
 1801 -396 l 1,13,-1
 1601 -396 l 1,14,-1
 1601 -198 l 1,15,-1
 1801 -198 l 1,12,-1
1601 -198 m 1,16,-1
 1601 -2 l 1,17,-1
 1801 -2 l 1,18,-1
 1801 -198 l 1,19,-1
 1601 -198 l 1,16,-1
1601 -2 m 1,20,-1
 1601 199 l 1,21,-1
 1801 199 l 1,22,-1
 1801 -2 l 1,23,-1
 1601 -2 l 1,20,-1
1601 199 m 1,24,-1
 1601 399 l 1,25,-1
 1801 399 l 1,26,-1
 1801 199 l 1,27,-1
 1601 199 l 1,24,-1
1601 399 m 1,28,-1
 1601 600 l 1,29,-1
 1801 600 l 1,30,-1
 1801 399 l 1,31,-1
 1601 399 l 1,28,-1
1601 600 m 1,32,-1
 1601 800 l 1,33,-1
 1801 800 l 1,34,-1
 1801 600 l 1,35,-1
 1601 600 l 1,32,-1
1601 800 m 1,36,-1
 1601 1001 l 1,37,-1
 1801 1001 l 1,38,-1
 1801 800 l 1,39,-1
 1601 800 l 1,36,-1
1601 1001 m 1,40,-1
 1601 1202 l 1,41,-1
 1801 1202 l 1,42,-1
 1801 1001 l 1,43,-1
 1601 1001 l 1,40,-1
1601 1202 m 1,44,-1
 1601 1398 l 1,45,-1
 1801 1398 l 1,46,-1
 1801 1202 l 1,47,-1
 1601 1202 l 1,44,-1
1400 1398 m 1,48,-1
 1400 1599 l 1,49,-1
 1601 1599 l 1,50,-1
 1601 1398 l 1,51,-1
 1400 1398 l 1,48,-1
1601 -198 m 1,52,-1
 1601 -396 l 1,53,-1
 1400 -396 l 1,54,-1
 1400 -198 l 1,55,-1
 1601 -198 l 1,52,-1
1400 -198 m 1,56,-1
 1400 -2 l 1,57,-1
 1601 -2 l 1,58,-1
 1601 -198 l 1,59,-1
 1400 -198 l 1,56,-1
1400 -2 m 1,60,-1
 1400 199 l 1,61,-1
 1601 199 l 1,62,-1
 1601 -2 l 1,63,-1
 1400 -2 l 1,60,-1
1400 399 m 1,64,-1
 1400 600 l 1,65,-1
 1601 600 l 1,66,-1
 1601 399 l 1,67,-1
 1400 399 l 1,64,-1
1400 600 m 1,68,-1
 1400 800 l 1,69,-1
 1601 800 l 1,70,-1
 1601 600 l 1,71,-1
 1400 600 l 1,68,-1
1400 800 m 1,72,-1
 1400 1001 l 1,73,-1
 1601 1001 l 1,74,-1
 1601 800 l 1,75,-1
 1400 800 l 1,72,-1
1400 1001 m 1,76,-1
 1400 1202 l 1,77,-1
 1601 1202 l 1,78,-1
 1601 1001 l 1,79,-1
 1400 1001 l 1,76,-1
1400 1202 m 1,80,-1
 1400 1398 l 1,81,-1
 1601 1398 l 1,82,-1
 1601 1202 l 1,83,-1
 1400 1202 l 1,80,-1
1200 1398 m 1,84,-1
 1200 1599 l 1,85,-1
 1400 1599 l 1,86,-1
 1400 1398 l 1,87,-1
 1200 1398 l 1,84,-1
1400 -198 m 1,88,-1
 1400 -396 l 1,89,-1
 1200 -396 l 1,90,-1
 1200 -198 l 1,91,-1
 1400 -198 l 1,88,-1
1200 -198 m 1,92,-1
 1200 -2 l 1,93,-1
 1400 -2 l 1,94,-1
 1400 -198 l 1,95,-1
 1200 -198 l 1,92,-1
999 1398 m 1,96,-1
 999 1599 l 1,97,-1
 1200 1599 l 1,98,-1
 1200 1398 l 1,99,-1
 999 1398 l 1,96,-1
1200 -198 m 1,100,-1
 1200 -396 l 1,101,-1
 999 -396 l 1,102,-1
 999 -198 l 1,103,-1
 1200 -198 l 1,100,-1
999 -198 m 1,104,-1
 999 -2 l 1,105,-1
 1200 -2 l 1,106,-1
 1200 -198 l 1,107,-1
 999 -198 l 1,104,-1
798 1398 m 1,108,-1
 798 1599 l 1,109,-1
 999 1599 l 1,110,-1
 999 1398 l 1,111,-1
 798 1398 l 1,108,-1
798 -198 m 1,112,-1
 798 -2 l 1,113,-1
 999 -2 l 1,114,-1
 999 -198 l 1,115,-1
 798 -198 l 1,112,-1
798 -2 m 1,116,-1
 798 199 l 1,117,-1
 999 199 l 1,118,-1
 999 -2 l 1,119,-1
 798 -2 l 1,116,-1
798 399 m 1,120,-1
 798 600 l 1,121,-1
 999 600 l 1,122,-1
 999 399 l 1,123,-1
 798 399 l 1,120,-1
798 600 m 1,124,-1
 798 800 l 1,125,-1
 999 800 l 1,126,-1
 999 600 l 1,127,-1
 798 600 l 1,124,-1
798 1202 m 1,128,-1
 798 1398 l 1,129,-1
 999 1398 l 1,130,-1
 999 1202 l 1,131,-1
 798 1202 l 1,128,-1
602 -198 m 1,132,-1
 602 -2 l 1,133,-1
 798 -2 l 1,134,-1
 798 -198 l 1,135,-1
 602 -198 l 1,132,-1
602 -2 m 1,136,-1
 602 199 l 1,137,-1
 798 199 l 1,138,-1
 798 -2 l 1,139,-1
 602 -2 l 1,136,-1
602 399 m 1,140,-1
 602 600 l 1,141,-1
 798 600 l 1,142,-1
 798 399 l 1,143,-1
 602 399 l 1,140,-1
602 1001 m 1,144,-1
 602 1202 l 1,145,-1
 798 1202 l 1,146,-1
 798 1001 l 1,147,-1
 602 1001 l 1,144,-1
602 1202 m 1,148,-1
 602 1398 l 1,149,-1
 798 1398 l 1,150,-1
 798 1202 l 1,151,-1
 602 1202 l 1,148,-1
401 -198 m 1,152,-1
 401 -2 l 1,153,-1
 602 -2 l 1,154,-1
 602 -198 l 1,155,-1
 401 -198 l 1,152,-1
401 -2 m 1,156,-1
 401 199 l 1,157,-1
 602 199 l 1,158,-1
 602 -2 l 1,159,-1
 401 -2 l 1,156,-1
401 800 m 1,160,-1
 401 1001 l 1,161,-1
 602 1001 l 1,162,-1
 602 800 l 1,163,-1
 401 800 l 1,160,-1
401 1001 m 1,164,-1
 401 1202 l 1,165,-1
 602 1202 l 1,166,-1
 602 1001 l 1,167,-1
 401 1001 l 1,164,-1
201 -198 m 1,168,-1
 201 -2 l 1,169,-1
 401 -2 l 1,170,-1
 401 -198 l 1,171,-1
 201 -198 l 1,168,-1
201 -2 m 1,172,-1
 201 199 l 1,173,-1
 401 199 l 1,174,-1
 401 -2 l 1,175,-1
 201 -2 l 1,172,-1
201 600 m 1,176,-1
 201 800 l 1,177,-1
 401 800 l 1,178,-1
 401 600 l 1,179,-1
 201 600 l 1,176,-1
201 800 m 1,180,-1
 201 1001 l 1,181,-1
 401 1001 l 1,182,-1
 401 800 l 1,183,-1
 201 800 l 1,180,-1
0 -2 m 1,184,-1
 0 199 l 1,185,-1
 201 199 l 1,186,-1
 201 -2 l 1,187,-1
 0 -2 l 1,184,-1
0 199 m 1,188,-1
 0 399 l 1,189,-1
 201 399 l 1,190,-1
 201 199 l 1,191,-1
 0 199 l 1,188,-1
0 399 m 1,192,-1
 0 600 l 1,193,-1
 201 600 l 1,194,-1
 201 399 l 1,195,-1
 0 399 l 1,192,-1
0 600 m 1,196,-1
 0 800 l 1,197,-1
 201 800 l 1,198,-1
 201 600 l 1,199,-1
 0 600 l 1,196,-1
EndSplineSet
Validated: 5
EndChar

StartChar: five
Encoding: 53 53 24
Width: 1801
Flags: W
LayerCount: 2
Fore
SplineSet
1801 -198 m 1,0,-1
 1801 -2 l 1,1,-1
 1998 -2 l 1,2,-1
 1998 -198 l 1,3,-1
 1801 -198 l 1,0,-1
1801 -2 m 1,4,-1
 1801 199 l 1,5,-1
 1998 199 l 1,6,-1
 1998 -2 l 1,7,-1
 1801 -2 l 1,4,-1
1801 199 m 1,8,-1
 1801 399 l 1,9,-1
 1998 399 l 1,10,-1
 1998 199 l 1,11,-1
 1801 199 l 1,8,-1
1801 399 m 1,12,-1
 1801 600 l 1,13,-1
 1998 600 l 1,14,-1
 1998 399 l 1,15,-1
 1801 399 l 1,12,-1
1801 600 m 1,16,-1
 1801 800 l 1,17,-1
 1998 800 l 1,18,-1
 1998 600 l 1,19,-1
 1801 600 l 1,16,-1
1801 800 m 1,20,-1
 1801 1001 l 1,21,-1
 1998 1001 l 1,22,-1
 1998 800 l 1,23,-1
 1801 800 l 1,20,-1
1801 1001 m 1,24,-1
 1801 1202 l 1,25,-1
 1998 1202 l 1,26,-1
 1998 1001 l 1,27,-1
 1801 1001 l 1,24,-1
1801 1202 m 1,28,-1
 1801 1398 l 1,29,-1
 1998 1398 l 1,30,-1
 1998 1202 l 1,31,-1
 1801 1202 l 1,28,-1
1801 1398 m 1,32,-1
 1801 1599 l 1,33,-1
 1998 1599 l 1,34,-1
 1998 1398 l 1,35,-1
 1801 1398 l 1,32,-1
1601 1398 m 1,36,-1
 1601 1599 l 1,37,-1
 1801 1599 l 1,38,-1
 1801 1398 l 1,39,-1
 1601 1398 l 1,36,-1
1801 -198 m 1,40,-1
 1801 -396 l 1,41,-1
 1601 -396 l 1,42,-1
 1601 -198 l 1,43,-1
 1801 -198 l 1,40,-1
1601 -198 m 1,44,-1
 1601 -2 l 1,45,-1
 1801 -2 l 1,46,-1
 1801 -198 l 1,47,-1
 1601 -198 l 1,44,-1
1601 -2 m 1,48,-1
 1601 199 l 1,49,-1
 1801 199 l 1,50,-1
 1801 -2 l 1,51,-1
 1601 -2 l 1,48,-1
1601 199 m 1,52,-1
 1601 399 l 1,53,-1
 1801 399 l 1,54,-1
 1801 199 l 1,55,-1
 1601 199 l 1,52,-1
1601 399 m 1,56,-1
 1601 600 l 1,57,-1
 1801 600 l 1,58,-1
 1801 399 l 1,59,-1
 1601 399 l 1,56,-1
1601 600 m 1,60,-1
 1601 800 l 1,61,-1
 1801 800 l 1,62,-1
 1801 600 l 1,63,-1
 1601 600 l 1,60,-1
1601 800 m 1,64,-1
 1601 1001 l 1,65,-1
 1801 1001 l 1,66,-1
 1801 800 l 1,67,-1
 1601 800 l 1,64,-1
1601 1001 m 1,68,-1
 1601 1202 l 1,69,-1
 1801 1202 l 1,70,-1
 1801 1001 l 1,71,-1
 1601 1001 l 1,68,-1
1601 1202 m 1,72,-1
 1601 1398 l 1,73,-1
 1801 1398 l 1,74,-1
 1801 1202 l 1,75,-1
 1601 1202 l 1,72,-1
1400 1398 m 1,76,-1
 1400 1599 l 1,77,-1
 1601 1599 l 1,78,-1
 1601 1398 l 1,79,-1
 1400 1398 l 1,76,-1
1601 -198 m 1,80,-1
 1601 -396 l 1,81,-1
 1400 -396 l 1,82,-1
 1400 -198 l 1,83,-1
 1601 -198 l 1,80,-1
1400 -198 m 1,84,-1
 1400 -2 l 1,85,-1
 1601 -2 l 1,86,-1
 1601 -198 l 1,87,-1
 1400 -198 l 1,84,-1
1400 -2 m 1,88,-1
 1400 199 l 1,89,-1
 1601 199 l 1,90,-1
 1601 -2 l 1,91,-1
 1400 -2 l 1,88,-1
1400 800 m 1,92,-1
 1400 1001 l 1,93,-1
 1601 1001 l 1,94,-1
 1601 800 l 1,95,-1
 1400 800 l 1,92,-1
1400 1001 m 1,96,-1
 1400 1202 l 1,97,-1
 1601 1202 l 1,98,-1
 1601 1001 l 1,99,-1
 1400 1001 l 1,96,-1
1200 1398 m 1,100,-1
 1200 1599 l 1,101,-1
 1400 1599 l 1,102,-1
 1400 1398 l 1,103,-1
 1200 1398 l 1,100,-1
1400 -198 m 1,104,-1
 1400 -396 l 1,105,-1
 1200 -396 l 1,106,-1
 1200 -198 l 1,107,-1
 1400 -198 l 1,104,-1
1200 -198 m 1,108,-1
 1200 -2 l 1,109,-1
 1400 -2 l 1,110,-1
 1400 -198 l 1,111,-1
 1200 -198 l 1,108,-1
1200 1001 m 1,112,-1
 1200 1202 l 1,113,-1
 1400 1202 l 1,114,-1
 1400 1001 l 1,115,-1
 1200 1001 l 1,112,-1
999 1398 m 1,116,-1
 999 1599 l 1,117,-1
 1200 1599 l 1,118,-1
 1200 1398 l 1,119,-1
 999 1398 l 1,116,-1
1200 -198 m 1,120,-1
 1200 -396 l 1,121,-1
 999 -396 l 1,122,-1
 999 -198 l 1,123,-1
 1200 -198 l 1,120,-1
999 -198 m 1,124,-1
 999 -2 l 1,125,-1
 1200 -2 l 1,126,-1
 1200 -198 l 1,127,-1
 999 -198 l 1,124,-1
999 199 m 1,128,-1
 999 399 l 1,129,-1
 1200 399 l 1,130,-1
 1200 199 l 1,131,-1
 999 199 l 1,128,-1
999 399 m 1,132,-1
 999 600 l 1,133,-1
 1200 600 l 1,134,-1
 1200 399 l 1,135,-1
 999 399 l 1,132,-1
999 600 m 1,136,-1
 999 800 l 1,137,-1
 1200 800 l 1,138,-1
 1200 600 l 1,139,-1
 999 600 l 1,136,-1
999 1001 m 1,140,-1
 999 1202 l 1,141,-1
 1200 1202 l 1,142,-1
 1200 1001 l 1,143,-1
 999 1001 l 1,140,-1
798 1398 m 1,144,-1
 798 1599 l 1,145,-1
 999 1599 l 1,146,-1
 999 1398 l 1,147,-1
 798 1398 l 1,144,-1
999 -198 m 1,148,-1
 999 -396 l 1,149,-1
 798 -396 l 1,150,-1
 798 -198 l 1,151,-1
 999 -198 l 1,148,-1
798 -198 m 1,152,-1
 798 -2 l 1,153,-1
 999 -2 l 1,154,-1
 999 -198 l 1,155,-1
 798 -198 l 1,152,-1
798 199 m 1,156,-1
 798 399 l 1,157,-1
 999 399 l 1,158,-1
 999 199 l 1,159,-1
 798 199 l 1,156,-1
798 399 m 1,160,-1
 798 600 l 1,161,-1
 999 600 l 1,162,-1
 999 399 l 1,163,-1
 798 399 l 1,160,-1
798 600 m 1,164,-1
 798 800 l 1,165,-1
 999 800 l 1,166,-1
 999 600 l 1,167,-1
 798 600 l 1,164,-1
798 1001 m 1,168,-1
 798 1202 l 1,169,-1
 999 1202 l 1,170,-1
 999 1001 l 1,171,-1
 798 1001 l 1,168,-1
602 1398 m 1,172,-1
 602 1599 l 1,173,-1
 798 1599 l 1,174,-1
 798 1398 l 1,175,-1
 602 1398 l 1,172,-1
798 -198 m 1,176,-1
 798 -396 l 1,177,-1
 602 -396 l 1,178,-1
 602 -198 l 1,179,-1
 798 -198 l 1,176,-1
602 -198 m 1,180,-1
 602 -2 l 1,181,-1
 798 -2 l 1,182,-1
 798 -198 l 1,183,-1
 602 -198 l 1,180,-1
602 199 m 1,184,-1
 602 399 l 1,185,-1
 798 399 l 1,186,-1
 798 199 l 1,187,-1
 602 199 l 1,184,-1
602 399 m 1,188,-1
 602 600 l 1,189,-1
 798 600 l 1,190,-1
 798 399 l 1,191,-1
 602 399 l 1,188,-1
602 600 m 1,192,-1
 602 800 l 1,193,-1
 798 800 l 1,194,-1
 798 600 l 1,195,-1
 602 600 l 1,192,-1
602 1001 m 1,196,-1
 602 1202 l 1,197,-1
 798 1202 l 1,198,-1
 798 1001 l 1,199,-1
 602 1001 l 1,196,-1
401 1398 m 1,200,-1
 401 1599 l 1,201,-1
 602 1599 l 1,202,-1
 602 1398 l 1,203,-1
 401 1398 l 1,200,-1
602 -198 m 1,204,-1
 602 -396 l 1,205,-1
 401 -396 l 1,206,-1
 401 -198 l 1,207,-1
 602 -198 l 1,204,-1
401 -198 m 1,208,-1
 401 -2 l 1,209,-1
 602 -2 l 1,210,-1
 602 -198 l 1,211,-1
 401 -198 l 1,208,-1
401 399 m 1,212,-1
 401 600 l 1,213,-1
 602 600 l 1,214,-1
 602 399 l 1,215,-1
 401 399 l 1,212,-1
401 600 m 1,216,-1
 401 800 l 1,217,-1
 602 800 l 1,218,-1
 602 600 l 1,219,-1
 401 600 l 1,216,-1
201 1398 m 1,220,-1
 201 1599 l 1,221,-1
 401 1599 l 1,222,-1
 401 1398 l 1,223,-1
 201 1398 l 1,220,-1
201 -198 m 1,224,-1
 201 -2 l 1,225,-1
 401 -2 l 1,226,-1
 401 -198 l 1,227,-1
 201 -198 l 1,224,-1
201 -2 m 1,228,-1
 201 199 l 1,229,-1
 401 199 l 1,230,-1
 401 -2 l 1,231,-1
 201 -2 l 1,228,-1
201 399 m 1,232,-1
 201 600 l 1,233,-1
 401 600 l 1,234,-1
 401 399 l 1,235,-1
 201 399 l 1,232,-1
201 600 m 1,236,-1
 201 800 l 1,237,-1
 401 800 l 1,238,-1
 401 600 l 1,239,-1
 201 600 l 1,236,-1
0 1398 m 1,240,-1
 0 1599 l 1,241,-1
 201 1599 l 1,242,-1
 201 1398 l 1,243,-1
 0 1398 l 1,240,-1
0 -2 m 1,244,-1
 0 199 l 1,245,-1
 201 199 l 1,246,-1
 201 -2 l 1,247,-1
 0 -2 l 1,244,-1
0 199 m 1,248,-1
 0 399 l 1,249,-1
 201 399 l 1,250,-1
 201 199 l 1,251,-1
 0 199 l 1,248,-1
0 399 m 1,252,-1
 0 600 l 1,253,-1
 201 600 l 1,254,-1
 201 399 l 1,255,-1
 0 399 l 1,252,-1
0 600 m 1,256,-1
 0 800 l 1,257,-1
 201 800 l 1,258,-1
 201 600 l 1,259,-1
 0 600 l 1,256,-1
0 800 m 1,260,-1
 0 1001 l 1,261,-1
 201 1001 l 1,262,-1
 201 800 l 1,263,-1
 0 800 l 1,260,-1
0 1001 m 1,264,-1
 0 1202 l 1,265,-1
 201 1202 l 1,266,-1
 201 1001 l 1,267,-1
 0 1001 l 1,264,-1
0 1202 m 1,268,-1
 0 1398 l 1,269,-1
 201 1398 l 1,270,-1
 201 1202 l 1,271,-1
 0 1202 l 1,268,-1
EndSplineSet
Validated: 5
EndChar

StartChar: six
Encoding: 54 54 25
Width: 1801
Flags: W
LayerCount: 2
Fore
SplineSet
1801 -198 m 1,0,-1
 1801 -2 l 1,1,-1
 1998 -2 l 1,2,-1
 1998 -198 l 1,3,-1
 1801 -198 l 1,0,-1
1801 -2 m 1,4,-1
 1801 199 l 1,5,-1
 1998 199 l 1,6,-1
 1998 -2 l 1,7,-1
 1801 -2 l 1,4,-1
1801 199 m 1,8,-1
 1801 399 l 1,9,-1
 1998 399 l 1,10,-1
 1998 199 l 1,11,-1
 1801 199 l 1,8,-1
1801 399 m 1,12,-1
 1801 600 l 1,13,-1
 1998 600 l 1,14,-1
 1998 399 l 1,15,-1
 1801 399 l 1,12,-1
1801 -198 m 1,16,-1
 1801 -396 l 1,17,-1
 1601 -396 l 1,18,-1
 1601 -198 l 1,19,-1
 1801 -198 l 1,16,-1
1601 -198 m 1,20,-1
 1601 -2 l 1,21,-1
 1801 -2 l 1,22,-1
 1801 -198 l 1,23,-1
 1601 -198 l 1,20,-1
1601 -2 m 1,24,-1
 1601 199 l 1,25,-1
 1801 199 l 1,26,-1
 1801 -2 l 1,27,-1
 1601 -2 l 1,24,-1
1601 199 m 1,28,-1
 1601 399 l 1,29,-1
 1801 399 l 1,30,-1
 1801 199 l 1,31,-1
 1601 199 l 1,28,-1
1601 399 m 1,32,-1
 1601 600 l 1,33,-1
 1801 600 l 1,34,-1
 1801 399 l 1,35,-1
 1601 399 l 1,32,-1
1601 600 m 1,36,-1
 1601 800 l 1,37,-1
 1801 800 l 1,38,-1
 1801 600 l 1,39,-1
 1601 600 l 1,36,-1
1601 -198 m 1,40,-1
 1601 -396 l 1,41,-1
 1400 -396 l 1,42,-1
 1400 -198 l 1,43,-1
 1601 -198 l 1,40,-1
1400 -198 m 1,44,-1
 1400 -2 l 1,45,-1
 1601 -2 l 1,46,-1
 1601 -198 l 1,47,-1
 1400 -198 l 1,44,-1
1400 -2 m 1,48,-1
 1400 199 l 1,49,-1
 1601 199 l 1,50,-1
 1601 -2 l 1,51,-1
 1400 -2 l 1,48,-1
1400 600 m 1,52,-1
 1400 800 l 1,53,-1
 1601 800 l 1,54,-1
 1601 600 l 1,55,-1
 1400 600 l 1,52,-1
1400 800 m 1,56,-1
 1400 1001 l 1,57,-1
 1601 1001 l 1,58,-1
 1601 800 l 1,59,-1
 1400 800 l 1,56,-1
1400 1001 m 1,60,-1
 1400 1202 l 1,61,-1
 1601 1202 l 1,62,-1
 1601 1001 l 1,63,-1
 1400 1001 l 1,60,-1
1400 1202 m 1,64,-1
 1400 1398 l 1,65,-1
 1601 1398 l 1,66,-1
 1601 1202 l 1,67,-1
 1400 1202 l 1,64,-1
1200 1398 m 1,68,-1
 1200 1599 l 1,69,-1
 1400 1599 l 1,70,-1
 1400 1398 l 1,71,-1
 1200 1398 l 1,68,-1
1400 -198 m 1,72,-1
 1400 -396 l 1,73,-1
 1200 -396 l 1,74,-1
 1200 -198 l 1,75,-1
 1400 -198 l 1,72,-1
1200 -198 m 1,76,-1
 1200 -2 l 1,77,-1
 1400 -2 l 1,78,-1
 1400 -198 l 1,79,-1
 1200 -198 l 1,76,-1
1200 800 m 1,80,-1
 1200 1001 l 1,81,-1
 1400 1001 l 1,82,-1
 1400 800 l 1,83,-1
 1200 800 l 1,80,-1
1200 1001 m 1,84,-1
 1200 1202 l 1,85,-1
 1400 1202 l 1,86,-1
 1400 1001 l 1,87,-1
 1200 1001 l 1,84,-1
1200 1202 m 1,88,-1
 1200 1398 l 1,89,-1
 1400 1398 l 1,90,-1
 1400 1202 l 1,91,-1
 1200 1202 l 1,88,-1
999 1398 m 1,92,-1
 999 1599 l 1,93,-1
 1200 1599 l 1,94,-1
 1200 1398 l 1,95,-1
 999 1398 l 1,92,-1
1200 -198 m 1,96,-1
 1200 -396 l 1,97,-1
 999 -396 l 1,98,-1
 999 -198 l 1,99,-1
 1200 -198 l 1,96,-1
999 -198 m 1,100,-1
 999 -2 l 1,101,-1
 1200 -2 l 1,102,-1
 1200 -198 l 1,103,-1
 999 -198 l 1,100,-1
999 199 m 1,104,-1
 999 399 l 1,105,-1
 1200 399 l 1,106,-1
 1200 199 l 1,107,-1
 999 199 l 1,104,-1
999 399 m 1,108,-1
 999 600 l 1,109,-1
 1200 600 l 1,110,-1
 1200 399 l 1,111,-1
 999 399 l 1,108,-1
999 800 m 1,112,-1
 999 1001 l 1,113,-1
 1200 1001 l 1,114,-1
 1200 800 l 1,115,-1
 999 800 l 1,112,-1
999 1001 m 1,116,-1
 999 1202 l 1,117,-1
 1200 1202 l 1,118,-1
 1200 1001 l 1,119,-1
 999 1001 l 1,116,-1
798 1398 m 1,120,-1
 798 1599 l 1,121,-1
 999 1599 l 1,122,-1
 999 1398 l 1,123,-1
 798 1398 l 1,120,-1
999 -198 m 1,124,-1
 999 -396 l 1,125,-1
 798 -396 l 1,126,-1
 798 -198 l 1,127,-1
 999 -198 l 1,124,-1
798 -198 m 1,128,-1
 798 -2 l 1,129,-1
 999 -2 l 1,130,-1
 999 -198 l 1,131,-1
 798 -198 l 1,128,-1
798 199 m 1,132,-1
 798 399 l 1,133,-1
 999 399 l 1,134,-1
 999 199 l 1,135,-1
 798 199 l 1,132,-1
798 399 m 1,136,-1
 798 600 l 1,137,-1
 999 600 l 1,138,-1
 999 399 l 1,139,-1
 798 399 l 1,136,-1
798 800 m 1,140,-1
 798 1001 l 1,141,-1
 999 1001 l 1,142,-1
 999 800 l 1,143,-1
 798 800 l 1,140,-1
798 1001 m 1,144,-1
 798 1202 l 1,145,-1
 999 1202 l 1,146,-1
 999 1001 l 1,147,-1
 798 1001 l 1,144,-1
602 1398 m 1,148,-1
 602 1599 l 1,149,-1
 798 1599 l 1,150,-1
 798 1398 l 1,151,-1
 602 1398 l 1,148,-1
798 -198 m 1,152,-1
 798 -396 l 1,153,-1
 602 -396 l 1,154,-1
 602 -198 l 1,155,-1
 798 -198 l 1,152,-1
602 -198 m 1,156,-1
 602 -2 l 1,157,-1
 798 -2 l 1,158,-1
 798 -198 l 1,159,-1
 602 -198 l 1,156,-1
602 199 m 1,160,-1
 602 399 l 1,161,-1
 798 399 l 1,162,-1
 798 199 l 1,163,-1
 602 199 l 1,160,-1
602 399 m 1,164,-1
 602 600 l 1,165,-1
 798 600 l 1,166,-1
 798 399 l 1,167,-1
 602 399 l 1,164,-1
602 800 m 1,168,-1
 602 1001 l 1,169,-1
 798 1001 l 1,170,-1
 798 800 l 1,171,-1
 602 800 l 1,168,-1
401 1398 m 1,172,-1
 401 1599 l 1,173,-1
 602 1599 l 1,174,-1
 602 1398 l 1,175,-1
 401 1398 l 1,172,-1
602 -198 m 1,176,-1
 602 -396 l 1,177,-1
 401 -396 l 1,178,-1
 401 -198 l 1,179,-1
 602 -198 l 1,176,-1
401 -198 m 1,180,-1
 401 -2 l 1,181,-1
 602 -2 l 1,182,-1
 602 -198 l 1,183,-1
 401 -198 l 1,180,-1
401 1202 m 1,184,-1
 401 1398 l 1,185,-1
 602 1398 l 1,186,-1
 602 1202 l 1,187,-1
 401 1202 l 1,184,-1
201 -198 m 1,188,-1
 201 -2 l 1,189,-1
 401 -2 l 1,190,-1
 401 -198 l 1,191,-1
 201 -198 l 1,188,-1
201 -2 m 1,192,-1
 201 199 l 1,193,-1
 401 199 l 1,194,-1
 401 -2 l 1,195,-1
 201 -2 l 1,192,-1
201 1001 m 1,196,-1
 201 1202 l 1,197,-1
 401 1202 l 1,198,-1
 401 1001 l 1,199,-1
 201 1001 l 1,196,-1
201 1202 m 1,200,-1
 201 1398 l 1,201,-1
 401 1398 l 1,202,-1
 401 1202 l 1,203,-1
 201 1202 l 1,200,-1
0 -2 m 1,204,-1
 0 199 l 1,205,-1
 201 199 l 1,206,-1
 201 -2 l 1,207,-1
 0 -2 l 1,204,-1
0 199 m 1,208,-1
 0 399 l 1,209,-1
 201 399 l 1,210,-1
 201 199 l 1,211,-1
 0 199 l 1,208,-1
0 399 m 1,212,-1
 0 600 l 1,213,-1
 201 600 l 1,214,-1
 201 399 l 1,215,-1
 0 399 l 1,212,-1
0 600 m 1,216,-1
 0 800 l 1,217,-1
 201 800 l 1,218,-1
 201 600 l 1,219,-1
 0 600 l 1,216,-1
0 800 m 1,220,-1
 0 1001 l 1,221,-1
 201 1001 l 1,222,-1
 201 800 l 1,223,-1
 0 800 l 1,220,-1
0 1001 m 1,224,-1
 0 1202 l 1,225,-1
 201 1202 l 1,226,-1
 201 1001 l 1,227,-1
 0 1001 l 1,224,-1
EndSplineSet
Validated: 5
EndChar

StartChar: seven
Encoding: 55 55 26
Width: 1801
Flags: W
LayerCount: 2
Fore
SplineSet
1801 800 m 1,0,-1
 1801 1001 l 1,1,-1
 1998 1001 l 1,2,-1
 1998 800 l 1,3,-1
 1801 800 l 1,0,-1
1801 1001 m 1,4,-1
 1801 1202 l 1,5,-1
 1998 1202 l 1,6,-1
 1998 1001 l 1,7,-1
 1801 1001 l 1,4,-1
1801 1202 m 1,8,-1
 1801 1398 l 1,9,-1
 1998 1398 l 1,10,-1
 1998 1202 l 1,11,-1
 1801 1202 l 1,8,-1
1601 1398 m 1,12,-1
 1601 1599 l 1,13,-1
 1801 1599 l 1,14,-1
 1801 1398 l 1,15,-1
 1601 1398 l 1,12,-1
1601 399 m 1,16,-1
 1601 600 l 1,17,-1
 1801 600 l 1,18,-1
 1801 399 l 1,19,-1
 1601 399 l 1,16,-1
1601 600 m 1,20,-1
 1601 800 l 1,21,-1
 1801 800 l 1,22,-1
 1801 600 l 1,23,-1
 1601 600 l 1,20,-1
1601 800 m 1,24,-1
 1601 1001 l 1,25,-1
 1801 1001 l 1,26,-1
 1801 800 l 1,27,-1
 1601 800 l 1,24,-1
1601 1001 m 1,28,-1
 1601 1202 l 1,29,-1
 1801 1202 l 1,30,-1
 1801 1001 l 1,31,-1
 1601 1001 l 1,28,-1
1601 1202 m 1,32,-1
 1601 1398 l 1,33,-1
 1801 1398 l 1,34,-1
 1801 1202 l 1,35,-1
 1601 1202 l 1,32,-1
1400 1398 m 1,36,-1
 1400 1599 l 1,37,-1
 1601 1599 l 1,38,-1
 1601 1398 l 1,39,-1
 1400 1398 l 1,36,-1
1400 -2 m 1,40,-1
 1400 199 l 1,41,-1
 1601 199 l 1,42,-1
 1601 -2 l 1,43,-1
 1400 -2 l 1,40,-1
1400 199 m 1,44,-1
 1400 399 l 1,45,-1
 1601 399 l 1,46,-1
 1601 199 l 1,47,-1
 1400 199 l 1,44,-1
1400 399 m 1,48,-1
 1400 600 l 1,49,-1
 1601 600 l 1,50,-1
 1601 399 l 1,51,-1
 1400 399 l 1,48,-1
1400 600 m 1,52,-1
 1400 800 l 1,53,-1
 1601 800 l 1,54,-1
 1601 600 l 1,55,-1
 1400 600 l 1,52,-1
1400 800 m 1,56,-1
 1400 1001 l 1,57,-1
 1601 1001 l 1,58,-1
 1601 800 l 1,59,-1
 1400 800 l 1,56,-1
1400 1001 m 1,60,-1
 1400 1202 l 1,61,-1
 1601 1202 l 1,62,-1
 1601 1001 l 1,63,-1
 1400 1001 l 1,60,-1
1200 1398 m 1,64,-1
 1200 1599 l 1,65,-1
 1400 1599 l 1,66,-1
 1400 1398 l 1,67,-1
 1200 1398 l 1,64,-1
1400 -198 m 1,68,-1
 1400 -396 l 1,69,-1
 1200 -396 l 1,70,-1
 1200 -198 l 1,71,-1
 1400 -198 l 1,68,-1
1200 -198 m 1,72,-1
 1200 -2 l 1,73,-1
 1400 -2 l 1,74,-1
 1400 -198 l 1,75,-1
 1200 -198 l 1,72,-1
1200 -2 m 1,76,-1
 1200 199 l 1,77,-1
 1400 199 l 1,78,-1
 1400 -2 l 1,79,-1
 1200 -2 l 1,76,-1
1200 199 m 1,80,-1
 1200 399 l 1,81,-1
 1400 399 l 1,82,-1
 1400 199 l 1,83,-1
 1200 199 l 1,80,-1
1200 399 m 1,84,-1
 1200 600 l 1,85,-1
 1400 600 l 1,86,-1
 1400 399 l 1,87,-1
 1200 399 l 1,84,-1
1200 600 m 1,88,-1
 1200 800 l 1,89,-1
 1400 800 l 1,90,-1
 1400 600 l 1,91,-1
 1200 600 l 1,88,-1
999 1398 m 1,92,-1
 999 1599 l 1,93,-1
 1200 1599 l 1,94,-1
 1200 1398 l 1,95,-1
 999 1398 l 1,92,-1
1200 -198 m 1,96,-1
 1200 -396 l 1,97,-1
 999 -396 l 1,98,-1
 999 -198 l 1,99,-1
 1200 -198 l 1,96,-1
999 -198 m 1,100,-1
 999 -2 l 1,101,-1
 1200 -2 l 1,102,-1
 1200 -198 l 1,103,-1
 999 -198 l 1,100,-1
999 -2 m 1,104,-1
 999 199 l 1,105,-1
 1200 199 l 1,106,-1
 1200 -2 l 1,107,-1
 999 -2 l 1,104,-1
999 199 m 1,108,-1
 999 399 l 1,109,-1
 1200 399 l 1,110,-1
 1200 199 l 1,111,-1
 999 199 l 1,108,-1
798 1398 m 1,112,-1
 798 1599 l 1,113,-1
 999 1599 l 1,114,-1
 999 1398 l 1,115,-1
 798 1398 l 1,112,-1
999 -198 m 1,116,-1
 999 -396 l 1,117,-1
 798 -396 l 1,118,-1
 798 -198 l 1,119,-1
 999 -198 l 1,116,-1
798 -198 m 1,120,-1
 798 -2 l 1,121,-1
 999 -2 l 1,122,-1
 999 -198 l 1,123,-1
 798 -198 l 1,120,-1
798 800 m 1,124,-1
 798 1001 l 1,125,-1
 999 1001 l 1,126,-1
 999 800 l 1,127,-1
 798 800 l 1,124,-1
798 1001 m 1,128,-1
 798 1202 l 1,129,-1
 999 1202 l 1,130,-1
 999 1001 l 1,131,-1
 798 1001 l 1,128,-1
602 1398 m 1,132,-1
 602 1599 l 1,133,-1
 798 1599 l 1,134,-1
 798 1398 l 1,135,-1
 602 1398 l 1,132,-1
798 -198 m 1,136,-1
 798 -396 l 1,137,-1
 602 -396 l 1,138,-1
 602 -198 l 1,139,-1
 798 -198 l 1,136,-1
602 -198 m 1,140,-1
 602 -2 l 1,141,-1
 798 -2 l 1,142,-1
 798 -198 l 1,143,-1
 602 -198 l 1,140,-1
602 399 m 1,144,-1
 602 600 l 1,145,-1
 798 600 l 1,146,-1
 798 399 l 1,147,-1
 602 399 l 1,144,-1
602 600 m 1,148,-1
 602 800 l 1,149,-1
 798 800 l 1,150,-1
 798 600 l 1,151,-1
 602 600 l 1,148,-1
602 800 m 1,152,-1
 602 1001 l 1,153,-1
 798 1001 l 1,154,-1
 798 800 l 1,155,-1
 602 800 l 1,152,-1
602 1001 m 1,156,-1
 602 1202 l 1,157,-1
 798 1202 l 1,158,-1
 798 1001 l 1,159,-1
 602 1001 l 1,156,-1
401 1398 m 1,160,-1
 401 1599 l 1,161,-1
 602 1599 l 1,162,-1
 602 1398 l 1,163,-1
 401 1398 l 1,160,-1
401 -198 m 1,164,-1
 401 -2 l 1,165,-1
 602 -2 l 1,166,-1
 602 -198 l 1,167,-1
 401 -198 l 1,164,-1
401 -2 m 1,168,-1
 401 199 l 1,169,-1
 602 199 l 1,170,-1
 602 -2 l 1,171,-1
 401 -2 l 1,168,-1
401 199 m 1,172,-1
 401 399 l 1,173,-1
 602 399 l 1,174,-1
 602 199 l 1,175,-1
 401 199 l 1,172,-1
401 399 m 1,176,-1
 401 600 l 1,177,-1
 602 600 l 1,178,-1
 602 399 l 1,179,-1
 401 399 l 1,176,-1
401 800 m 1,180,-1
 401 1001 l 1,181,-1
 602 1001 l 1,182,-1
 602 800 l 1,183,-1
 401 800 l 1,180,-1
401 1001 m 1,184,-1
 401 1202 l 1,185,-1
 602 1202 l 1,186,-1
 602 1001 l 1,187,-1
 401 1001 l 1,184,-1
201 1398 m 1,188,-1
 201 1599 l 1,189,-1
 401 1599 l 1,190,-1
 401 1398 l 1,191,-1
 201 1398 l 1,188,-1
201 800 m 1,192,-1
 201 1001 l 1,193,-1
 401 1001 l 1,194,-1
 401 800 l 1,195,-1
 201 800 l 1,192,-1
201 1001 m 1,196,-1
 201 1202 l 1,197,-1
 401 1202 l 1,198,-1
 401 1001 l 1,199,-1
 201 1001 l 1,196,-1
0 1398 m 1,200,-1
 0 1599 l 1,201,-1
 201 1599 l 1,202,-1
 201 1398 l 1,203,-1
 0 1398 l 1,200,-1
0 1001 m 1,204,-1
 0 1202 l 1,205,-1
 201 1202 l 1,206,-1
 201 1001 l 1,207,-1
 0 1001 l 1,204,-1
0 1202 m 1,208,-1
 0 1398 l 1,209,-1
 201 1398 l 1,210,-1
 201 1202 l 1,211,-1
 0 1202 l 1,208,-1
EndSplineSet
Validated: 5
EndChar

StartChar: eight
Encoding: 56 56 27
Width: 1801
Flags: W
LayerCount: 2
Fore
SplineSet
1801 -198 m 1,0,-1
 1801 -2 l 1,1,-1
 1998 -2 l 1,2,-1
 1998 -198 l 1,3,-1
 1801 -198 l 1,0,-1
1801 -2 m 1,4,-1
 1801 199 l 1,5,-1
 1998 199 l 1,6,-1
 1998 -2 l 1,7,-1
 1801 -2 l 1,4,-1
1801 199 m 1,8,-1
 1801 399 l 1,9,-1
 1998 399 l 1,10,-1
 1998 199 l 1,11,-1
 1801 199 l 1,8,-1
1801 399 m 1,12,-1
 1801 600 l 1,13,-1
 1998 600 l 1,14,-1
 1998 399 l 1,15,-1
 1801 399 l 1,12,-1
1801 600 m 1,16,-1
 1801 800 l 1,17,-1
 1998 800 l 1,18,-1
 1998 600 l 1,19,-1
 1801 600 l 1,16,-1
1801 800 m 1,20,-1
 1801 1001 l 1,21,-1
 1998 1001 l 1,22,-1
 1998 800 l 1,23,-1
 1801 800 l 1,20,-1
1801 1001 m 1,24,-1
 1801 1202 l 1,25,-1
 1998 1202 l 1,26,-1
 1998 1001 l 1,27,-1
 1801 1001 l 1,24,-1
1801 -198 m 1,28,-1
 1801 -396 l 1,29,-1
 1601 -396 l 1,30,-1
 1601 -198 l 1,31,-1
 1801 -198 l 1,28,-1
1601 -198 m 1,32,-1
 1601 -2 l 1,33,-1
 1801 -2 l 1,34,-1
 1801 -198 l 1,35,-1
 1601 -198 l 1,32,-1
1601 -2 m 1,36,-1
 1601 199 l 1,37,-1
 1801 199 l 1,38,-1
 1801 -2 l 1,39,-1
 1601 -2 l 1,36,-1
1601 199 m 1,40,-1
 1601 399 l 1,41,-1
 1801 399 l 1,42,-1
 1801 199 l 1,43,-1
 1601 199 l 1,40,-1
1601 399 m 1,44,-1
 1601 600 l 1,45,-1
 1801 600 l 1,46,-1
 1801 399 l 1,47,-1
 1601 399 l 1,44,-1
1601 600 m 1,48,-1
 1601 800 l 1,49,-1
 1801 800 l 1,50,-1
 1801 600 l 1,51,-1
 1601 600 l 1,48,-1
1601 800 m 1,52,-1
 1601 1001 l 1,53,-1
 1801 1001 l 1,54,-1
 1801 800 l 1,55,-1
 1601 800 l 1,52,-1
1601 1001 m 1,56,-1
 1601 1202 l 1,57,-1
 1801 1202 l 1,58,-1
 1801 1001 l 1,59,-1
 1601 1001 l 1,56,-1
1601 1202 m 1,60,-1
 1601 1398 l 1,61,-1
 1801 1398 l 1,62,-1
 1801 1202 l 1,63,-1
 1601 1202 l 1,60,-1
1400 1398 m 1,64,-1
 1400 1599 l 1,65,-1
 1601 1599 l 1,66,-1
 1601 1398 l 1,67,-1
 1400 1398 l 1,64,-1
1601 -198 m 1,68,-1
 1601 -396 l 1,69,-1
 1400 -396 l 1,70,-1
 1400 -198 l 1,71,-1
 1601 -198 l 1,68,-1
1400 -198 m 1,72,-1
 1400 -2 l 1,73,-1
 1601 -2 l 1,74,-1
 1601 -198 l 1,75,-1
 1400 -198 l 1,72,-1
1400 -2 m 1,76,-1
 1400 199 l 1,77,-1
 1601 199 l 1,78,-1
 1601 -2 l 1,79,-1
 1400 -2 l 1,76,-1
1400 600 m 1,80,-1
 1400 800 l 1,81,-1
 1601 800 l 1,82,-1
 1601 600 l 1,83,-1
 1400 600 l 1,80,-1
1400 1202 m 1,84,-1
 1400 1398 l 1,85,-1
 1601 1398 l 1,86,-1
 1601 1202 l 1,87,-1
 1400 1202 l 1,84,-1
1200 1398 m 1,88,-1
 1200 1599 l 1,89,-1
 1400 1599 l 1,90,-1
 1400 1398 l 1,91,-1
 1200 1398 l 1,88,-1
1400 -198 m 1,92,-1
 1400 -396 l 1,93,-1
 1200 -396 l 1,94,-1
 1200 -198 l 1,95,-1
 1400 -198 l 1,92,-1
1200 -198 m 1,96,-1
 1200 -2 l 1,97,-1
 1400 -2 l 1,98,-1
 1400 -198 l 1,99,-1
 1200 -198 l 1,96,-1
999 1398 m 1,100,-1
 999 1599 l 1,101,-1
 1200 1599 l 1,102,-1
 1200 1398 l 1,103,-1
 999 1398 l 1,100,-1
1200 -198 m 1,104,-1
 1200 -396 l 1,105,-1
 999 -396 l 1,106,-1
 999 -198 l 1,107,-1
 1200 -198 l 1,104,-1
999 -198 m 1,108,-1
 999 -2 l 1,109,-1
 1200 -2 l 1,110,-1
 1200 -198 l 1,111,-1
 999 -198 l 1,108,-1
999 199 m 1,112,-1
 999 399 l 1,113,-1
 1200 399 l 1,114,-1
 1200 199 l 1,115,-1
 999 199 l 1,112,-1
999 800 m 1,116,-1
 999 1001 l 1,117,-1
 1200 1001 l 1,118,-1
 1200 800 l 1,119,-1
 999 800 l 1,116,-1
999 1001 m 1,120,-1
 999 1202 l 1,121,-1
 1200 1202 l 1,122,-1
 1200 1001 l 1,123,-1
 999 1001 l 1,120,-1
798 1398 m 1,124,-1
 798 1599 l 1,125,-1
 999 1599 l 1,126,-1
 999 1398 l 1,127,-1
 798 1398 l 1,124,-1
999 -198 m 1,128,-1
 999 -396 l 1,129,-1
 798 -396 l 1,130,-1
 798 -198 l 1,131,-1
 999 -198 l 1,128,-1
798 -198 m 1,132,-1
 798 -2 l 1,133,-1
 999 -2 l 1,134,-1
 999 -198 l 1,135,-1
 798 -198 l 1,132,-1
798 199 m 1,136,-1
 798 399 l 1,137,-1
 999 399 l 1,138,-1
 999 199 l 1,139,-1
 798 199 l 1,136,-1
798 399 m 1,140,-1
 798 600 l 1,141,-1
 999 600 l 1,142,-1
 999 399 l 1,143,-1
 798 399 l 1,140,-1
798 800 m 1,144,-1
 798 1001 l 1,145,-1
 999 1001 l 1,146,-1
 999 800 l 1,147,-1
 798 800 l 1,144,-1
798 1001 m 1,148,-1
 798 1202 l 1,149,-1
 999 1202 l 1,150,-1
 999 1001 l 1,151,-1
 798 1001 l 1,148,-1
602 1398 m 1,152,-1
 602 1599 l 1,153,-1
 798 1599 l 1,154,-1
 798 1398 l 1,155,-1
 602 1398 l 1,152,-1
798 -198 m 1,156,-1
 798 -396 l 1,157,-1
 602 -396 l 1,158,-1
 602 -198 l 1,159,-1
 798 -198 l 1,156,-1
602 -198 m 1,160,-1
 602 -2 l 1,161,-1
 798 -2 l 1,162,-1
 798 -198 l 1,163,-1
 602 -198 l 1,160,-1
602 199 m 1,164,-1
 602 399 l 1,165,-1
 798 399 l 1,166,-1
 798 199 l 1,167,-1
 602 199 l 1,164,-1
602 399 m 1,168,-1
 602 600 l 1,169,-1
 798 600 l 1,170,-1
 798 399 l 1,171,-1
 602 399 l 1,168,-1
602 1001 m 1,172,-1
 602 1202 l 1,173,-1
 798 1202 l 1,174,-1
 798 1001 l 1,175,-1
 602 1001 l 1,172,-1
401 1398 m 1,176,-1
 401 1599 l 1,177,-1
 602 1599 l 1,178,-1
 602 1398 l 1,179,-1
 401 1398 l 1,176,-1
602 -198 m 1,180,-1
 602 -396 l 1,181,-1
 401 -396 l 1,182,-1
 401 -198 l 1,183,-1
 602 -198 l 1,180,-1
401 -198 m 1,184,-1
 401 -2 l 1,185,-1
 602 -2 l 1,186,-1
 602 -198 l 1,187,-1
 401 -198 l 1,184,-1
201 1398 m 1,188,-1
 201 1599 l 1,189,-1
 401 1599 l 1,190,-1
 401 1398 l 1,191,-1
 201 1398 l 1,188,-1
201 -198 m 1,192,-1
 201 -2 l 1,193,-1
 401 -2 l 1,194,-1
 401 -198 l 1,195,-1
 201 -198 l 1,192,-1
201 -2 m 1,196,-1
 201 199 l 1,197,-1
 401 199 l 1,198,-1
 401 -2 l 1,199,-1
 201 -2 l 1,196,-1
201 600 m 1,200,-1
 201 800 l 1,201,-1
 401 800 l 1,202,-1
 401 600 l 1,203,-1
 201 600 l 1,200,-1
201 1202 m 1,204,-1
 201 1398 l 1,205,-1
 401 1398 l 1,206,-1
 401 1202 l 1,207,-1
 201 1202 l 1,204,-1
0 -2 m 1,208,-1
 0 199 l 1,209,-1
 201 199 l 1,210,-1
 201 -2 l 1,211,-1
 0 -2 l 1,208,-1
0 199 m 1,212,-1
 0 399 l 1,213,-1
 201 399 l 1,214,-1
 201 199 l 1,215,-1
 0 199 l 1,212,-1
0 399 m 1,216,-1
 0 600 l 1,217,-1
 201 600 l 1,218,-1
 201 399 l 1,219,-1
 0 399 l 1,216,-1
0 600 m 1,220,-1
 0 800 l 1,221,-1
 201 800 l 1,222,-1
 201 600 l 1,223,-1
 0 600 l 1,220,-1
0 800 m 1,224,-1
 0 1001 l 1,225,-1
 201 1001 l 1,226,-1
 201 800 l 1,227,-1
 0 800 l 1,224,-1
0 1001 m 1,228,-1
 0 1202 l 1,229,-1
 201 1202 l 1,230,-1
 201 1001 l 1,231,-1
 0 1001 l 1,228,-1
0 1202 m 1,232,-1
 0 1398 l 1,233,-1
 201 1398 l 1,234,-1
 201 1202 l 1,235,-1
 0 1202 l 1,232,-1
EndSplineSet
Validated: 5
EndChar

StartChar: nine
Encoding: 57 57 28
Width: 1801
Flags: W
LayerCount: 2
Fore
SplineSet
1801 -2 m 1,0,-1
 1801 199 l 1,1,-1
 1998 199 l 1,2,-1
 1998 -2 l 1,3,-1
 1801 -2 l 1,0,-1
1801 199 m 1,4,-1
 1801 399 l 1,5,-1
 1998 399 l 1,6,-1
 1998 199 l 1,7,-1
 1801 199 l 1,4,-1
1801 399 m 1,8,-1
 1801 600 l 1,9,-1
 1998 600 l 1,10,-1
 1998 399 l 1,11,-1
 1801 399 l 1,8,-1
1801 600 m 1,12,-1
 1801 800 l 1,13,-1
 1998 800 l 1,14,-1
 1998 600 l 1,15,-1
 1801 600 l 1,12,-1
1801 800 m 1,16,-1
 1801 1001 l 1,17,-1
 1998 1001 l 1,18,-1
 1998 800 l 1,19,-1
 1801 800 l 1,16,-1
1801 1001 m 1,20,-1
 1801 1202 l 1,21,-1
 1998 1202 l 1,22,-1
 1998 1001 l 1,23,-1
 1801 1001 l 1,20,-1
1601 -198 m 1,24,-1
 1601 -2 l 1,25,-1
 1801 -2 l 1,26,-1
 1801 -198 l 1,27,-1
 1601 -198 l 1,24,-1
1601 -2 m 1,28,-1
 1601 199 l 1,29,-1
 1801 199 l 1,30,-1
 1801 -2 l 1,31,-1
 1601 -2 l 1,28,-1
1601 199 m 1,32,-1
 1601 399 l 1,33,-1
 1801 399 l 1,34,-1
 1801 199 l 1,35,-1
 1601 199 l 1,32,-1
1601 399 m 1,36,-1
 1601 600 l 1,37,-1
 1801 600 l 1,38,-1
 1801 399 l 1,39,-1
 1601 399 l 1,36,-1
1601 600 m 1,40,-1
 1601 800 l 1,41,-1
 1801 800 l 1,42,-1
 1801 600 l 1,43,-1
 1601 600 l 1,40,-1
1601 800 m 1,44,-1
 1601 1001 l 1,45,-1
 1801 1001 l 1,46,-1
 1801 800 l 1,47,-1
 1601 800 l 1,44,-1
1601 1001 m 1,48,-1
 1601 1202 l 1,49,-1
 1801 1202 l 1,50,-1
 1801 1001 l 1,51,-1
 1601 1001 l 1,48,-1
1601 1202 m 1,52,-1
 1601 1398 l 1,53,-1
 1801 1398 l 1,54,-1
 1801 1202 l 1,55,-1
 1601 1202 l 1,52,-1
1400 1398 m 1,56,-1
 1400 1599 l 1,57,-1
 1601 1599 l 1,58,-1
 1601 1398 l 1,59,-1
 1400 1398 l 1,56,-1
1601 -198 m 1,60,-1
 1601 -396 l 1,61,-1
 1400 -396 l 1,62,-1
 1400 -198 l 1,63,-1
 1601 -198 l 1,60,-1
1400 -198 m 1,64,-1
 1400 -2 l 1,65,-1
 1601 -2 l 1,66,-1
 1601 -198 l 1,67,-1
 1400 -198 l 1,64,-1
1400 -2 m 1,68,-1
 1400 199 l 1,69,-1
 1601 199 l 1,70,-1
 1601 -2 l 1,71,-1
 1400 -2 l 1,68,-1
1400 199 m 1,72,-1
 1400 399 l 1,73,-1
 1601 399 l 1,74,-1
 1601 199 l 1,75,-1
 1400 199 l 1,72,-1
1400 1202 m 1,76,-1
 1400 1398 l 1,77,-1
 1601 1398 l 1,78,-1
 1601 1202 l 1,79,-1
 1400 1202 l 1,76,-1
1200 1398 m 1,80,-1
 1200 1599 l 1,81,-1
 1400 1599 l 1,82,-1
 1400 1398 l 1,83,-1
 1200 1398 l 1,80,-1
1400 -198 m 1,84,-1
 1400 -396 l 1,85,-1
 1200 -396 l 1,86,-1
 1200 -198 l 1,87,-1
 1400 -198 l 1,84,-1
1200 -198 m 1,88,-1
 1200 -2 l 1,89,-1
 1400 -2 l 1,90,-1
 1400 -198 l 1,91,-1
 1200 -198 l 1,88,-1
1200 -2 m 1,92,-1
 1200 199 l 1,93,-1
 1400 199 l 1,94,-1
 1400 -2 l 1,95,-1
 1200 -2 l 1,92,-1
999 1398 m 1,96,-1
 999 1599 l 1,97,-1
 1200 1599 l 1,98,-1
 1200 1398 l 1,99,-1
 999 1398 l 1,96,-1
1200 -198 m 1,100,-1
 1200 -396 l 1,101,-1
 999 -396 l 1,102,-1
 999 -198 l 1,103,-1
 1200 -198 l 1,100,-1
999 -198 m 1,104,-1
 999 -2 l 1,105,-1
 1200 -2 l 1,106,-1
 1200 -198 l 1,107,-1
 999 -198 l 1,104,-1
999 399 m 1,108,-1
 999 600 l 1,109,-1
 1200 600 l 1,110,-1
 1200 399 l 1,111,-1
 999 399 l 1,108,-1
999 800 m 1,112,-1
 999 1001 l 1,113,-1
 1200 1001 l 1,114,-1
 1200 800 l 1,115,-1
 999 800 l 1,112,-1
999 1001 m 1,116,-1
 999 1202 l 1,117,-1
 1200 1202 l 1,118,-1
 1200 1001 l 1,119,-1
 999 1001 l 1,116,-1
798 1398 m 1,120,-1
 798 1599 l 1,121,-1
 999 1599 l 1,122,-1
 999 1398 l 1,123,-1
 798 1398 l 1,120,-1
999 -198 m 1,124,-1
 999 -396 l 1,125,-1
 798 -396 l 1,126,-1
 798 -198 l 1,127,-1
 999 -198 l 1,124,-1
798 -198 m 1,128,-1
 798 -2 l 1,129,-1
 999 -2 l 1,130,-1
 999 -198 l 1,131,-1
 798 -198 l 1,128,-1
798 199 m 1,132,-1
 798 399 l 1,133,-1
 999 399 l 1,134,-1
 999 199 l 1,135,-1
 798 199 l 1,132,-1
798 399 m 1,136,-1
 798 600 l 1,137,-1
 999 600 l 1,138,-1
 999 399 l 1,139,-1
 798 399 l 1,136,-1
798 800 m 1,140,-1
 798 1001 l 1,141,-1
 999 1001 l 1,142,-1
 999 800 l 1,143,-1
 798 800 l 1,140,-1
798 1001 m 1,144,-1
 798 1202 l 1,145,-1
 999 1202 l 1,146,-1
 999 1001 l 1,147,-1
 798 1001 l 1,144,-1
602 1398 m 1,148,-1
 602 1599 l 1,149,-1
 798 1599 l 1,150,-1
 798 1398 l 1,151,-1
 602 1398 l 1,148,-1
798 -198 m 1,152,-1
 798 -396 l 1,153,-1
 602 -396 l 1,154,-1
 602 -198 l 1,155,-1
 798 -198 l 1,152,-1
602 -198 m 1,156,-1
 602 -2 l 1,157,-1
 798 -2 l 1,158,-1
 798 -198 l 1,159,-1
 602 -198 l 1,156,-1
602 199 m 1,160,-1
 602 399 l 1,161,-1
 798 399 l 1,162,-1
 798 199 l 1,163,-1
 602 199 l 1,160,-1
602 399 m 1,164,-1
 602 600 l 1,165,-1
 798 600 l 1,166,-1
 798 399 l 1,167,-1
 602 399 l 1,164,-1
602 800 m 1,168,-1
 602 1001 l 1,169,-1
 798 1001 l 1,170,-1
 798 800 l 1,171,-1
 602 800 l 1,168,-1
602 1001 m 1,172,-1
 602 1202 l 1,173,-1
 798 1202 l 1,174,-1
 798 1001 l 1,175,-1
 602 1001 l 1,172,-1
401 1398 m 1,176,-1
 401 1599 l 1,177,-1
 602 1599 l 1,178,-1
 602 1398 l 1,179,-1
 401 1398 l 1,176,-1
401 -198 m 1,180,-1
 401 -2 l 1,181,-1
 602 -2 l 1,182,-1
 602 -198 l 1,183,-1
 401 -198 l 1,180,-1
401 -2 m 1,184,-1
 401 199 l 1,185,-1
 602 199 l 1,186,-1
 602 -2 l 1,187,-1
 401 -2 l 1,184,-1
401 199 m 1,188,-1
 401 399 l 1,189,-1
 602 399 l 1,190,-1
 602 199 l 1,191,-1
 401 199 l 1,188,-1
401 399 m 1,192,-1
 401 600 l 1,193,-1
 602 600 l 1,194,-1
 602 399 l 1,195,-1
 401 399 l 1,192,-1
201 1398 m 1,196,-1
 201 1599 l 1,197,-1
 401 1599 l 1,198,-1
 401 1398 l 1,199,-1
 201 1398 l 1,196,-1
201 399 m 1,200,-1
 201 600 l 1,201,-1
 401 600 l 1,202,-1
 401 399 l 1,203,-1
 201 399 l 1,200,-1
201 600 m 1,204,-1
 201 800 l 1,205,-1
 401 800 l 1,206,-1
 401 600 l 1,207,-1
 201 600 l 1,204,-1
201 1202 m 1,208,-1
 201 1398 l 1,209,-1
 401 1398 l 1,210,-1
 401 1202 l 1,211,-1
 201 1202 l 1,208,-1
0 600 m 1,212,-1
 0 800 l 1,213,-1
 201 800 l 1,214,-1
 201 600 l 1,215,-1
 0 600 l 1,212,-1
0 800 m 1,216,-1
 0 1001 l 1,217,-1
 201 1001 l 1,218,-1
 201 800 l 1,219,-1
 0 800 l 1,216,-1
0 1001 m 1,220,-1
 0 1202 l 1,221,-1
 201 1202 l 1,222,-1
 201 1001 l 1,223,-1
 0 1001 l 1,220,-1
0 1202 m 1,224,-1
 0 1398 l 1,225,-1
 201 1398 l 1,226,-1
 201 1202 l 1,227,-1
 0 1202 l 1,224,-1
EndSplineSet
Validated: 5
EndChar

StartChar: colon
Encoding: 58 58 29
Width: 1180
Flags: W
LayerCount: 2
Fore
SplineSet
1180 -198 m 1,0,-1
 1180 -396 l 1,1,-1
 979 -396 l 1,2,-1
 979 -198 l 1,3,-1
 1180 -198 l 1,0,-1
979 -198 m 1,4,-1
 979 -2 l 1,5,-1
 1180 -2 l 1,6,-1
 1180 -198 l 1,7,-1
 979 -198 l 1,4,-1
979 -2 m 1,8,-1
 979 199 l 1,9,-1
 1180 199 l 1,10,-1
 1180 -2 l 1,11,-1
 979 -2 l 1,8,-1
979 199 m 1,12,-1
 979 399 l 1,13,-1
 1180 399 l 1,14,-1
 1180 199 l 1,15,-1
 979 199 l 1,12,-1
979 -198 m 1,16,-1
 979 -396 l 1,17,-1
 778 -396 l 1,18,-1
 778 -198 l 1,19,-1
 979 -198 l 1,16,-1
778 -198 m 1,20,-1
 778 -2 l 1,21,-1
 979 -2 l 1,22,-1
 979 -198 l 1,23,-1
 778 -198 l 1,20,-1
778 -2 m 1,24,-1
 778 199 l 1,25,-1
 979 199 l 1,26,-1
 979 -2 l 1,27,-1
 778 -2 l 1,24,-1
778 199 m 1,28,-1
 778 399 l 1,29,-1
 979 399 l 1,30,-1
 979 199 l 1,31,-1
 778 199 l 1,28,-1
778 399 m 1,32,-1
 778 600 l 1,33,-1
 979 600 l 1,34,-1
 979 399 l 1,35,-1
 778 399 l 1,32,-1
778 -198 m 1,36,-1
 778 -396 l 1,37,-1
 582 -396 l 1,38,-1
 582 -198 l 1,39,-1
 778 -198 l 1,36,-1
582 -198 m 1,40,-1
 582 -2 l 1,41,-1
 778 -2 l 1,42,-1
 778 -198 l 1,43,-1
 582 -198 l 1,40,-1
582 399 m 1,44,-1
 582 600 l 1,45,-1
 778 600 l 1,46,-1
 778 399 l 1,47,-1
 582 399 l 1,44,-1
582 -198 m 1,48,-1
 582 -396 l 1,49,-1
 381 -396 l 1,50,-1
 381 -198 l 1,51,-1
 582 -198 l 1,48,-1
381 -198 m 1,52,-1
 381 -2 l 1,53,-1
 582 -2 l 1,54,-1
 582 -198 l 1,55,-1
 381 -198 l 1,52,-1
381 399 m 1,56,-1
 381 600 l 1,57,-1
 582 600 l 1,58,-1
 582 399 l 1,59,-1
 381 399 l 1,56,-1
181 -198 m 1,60,-1
 181 -2 l 1,61,-1
 381 -2 l 1,62,-1
 381 -198 l 1,63,-1
 181 -198 l 1,60,-1
181 -2 m 1,64,-1
 181 199 l 1,65,-1
 381 199 l 1,66,-1
 381 -2 l 1,67,-1
 181 -2 l 1,64,-1
181 199 m 1,68,-1
 181 399 l 1,69,-1
 381 399 l 1,70,-1
 381 199 l 1,71,-1
 181 199 l 1,68,-1
181 399 m 1,72,-1
 181 600 l 1,73,-1
 381 600 l 1,74,-1
 381 399 l 1,75,-1
 181 399 l 1,72,-1
1173 628 m 5,76,-1
 1173 430 l 5,77,-1
 972 430 l 5,78,-1
 972 628 l 5,79,-1
 1173 628 l 5,76,-1
972 628 m 5,80,-1
 972 824 l 5,81,-1
 1173 824 l 5,82,-1
 1173 628 l 5,83,-1
 972 628 l 5,80,-1
972 824 m 5,84,-1
 972 1025 l 5,85,-1
 1173 1025 l 5,86,-1
 1173 824 l 5,87,-1
 972 824 l 5,84,-1
972 1025 m 5,88,-1
 972 1225 l 5,89,-1
 1173 1225 l 5,90,-1
 1173 1025 l 5,91,-1
 972 1025 l 5,88,-1
972 628 m 5,92,-1
 972 430 l 5,93,-1
 771 430 l 5,94,-1
 771 628 l 5,95,-1
 972 628 l 5,92,-1
771 628 m 5,96,-1
 771 824 l 5,97,-1
 972 824 l 5,98,-1
 972 628 l 5,99,-1
 771 628 l 5,96,-1
771 824 m 5,100,-1
 771 1025 l 5,101,-1
 972 1025 l 5,102,-1
 972 824 l 5,103,-1
 771 824 l 5,100,-1
771 1025 m 5,104,-1
 771 1225 l 5,105,-1
 972 1225 l 5,106,-1
 972 1025 l 5,107,-1
 771 1025 l 5,104,-1
771 1225 m 5,108,-1
 771 1426 l 5,109,-1
 972 1426 l 5,110,-1
 972 1225 l 5,111,-1
 771 1225 l 5,108,-1
771 628 m 5,112,-1
 771 430 l 5,113,-1
 575 430 l 5,114,-1
 575 628 l 5,115,-1
 771 628 l 5,112,-1
575 628 m 5,116,-1
 575 824 l 5,117,-1
 771 824 l 5,118,-1
 771 628 l 5,119,-1
 575 628 l 5,116,-1
575 1225 m 5,120,-1
 575 1426 l 5,121,-1
 771 1426 l 5,122,-1
 771 1225 l 5,123,-1
 575 1225 l 5,120,-1
575 628 m 5,124,-1
 575 430 l 5,125,-1
 374 430 l 5,126,-1
 374 628 l 5,127,-1
 575 628 l 5,124,-1
374 628 m 5,128,-1
 374 824 l 5,129,-1
 575 824 l 5,130,-1
 575 628 l 5,131,-1
 374 628 l 5,128,-1
374 1225 m 5,132,-1
 374 1426 l 5,133,-1
 575 1426 l 5,134,-1
 575 1225 l 5,135,-1
 374 1225 l 5,132,-1
174 628 m 5,136,-1
 174 824 l 5,137,-1
 374 824 l 5,138,-1
 374 628 l 5,139,-1
 174 628 l 5,136,-1
174 824 m 5,140,-1
 174 1025 l 5,141,-1
 374 1025 l 5,142,-1
 374 824 l 5,143,-1
 174 824 l 5,140,-1
174 1025 m 5,144,-1
 174 1225 l 5,145,-1
 374 1225 l 5,146,-1
 374 1025 l 5,147,-1
 174 1025 l 5,144,-1
174 1225 m 5,148,-1
 174 1426 l 5,149,-1
 374 1426 l 5,150,-1
 374 1225 l 5,151,-1
 174 1225 l 5,148,-1
EndSplineSet
EndChar

StartChar: less
Encoding: 60 60 31
Width: 1791
Flags: W
LayerCount: 2
Fore
SplineSet
1109 970 m 5,0,-1
 1109 290 l 5,1,-1
 1584 290 l 5,2,-1
 1584 970 l 5,3,-1
 1109 970 l 5,0,-1
1758 505 m 5,4,-1
 1114 505 l 5,5,-1
 1114 270 l 5,6,-1
 1758 270 l 5,7,-1
 1758 505 l 5,4,-1
1758 735 m 5,8,-1
 1758 970 l 5,9,-1
 1109 970 l 5,10,-1
 1109 735 l 5,11,-1
 1758 735 l 5,8,-1
1599 750 m 5,12,-1
 859 750 l 5,13,-1
 859 490 l 5,14,-1
 1599 490 l 5,15,-1
 1599 750 l 5,12,-1
1758 505 m 5,16,-1
 1519 505 l 5,17,-1
 1519 -390 l 5,18,-1
 1758 -390 l 5,19,-1
 1758 505 l 5,16,-1
1758 1650 m 5,20,-1
 1524 1650 l 5,21,-1
 1524 735 l 5,22,-1
 1758 735 l 5,23,-1
 1758 1650 l 5,20,-1
874 -175 m 5,24,-1
 874 -395 l 5,25,-1
 1758 -395 l 5,26,-1
 1758 -175 l 5,27,-1
 874 -175 l 5,24,-1
1109 65 m 5,28,-1
 644 65 l 5,29,-1
 644 -170 l 5,30,-1
 1109 -170 l 5,31,-1
 1109 65 l 5,28,-1
874 285 m 5,32,-1
 424 285 l 5,33,-1
 424 60 l 5,34,-1
 874 60 l 5,35,-1
 874 285 l 5,32,-1
654 500 m 5,36,-1
 194 500 l 5,37,-1
 194 270 l 5,38,-1
 654 270 l 5,39,-1
 654 500 l 5,36,-1
424 745 m 5,40,-1
 -33 745 l 5,41,-1
 -33 505 l 5,42,-1
 424 505 l 5,43,-1
 424 745 l 5,40,-1
654 960 m 5,44,-1
 194 960 l 5,45,-1
 194 755 l 5,46,-1
 654 755 l 5,47,-1
 654 960 l 5,44,-1
874 1185 m 5,48,-1
 419 1185 l 5,49,-1
 419 955 l 5,50,-1
 874 955 l 5,51,-1
 874 1185 l 5,48,-1
1114 1425 m 5,52,-1
 639 1425 l 5,53,-1
 639 1185 l 5,54,-1
 1114 1185 l 5,55,-1
 1114 1425 l 5,52,-1
1758 1650 m 5,56,-1
 869 1650 l 5,57,-1
 869 1420 l 5,58,-1
 1758 1420 l 5,59,-1
 1758 1650 l 5,56,-1
EndSplineSet
Validated: 5
EndChar

StartChar: equal
Encoding: 61 61 32
Width: 1801
Flags: W
LayerCount: 2
Fore
SplineSet
1980 13 m 5,0,-1
 1980 -185 l 5,1,-1
 1783 -185 l 5,2,-1
 1783 13 l 5,3,-1
 1980 13 l 5,0,-1
1783 13 m 5,4,-1
 1783 209 l 5,5,-1
 1980 209 l 5,6,-1
 1980 13 l 5,7,-1
 1783 13 l 5,4,-1
1783 209 m 5,8,-1
 1783 410 l 5,9,-1
 1980 410 l 5,10,-1
 1980 209 l 5,11,-1
 1783 209 l 5,8,-1
1783 13 m 5,12,-1
 1783 -185 l 5,13,-1
 1583 -185 l 5,14,-1
 1583 13 l 5,15,-1
 1783 13 l 5,12,-1
1583 13 m 5,16,-1
 1583 209 l 5,17,-1
 1783 209 l 5,18,-1
 1783 13 l 5,19,-1
 1583 13 l 5,16,-1
1583 209 m 5,20,-1
 1583 410 l 5,21,-1
 1783 410 l 5,22,-1
 1783 209 l 5,23,-1
 1583 209 l 5,20,-1
1583 410 m 5,24,-1
 1583 610 l 5,25,-1
 1783 610 l 5,26,-1
 1783 410 l 5,27,-1
 1583 410 l 5,24,-1
1583 13 m 5,28,-1
 1583 -185 l 5,29,-1
 1382 -185 l 5,30,-1
 1382 13 l 5,31,-1
 1583 13 l 5,28,-1
1382 13 m 5,32,-1
 1382 209 l 5,33,-1
 1583 209 l 5,34,-1
 1583 13 l 5,35,-1
 1382 13 l 5,32,-1
1382 410 m 5,36,-1
 1382 610 l 5,37,-1
 1583 610 l 5,38,-1
 1583 410 l 5,39,-1
 1382 410 l 5,36,-1
1382 13 m 5,40,-1
 1382 -185 l 5,41,-1
 1182 -185 l 5,42,-1
 1182 13 l 5,43,-1
 1382 13 l 5,40,-1
1182 13 m 5,44,-1
 1182 209 l 5,45,-1
 1382 209 l 5,46,-1
 1382 13 l 5,47,-1
 1182 13 l 5,44,-1
1182 410 m 5,48,-1
 1182 610 l 5,49,-1
 1382 610 l 5,50,-1
 1382 410 l 5,51,-1
 1182 410 l 5,48,-1
1182 13 m 5,52,-1
 1182 -185 l 5,53,-1
 981 -185 l 5,54,-1
 981 13 l 5,55,-1
 1182 13 l 5,52,-1
981 13 m 5,56,-1
 981 209 l 5,57,-1
 1182 209 l 5,58,-1
 1182 13 l 5,59,-1
 981 13 l 5,56,-1
981 410 m 5,60,-1
 981 610 l 5,61,-1
 1182 610 l 5,62,-1
 1182 410 l 5,63,-1
 981 410 l 5,60,-1
981 13 m 5,64,-1
 981 -185 l 5,65,-1
 780 -185 l 5,66,-1
 780 13 l 5,67,-1
 981 13 l 5,64,-1
780 13 m 5,68,-1
 780 209 l 5,69,-1
 981 209 l 5,70,-1
 981 13 l 5,71,-1
 780 13 l 5,68,-1
780 410 m 5,72,-1
 780 610 l 5,73,-1
 981 610 l 5,74,-1
 981 410 l 5,75,-1
 780 410 l 5,72,-1
780 13 m 5,76,-1
 780 -185 l 5,77,-1
 584 -185 l 5,78,-1
 584 13 l 5,79,-1
 780 13 l 5,76,-1
584 13 m 5,80,-1
 584 209 l 5,81,-1
 780 209 l 5,82,-1
 780 13 l 5,83,-1
 584 13 l 5,80,-1
584 410 m 5,84,-1
 584 610 l 5,85,-1
 780 610 l 5,86,-1
 780 410 l 5,87,-1
 584 410 l 5,84,-1
584 13 m 5,88,-1
 584 -185 l 5,89,-1
 383 -185 l 5,90,-1
 383 13 l 5,91,-1
 584 13 l 5,88,-1
383 13 m 5,92,-1
 383 209 l 5,93,-1
 584 209 l 5,94,-1
 584 13 l 5,95,-1
 383 13 l 5,92,-1
383 410 m 5,96,-1
 383 610 l 5,97,-1
 584 610 l 5,98,-1
 584 410 l 5,99,-1
 383 410 l 5,96,-1
383 13 m 5,100,-1
 383 -185 l 5,101,-1
 183 -185 l 5,102,-1
 183 13 l 5,103,-1
 383 13 l 5,100,-1
183 13 m 5,104,-1
 183 209 l 5,105,-1
 383 209 l 5,106,-1
 383 13 l 5,107,-1
 183 13 l 5,104,-1
183 410 m 5,108,-1
 183 610 l 5,109,-1
 383 610 l 5,110,-1
 383 410 l 5,111,-1
 183 410 l 5,108,-1
-18 13 m 5,112,-1
 -18 209 l 5,113,-1
 183 209 l 5,114,-1
 183 13 l 5,115,-1
 -18 13 l 5,112,-1
-18 209 m 5,116,-1
 -18 410 l 5,117,-1
 183 410 l 5,118,-1
 183 209 l 5,119,-1
 -18 209 l 5,116,-1
-18 410 m 5,120,-1
 -18 610 l 5,121,-1
 183 610 l 5,122,-1
 183 410 l 5,123,-1
 -18 410 l 5,120,-1
1975 948 m 5,124,-1
 1975 750 l 5,125,-1
 1778 750 l 5,126,-1
 1778 948 l 5,127,-1
 1975 948 l 5,124,-1
1778 948 m 5,128,-1
 1778 1144 l 5,129,-1
 1975 1144 l 5,130,-1
 1975 948 l 5,131,-1
 1778 948 l 5,128,-1
1778 1144 m 5,132,-1
 1778 1345 l 5,133,-1
 1975 1345 l 5,134,-1
 1975 1144 l 5,135,-1
 1778 1144 l 5,132,-1
1778 948 m 5,136,-1
 1778 750 l 5,137,-1
 1578 750 l 5,138,-1
 1578 948 l 5,139,-1
 1778 948 l 5,136,-1
1578 948 m 5,140,-1
 1578 1144 l 5,141,-1
 1778 1144 l 5,142,-1
 1778 948 l 5,143,-1
 1578 948 l 5,140,-1
1578 1144 m 5,144,-1
 1578 1345 l 5,145,-1
 1778 1345 l 5,146,-1
 1778 1144 l 5,147,-1
 1578 1144 l 5,144,-1
1578 1345 m 5,148,-1
 1578 1545 l 5,149,-1
 1778 1545 l 5,150,-1
 1778 1345 l 5,151,-1
 1578 1345 l 5,148,-1
1578 948 m 5,152,-1
 1578 750 l 5,153,-1
 1377 750 l 5,154,-1
 1377 948 l 5,155,-1
 1578 948 l 5,152,-1
1377 948 m 5,156,-1
 1377 1144 l 5,157,-1
 1578 1144 l 5,158,-1
 1578 948 l 5,159,-1
 1377 948 l 5,156,-1
1377 1345 m 5,160,-1
 1377 1545 l 5,161,-1
 1578 1545 l 5,162,-1
 1578 1345 l 5,163,-1
 1377 1345 l 5,160,-1
1377 948 m 5,164,-1
 1377 750 l 5,165,-1
 1177 750 l 5,166,-1
 1177 948 l 5,167,-1
 1377 948 l 5,164,-1
1177 948 m 5,168,-1
 1177 1144 l 5,169,-1
 1377 1144 l 5,170,-1
 1377 948 l 5,171,-1
 1177 948 l 5,168,-1
1177 1345 m 5,172,-1
 1177 1545 l 5,173,-1
 1377 1545 l 5,174,-1
 1377 1345 l 5,175,-1
 1177 1345 l 5,172,-1
1177 948 m 5,176,-1
 1177 750 l 5,177,-1
 976 750 l 5,178,-1
 976 948 l 5,179,-1
 1177 948 l 5,176,-1
976 948 m 5,180,-1
 976 1144 l 5,181,-1
 1177 1144 l 5,182,-1
 1177 948 l 5,183,-1
 976 948 l 5,180,-1
976 1345 m 5,184,-1
 976 1545 l 5,185,-1
 1177 1545 l 5,186,-1
 1177 1345 l 5,187,-1
 976 1345 l 5,184,-1
976 948 m 5,188,-1
 976 750 l 5,189,-1
 775 750 l 5,190,-1
 775 948 l 5,191,-1
 976 948 l 5,188,-1
775 948 m 5,192,-1
 775 1144 l 5,193,-1
 976 1144 l 5,194,-1
 976 948 l 5,195,-1
 775 948 l 5,192,-1
775 1345 m 5,196,-1
 775 1545 l 5,197,-1
 976 1545 l 5,198,-1
 976 1345 l 5,199,-1
 775 1345 l 5,196,-1
775 948 m 5,200,-1
 775 750 l 5,201,-1
 579 750 l 5,202,-1
 579 948 l 5,203,-1
 775 948 l 5,200,-1
579 948 m 5,204,-1
 579 1144 l 5,205,-1
 775 1144 l 5,206,-1
 775 948 l 5,207,-1
 579 948 l 5,204,-1
579 1345 m 5,208,-1
 579 1545 l 5,209,-1
 775 1545 l 5,210,-1
 775 1345 l 5,211,-1
 579 1345 l 5,208,-1
579 948 m 5,212,-1
 579 750 l 5,213,-1
 378 750 l 5,214,-1
 378 948 l 5,215,-1
 579 948 l 5,212,-1
378 948 m 5,216,-1
 378 1144 l 5,217,-1
 579 1144 l 5,218,-1
 579 948 l 5,219,-1
 378 948 l 5,216,-1
378 1345 m 5,220,-1
 378 1545 l 5,221,-1
 579 1545 l 5,222,-1
 579 1345 l 5,223,-1
 378 1345 l 5,220,-1
378 948 m 5,224,-1
 378 750 l 5,225,-1
 178 750 l 5,226,-1
 178 948 l 5,227,-1
 378 948 l 5,224,-1
178 948 m 5,228,-1
 178 1144 l 5,229,-1
 378 1144 l 5,230,-1
 378 948 l 5,231,-1
 178 948 l 5,228,-1
178 1345 m 5,232,-1
 178 1545 l 5,233,-1
 378 1545 l 5,234,-1
 378 1345 l 5,235,-1
 178 1345 l 5,232,-1
-23 948 m 5,236,-1
 -23 1144 l 5,237,-1
 178 1144 l 5,238,-1
 178 948 l 5,239,-1
 -23 948 l 5,236,-1
-23 1144 m 5,240,-1
 -23 1345 l 5,241,-1
 178 1345 l 5,242,-1
 178 1144 l 5,243,-1
 -23 1144 l 5,240,-1
-23 1345 m 5,244,-1
 -23 1545 l 5,245,-1
 178 1545 l 5,246,-1
 178 1345 l 5,247,-1
 -23 1345 l 5,244,-1
EndSplineSet
Validated: 5
EndChar

StartChar: greater
Encoding: 62 62 33
Width: 1791
Flags: W
LayerCount: 2
Back
Fore
SplineSet
649 970 m 5,0,-1
 649 290 l 5,1,-1
 174 290 l 5,2,-1
 174 970 l 5,3,-1
 649 970 l 5,0,-1
0 505 m 5,4,-1
 644 505 l 5,5,-1
 644 270 l 5,6,-1
 0 270 l 5,7,-1
 0 505 l 5,4,-1
0 735 m 5,8,-1
 0 970 l 5,9,-1
 649 970 l 5,10,-1
 649 735 l 5,11,-1
 0 735 l 5,8,-1
159 750 m 5,12,-1
 899 750 l 5,13,-1
 899 490 l 5,14,-1
 159 490 l 5,15,-1
 159 750 l 5,12,-1
0 505 m 5,16,-1
 239 505 l 5,17,-1
 239 -390 l 5,18,-1
 0 -390 l 5,19,-1
 0 505 l 5,16,-1
0 1650 m 5,20,-1
 234 1650 l 5,21,-1
 234 735 l 5,22,-1
 0 735 l 5,23,-1
 0 1650 l 5,20,-1
884 -175 m 5,24,-1
 884 -395 l 5,25,-1
 0 -395 l 5,26,-1
 0 -175 l 5,27,-1
 884 -175 l 5,24,-1
649 65 m 5,28,-1
 1114 65 l 5,29,-1
 1114 -170 l 5,30,-1
 649 -170 l 5,31,-1
 649 65 l 5,28,-1
884 285 m 5,32,-1
 1334 285 l 5,33,-1
 1334 60 l 5,34,-1
 884 60 l 5,35,-1
 884 285 l 5,32,-1
1104 500 m 5,36,-1
 1564 500 l 5,37,-1
 1564 270 l 5,38,-1
 1104 270 l 5,39,-1
 1104 500 l 5,36,-1
1334 745 m 5,40,-1
 1791 745 l 5,41,-1
 1791 505 l 5,42,-1
 1334 505 l 5,43,-1
 1334 745 l 5,40,-1
1104 960 m 5,44,-1
 1564 960 l 5,45,-1
 1564 755 l 5,46,-1
 1104 755 l 5,47,-1
 1104 960 l 5,44,-1
884 1185 m 5,48,-1
 1339 1185 l 5,49,-1
 1339 955 l 5,50,-1
 884 955 l 5,51,-1
 884 1185 l 5,48,-1
644 1425 m 5,52,-1
 1119 1425 l 5,53,-1
 1119 1185 l 5,54,-1
 644 1185 l 5,55,-1
 644 1425 l 5,52,-1
0 1650 m 5,56,-1
 889 1650 l 5,57,-1
 889 1420 l 5,58,-1
 0 1420 l 5,59,-1
 0 1650 l 5,56,-1
EndSplineSet
Validated: 5
EndChar

StartChar: question
Encoding: 63 63 34
Width: 1801
Flags: W
LayerCount: 2
Fore
SplineSet
1801 399 m 1,0,-1
 1801 600 l 1,1,-1
 1998 600 l 1,2,-1
 1998 399 l 1,3,-1
 1801 399 l 1,0,-1
1801 600 m 1,4,-1
 1801 800 l 1,5,-1
 1998 800 l 1,6,-1
 1998 600 l 1,7,-1
 1801 600 l 1,4,-1
1801 800 m 1,8,-1
 1801 1001 l 1,9,-1
 1998 1001 l 1,10,-1
 1998 800 l 1,11,-1
 1801 800 l 1,8,-1
1801 1001 m 1,12,-1
 1801 1202 l 1,13,-1
 1998 1202 l 1,14,-1
 1998 1001 l 1,15,-1
 1801 1001 l 1,12,-1
1601 199 m 1,16,-1
 1601 399 l 1,17,-1
 1801 399 l 1,18,-1
 1801 199 l 1,19,-1
 1601 199 l 1,16,-1
1601 399 m 1,20,-1
 1601 600 l 1,21,-1
 1801 600 l 1,22,-1
 1801 399 l 1,23,-1
 1601 399 l 1,20,-1
1601 600 m 1,24,-1
 1601 800 l 1,25,-1
 1801 800 l 1,26,-1
 1801 600 l 1,27,-1
 1601 600 l 1,24,-1
1601 800 m 1,28,-1
 1601 1001 l 1,29,-1
 1801 1001 l 1,30,-1
 1801 800 l 1,31,-1
 1601 800 l 1,28,-1
1601 1001 m 1,32,-1
 1601 1202 l 1,33,-1
 1801 1202 l 1,34,-1
 1801 1001 l 1,35,-1
 1601 1001 l 1,32,-1
1601 1202 m 1,36,-1
 1601 1398 l 1,37,-1
 1801 1398 l 1,38,-1
 1801 1202 l 1,39,-1
 1601 1202 l 1,36,-1
1400 1398 m 1,40,-1
 1400 1599 l 1,41,-1
 1601 1599 l 1,42,-1
 1601 1398 l 1,43,-1
 1400 1398 l 1,40,-1
1400 199 m 1,44,-1
 1400 399 l 1,45,-1
 1601 399 l 1,46,-1
 1601 199 l 1,47,-1
 1400 199 l 1,44,-1
1400 399 m 1,48,-1
 1400 600 l 1,49,-1
 1601 600 l 1,50,-1
 1601 399 l 1,51,-1
 1400 399 l 1,48,-1
1400 600 m 1,52,-1
 1400 800 l 1,53,-1
 1601 800 l 1,54,-1
 1601 600 l 1,55,-1
 1400 600 l 1,52,-1
1400 1202 m 1,56,-1
 1400 1398 l 1,57,-1
 1601 1398 l 1,58,-1
 1601 1202 l 1,59,-1
 1400 1202 l 1,56,-1
1200 1398 m 1,60,-1
 1200 1599 l 1,61,-1
 1400 1599 l 1,62,-1
 1400 1398 l 1,63,-1
 1200 1398 l 1,60,-1
1400 -198 m 1,64,-1
 1400 -396 l 1,65,-1
 1200 -396 l 1,66,-1
 1200 -198 l 1,67,-1
 1400 -198 l 1,64,-1
1200 -198 m 1,68,-1
 1200 -2 l 1,69,-1
 1400 -2 l 1,70,-1
 1400 -198 l 1,71,-1
 1200 -198 l 1,68,-1
1200 -2 m 1,72,-1
 1200 199 l 1,73,-1
 1400 199 l 1,74,-1
 1400 -2 l 1,75,-1
 1200 -2 l 1,72,-1
1200 199 m 1,76,-1
 1200 399 l 1,77,-1
 1400 399 l 1,78,-1
 1400 199 l 1,79,-1
 1200 199 l 1,76,-1
1200 399 m 1,80,-1
 1200 600 l 1,81,-1
 1400 600 l 1,82,-1
 1400 399 l 1,83,-1
 1200 399 l 1,80,-1
999 1398 m 1,84,-1
 999 1599 l 1,85,-1
 1200 1599 l 1,86,-1
 1200 1398 l 1,87,-1
 999 1398 l 1,84,-1
1200 -198 m 1,88,-1
 1200 -396 l 1,89,-1
 999 -396 l 1,90,-1
 999 -198 l 1,91,-1
 1200 -198 l 1,88,-1
999 -198 m 1,92,-1
 999 -2 l 1,93,-1
 1200 -2 l 1,94,-1
 1200 -198 l 1,95,-1
 999 -198 l 1,92,-1
999 -2 m 1,96,-1
 999 199 l 1,97,-1
 1200 199 l 1,98,-1
 1200 -2 l 1,99,-1
 999 -2 l 1,96,-1
999 199 m 1,100,-1
 999 399 l 1,101,-1
 1200 399 l 1,102,-1
 1200 199 l 1,103,-1
 999 199 l 1,100,-1
999 399 m 1,104,-1
 999 600 l 1,105,-1
 1200 600 l 1,106,-1
 1200 399 l 1,107,-1
 999 399 l 1,104,-1
999 800 m 1,108,-1
 999 1001 l 1,109,-1
 1200 1001 l 1,110,-1
 1200 800 l 1,111,-1
 999 800 l 1,108,-1
999 1001 m 1,112,-1
 999 1202 l 1,113,-1
 1200 1202 l 1,114,-1
 1200 1001 l 1,115,-1
 999 1001 l 1,112,-1
798 1398 m 1,116,-1
 798 1599 l 1,117,-1
 999 1599 l 1,118,-1
 999 1398 l 1,119,-1
 798 1398 l 1,116,-1
999 -198 m 1,120,-1
 999 -396 l 1,121,-1
 798 -396 l 1,122,-1
 798 -198 l 1,123,-1
 999 -198 l 1,120,-1
798 -198 m 1,124,-1
 798 -2 l 1,125,-1
 999 -2 l 1,126,-1
 999 -198 l 1,127,-1
 798 -198 l 1,124,-1
798 199 m 1,128,-1
 798 399 l 1,129,-1
 999 399 l 1,130,-1
 999 199 l 1,131,-1
 798 199 l 1,128,-1
798 800 m 1,132,-1
 798 1001 l 1,133,-1
 999 1001 l 1,134,-1
 999 800 l 1,135,-1
 798 800 l 1,132,-1
798 1001 m 1,136,-1
 798 1202 l 1,137,-1
 999 1202 l 1,138,-1
 999 1001 l 1,139,-1
 798 1001 l 1,136,-1
602 1398 m 1,140,-1
 602 1599 l 1,141,-1
 798 1599 l 1,142,-1
 798 1398 l 1,143,-1
 602 1398 l 1,140,-1
798 -198 m 1,144,-1
 798 -396 l 1,145,-1
 602 -396 l 1,146,-1
 602 -198 l 1,147,-1
 798 -198 l 1,144,-1
602 -198 m 1,148,-1
 602 -2 l 1,149,-1
 798 -2 l 1,150,-1
 798 -198 l 1,151,-1
 602 -198 l 1,148,-1
602 199 m 1,152,-1
 602 399 l 1,153,-1
 798 399 l 1,154,-1
 798 199 l 1,155,-1
 602 199 l 1,152,-1
602 600 m 1,156,-1
 602 800 l 1,157,-1
 798 800 l 1,158,-1
 798 600 l 1,159,-1
 602 600 l 1,156,-1
602 800 m 1,160,-1
 602 1001 l 1,161,-1
 798 1001 l 1,162,-1
 798 800 l 1,163,-1
 602 800 l 1,160,-1
602 1001 m 1,164,-1
 602 1202 l 1,165,-1
 798 1202 l 1,166,-1
 798 1001 l 1,167,-1
 602 1001 l 1,164,-1
401 1398 m 1,168,-1
 401 1599 l 1,169,-1
 602 1599 l 1,170,-1
 602 1398 l 1,171,-1
 401 1398 l 1,168,-1
401 -198 m 1,172,-1
 401 -2 l 1,173,-1
 602 -2 l 1,174,-1
 602 -198 l 1,175,-1
 401 -198 l 1,172,-1
401 -2 m 1,176,-1
 401 199 l 1,177,-1
 602 199 l 1,178,-1
 602 -2 l 1,179,-1
 401 -2 l 1,176,-1
401 199 m 1,180,-1
 401 399 l 1,181,-1
 602 399 l 1,182,-1
 602 199 l 1,183,-1
 401 199 l 1,180,-1
401 399 m 1,184,-1
 401 600 l 1,185,-1
 602 600 l 1,186,-1
 602 399 l 1,187,-1
 401 399 l 1,184,-1
401 600 m 1,188,-1
 401 800 l 1,189,-1
 602 800 l 1,190,-1
 602 600 l 1,191,-1
 401 600 l 1,188,-1
401 800 m 1,192,-1
 401 1001 l 1,193,-1
 602 1001 l 1,194,-1
 602 800 l 1,195,-1
 401 800 l 1,192,-1
201 1398 m 1,196,-1
 201 1599 l 1,197,-1
 401 1599 l 1,198,-1
 401 1398 l 1,199,-1
 201 1398 l 1,196,-1
201 600 m 1,200,-1
 201 800 l 1,201,-1
 401 800 l 1,202,-1
 401 600 l 1,203,-1
 201 600 l 1,200,-1
201 800 m 1,204,-1
 201 1001 l 1,205,-1
 401 1001 l 1,206,-1
 401 800 l 1,207,-1
 201 800 l 1,204,-1
201 1202 m 1,208,-1
 201 1398 l 1,209,-1
 401 1398 l 1,210,-1
 401 1202 l 1,211,-1
 201 1202 l 1,208,-1
0 800 m 1,212,-1
 0 1001 l 1,213,-1
 201 1001 l 1,214,-1
 201 800 l 1,215,-1
 0 800 l 1,212,-1
0 1001 m 1,216,-1
 0 1202 l 1,217,-1
 201 1202 l 1,218,-1
 201 1001 l 1,219,-1
 0 1001 l 1,216,-1
0 1202 m 1,220,-1
 0 1398 l 1,221,-1
 201 1398 l 1,222,-1
 201 1202 l 1,223,-1
 0 1202 l 1,220,-1
EndSplineSet
Validated: 5
EndChar

StartChar: at
Encoding: 64 64 35
Width: 1801
Flags: W
LayerCount: 2
Fore
SplineSet
1998 -198 m 1,0,-1
 1998 -396 l 1,1,-1
 1801 -396 l 1,2,-1
 1801 -198 l 1,3,-1
 1998 -198 l 1,0,-1
1801 -198 m 1,4,-1
 1801 -2 l 1,5,-1
 1998 -2 l 1,6,-1
 1998 -198 l 1,7,-1
 1801 -198 l 1,4,-1
1801 -2 m 1,8,-1
 1801 199 l 1,9,-1
 1998 199 l 1,10,-1
 1998 -2 l 1,11,-1
 1801 -2 l 1,8,-1
1801 199 m 1,12,-1
 1801 399 l 1,13,-1
 1998 399 l 1,14,-1
 1998 199 l 1,15,-1
 1801 199 l 1,12,-1
1801 399 m 1,16,-1
 1801 600 l 1,17,-1
 1998 600 l 1,18,-1
 1998 399 l 1,19,-1
 1801 399 l 1,16,-1
1801 600 m 1,20,-1
 1801 800 l 1,21,-1
 1998 800 l 1,22,-1
 1998 600 l 1,23,-1
 1801 600 l 1,20,-1
1801 800 m 1,24,-1
 1801 1001 l 1,25,-1
 1998 1001 l 1,26,-1
 1998 800 l 1,27,-1
 1801 800 l 1,24,-1
1801 1001 m 1,28,-1
 1801 1202 l 1,29,-1
 1998 1202 l 1,30,-1
 1998 1001 l 1,31,-1
 1801 1001 l 1,28,-1
1801 1202 m 1,32,-1
 1801 1398 l 1,33,-1
 1998 1398 l 1,34,-1
 1998 1202 l 1,35,-1
 1801 1202 l 1,32,-1
1801 1398 m 1,36,-1
 1801 1599 l 1,37,-1
 1998 1599 l 1,38,-1
 1998 1398 l 1,39,-1
 1801 1398 l 1,36,-1
1601 1398 m 1,40,-1
 1601 1599 l 1,41,-1
 1801 1599 l 1,42,-1
 1801 1398 l 1,43,-1
 1601 1398 l 1,40,-1
1801 -198 m 1,44,-1
 1801 -396 l 1,45,-1
 1601 -396 l 1,46,-1
 1601 -198 l 1,47,-1
 1801 -198 l 1,44,-1
1601 -198 m 1,48,-1
 1601 -2 l 1,49,-1
 1801 -2 l 1,50,-1
 1801 -198 l 1,51,-1
 1601 -198 l 1,48,-1
1601 -2 m 1,52,-1
 1601 199 l 1,53,-1
 1801 199 l 1,54,-1
 1801 -2 l 1,55,-1
 1601 -2 l 1,52,-1
1601 199 m 1,56,-1
 1601 399 l 1,57,-1
 1801 399 l 1,58,-1
 1801 199 l 1,59,-1
 1601 199 l 1,56,-1
1601 399 m 1,60,-1
 1601 600 l 1,61,-1
 1801 600 l 1,62,-1
 1801 399 l 1,63,-1
 1601 399 l 1,60,-1
1601 600 m 1,64,-1
 1601 800 l 1,65,-1
 1801 800 l 1,66,-1
 1801 600 l 1,67,-1
 1601 600 l 1,64,-1
1601 800 m 1,68,-1
 1601 1001 l 1,69,-1
 1801 1001 l 1,70,-1
 1801 800 l 1,71,-1
 1601 800 l 1,68,-1
1601 1001 m 1,72,-1
 1601 1202 l 1,73,-1
 1801 1202 l 1,74,-1
 1801 1001 l 1,75,-1
 1601 1001 l 1,72,-1
1601 1202 m 1,76,-1
 1601 1398 l 1,77,-1
 1801 1398 l 1,78,-1
 1801 1202 l 1,79,-1
 1601 1202 l 1,76,-1
1400 1398 m 1,80,-1
 1400 1599 l 1,81,-1
 1601 1599 l 1,82,-1
 1601 1398 l 1,83,-1
 1400 1398 l 1,80,-1
1601 -198 m 1,84,-1
 1601 -396 l 1,85,-1
 1400 -396 l 1,86,-1
 1400 -198 l 1,87,-1
 1601 -198 l 1,84,-1
1400 -198 m 1,88,-1
 1400 -2 l 1,89,-1
 1601 -2 l 1,90,-1
 1601 -198 l 1,91,-1
 1400 -198 l 1,88,-1
1400 -2 m 1,92,-1
 1400 199 l 1,93,-1
 1601 199 l 1,94,-1
 1601 -2 l 1,95,-1
 1400 -2 l 1,92,-1
1400 199 m 1,96,-1
 1400 399 l 1,97,-1
 1601 399 l 1,98,-1
 1601 199 l 1,99,-1
 1400 199 l 1,96,-1
1400 399 m 1,100,-1
 1400 600 l 1,101,-1
 1601 600 l 1,102,-1
 1601 399 l 1,103,-1
 1400 399 l 1,100,-1
1400 600 m 1,104,-1
 1400 800 l 1,105,-1
 1601 800 l 1,106,-1
 1601 600 l 1,107,-1
 1400 600 l 1,104,-1
1400 800 m 1,108,-1
 1400 1001 l 1,109,-1
 1601 1001 l 1,110,-1
 1601 800 l 1,111,-1
 1400 800 l 1,108,-1
1400 1001 m 1,112,-1
 1400 1202 l 1,113,-1
 1601 1202 l 1,114,-1
 1601 1001 l 1,115,-1
 1400 1001 l 1,112,-1
1400 1202 m 1,116,-1
 1400 1398 l 1,117,-1
 1601 1398 l 1,118,-1
 1601 1202 l 1,119,-1
 1400 1202 l 1,116,-1
1200 1398 m 1,120,-1
 1200 1599 l 1,121,-1
 1400 1599 l 1,122,-1
 1400 1398 l 1,123,-1
 1200 1398 l 1,120,-1
1400 -198 m 1,124,-1
 1400 -396 l 1,125,-1
 1200 -396 l 1,126,-1
 1200 -198 l 1,127,-1
 1400 -198 l 1,124,-1
1200 -198 m 1,128,-1
 1200 -2 l 1,129,-1
 1400 -2 l 1,130,-1
 1400 -198 l 1,131,-1
 1200 -198 l 1,128,-1
1200 -2 m 1,132,-1
 1200 199 l 1,133,-1
 1400 199 l 1,134,-1
 1400 -2 l 1,135,-1
 1200 -2 l 1,132,-1
1200 199 m 1,136,-1
 1200 399 l 1,137,-1
 1400 399 l 1,138,-1
 1400 199 l 1,139,-1
 1200 199 l 1,136,-1
1200 399 m 1,140,-1
 1200 600 l 1,141,-1
 1400 600 l 1,142,-1
 1400 399 l 1,143,-1
 1200 399 l 1,140,-1
1200 600 m 1,144,-1
 1200 800 l 1,145,-1
 1400 800 l 1,146,-1
 1400 600 l 1,147,-1
 1200 600 l 1,144,-1
1200 800 m 1,148,-1
 1200 1001 l 1,149,-1
 1400 1001 l 1,150,-1
 1400 800 l 1,151,-1
 1200 800 l 1,148,-1
1200 1001 m 1,152,-1
 1200 1202 l 1,153,-1
 1400 1202 l 1,154,-1
 1400 1001 l 1,155,-1
 1200 1001 l 1,152,-1
1200 1202 m 1,156,-1
 1200 1398 l 1,157,-1
 1400 1398 l 1,158,-1
 1400 1202 l 1,159,-1
 1200 1202 l 1,156,-1
999 1398 m 1,160,-1
 999 1599 l 1,161,-1
 1200 1599 l 1,162,-1
 1200 1398 l 1,163,-1
 999 1398 l 1,160,-1
1200 -198 m 1,164,-1
 1200 -396 l 1,165,-1
 999 -396 l 1,166,-1
 999 -198 l 1,167,-1
 1200 -198 l 1,164,-1
999 -198 m 1,168,-1
 999 -2 l 1,169,-1
 1200 -2 l 1,170,-1
 1200 -198 l 1,171,-1
 999 -198 l 1,168,-1
999 -2 m 1,172,-1
 999 199 l 1,173,-1
 1200 199 l 1,174,-1
 1200 -2 l 1,175,-1
 999 -2 l 1,172,-1
999 199 m 1,176,-1
 999 399 l 1,177,-1
 1200 399 l 1,178,-1
 1200 199 l 1,179,-1
 999 199 l 1,176,-1
999 399 m 1,180,-1
 999 600 l 1,181,-1
 1200 600 l 1,182,-1
 1200 399 l 1,183,-1
 999 399 l 1,180,-1
999 600 m 1,184,-1
 999 800 l 1,185,-1
 1200 800 l 1,186,-1
 1200 600 l 1,187,-1
 999 600 l 1,184,-1
999 800 m 1,188,-1
 999 1001 l 1,189,-1
 1200 1001 l 1,190,-1
 1200 800 l 1,191,-1
 999 800 l 1,188,-1
999 1001 m 1,192,-1
 999 1202 l 1,193,-1
 1200 1202 l 1,194,-1
 1200 1001 l 1,195,-1
 999 1001 l 1,192,-1
999 1202 m 1,196,-1
 999 1398 l 1,197,-1
 1200 1398 l 1,198,-1
 1200 1202 l 1,199,-1
 999 1202 l 1,196,-1
798 1398 m 1,200,-1
 798 1599 l 1,201,-1
 999 1599 l 1,202,-1
 999 1398 l 1,203,-1
 798 1398 l 1,200,-1
999 -198 m 1,204,-1
 999 -396 l 1,205,-1
 798 -396 l 1,206,-1
 798 -198 l 1,207,-1
 999 -198 l 1,204,-1
798 -198 m 1,208,-1
 798 -2 l 1,209,-1
 999 -2 l 1,210,-1
 999 -198 l 1,211,-1
 798 -198 l 1,208,-1
798 -2 m 1,212,-1
 798 199 l 1,213,-1
 999 199 l 1,214,-1
 999 -2 l 1,215,-1
 798 -2 l 1,212,-1
798 199 m 1,216,-1
 798 399 l 1,217,-1
 999 399 l 1,218,-1
 999 199 l 1,219,-1
 798 199 l 1,216,-1
798 399 m 1,220,-1
 798 600 l 1,221,-1
 999 600 l 1,222,-1
 999 399 l 1,223,-1
 798 399 l 1,220,-1
798 600 m 1,224,-1
 798 800 l 1,225,-1
 999 800 l 1,226,-1
 999 600 l 1,227,-1
 798 600 l 1,224,-1
798 800 m 1,228,-1
 798 1001 l 1,229,-1
 999 1001 l 1,230,-1
 999 800 l 1,231,-1
 798 800 l 1,228,-1
798 1001 m 1,232,-1
 798 1202 l 1,233,-1
 999 1202 l 1,234,-1
 999 1001 l 1,235,-1
 798 1001 l 1,232,-1
798 1202 m 1,236,-1
 798 1398 l 1,237,-1
 999 1398 l 1,238,-1
 999 1202 l 1,239,-1
 798 1202 l 1,236,-1
602 1398 m 1,240,-1
 602 1599 l 1,241,-1
 798 1599 l 1,242,-1
 798 1398 l 1,243,-1
 602 1398 l 1,240,-1
798 -198 m 1,244,-1
 798 -396 l 1,245,-1
 602 -396 l 1,246,-1
 602 -198 l 1,247,-1
 798 -198 l 1,244,-1
602 -198 m 1,248,-1
 602 -2 l 1,249,-1
 798 -2 l 1,250,-1
 798 -198 l 1,251,-1
 602 -198 l 1,248,-1
602 -2 m 1,252,-1
 602 199 l 1,253,-1
 798 199 l 1,254,-1
 798 -2 l 1,255,-1
 602 -2 l 1,252,-1
602 199 m 1,256,-1
 602 399 l 1,257,-1
 798 399 l 1,258,-1
 798 199 l 1,259,-1
 602 199 l 1,256,-1
602 399 m 1,260,-1
 602 600 l 1,261,-1
 798 600 l 1,262,-1
 798 399 l 1,263,-1
 602 399 l 1,260,-1
602 600 m 1,264,-1
 602 800 l 1,265,-1
 798 800 l 1,266,-1
 798 600 l 1,267,-1
 602 600 l 1,264,-1
602 800 m 1,268,-1
 602 1001 l 1,269,-1
 798 1001 l 1,270,-1
 798 800 l 1,271,-1
 602 800 l 1,268,-1
602 1001 m 1,272,-1
 602 1202 l 1,273,-1
 798 1202 l 1,274,-1
 798 1001 l 1,275,-1
 602 1001 l 1,272,-1
602 1202 m 1,276,-1
 602 1398 l 1,277,-1
 798 1398 l 1,278,-1
 798 1202 l 1,279,-1
 602 1202 l 1,276,-1
401 1398 m 1,280,-1
 401 1599 l 1,281,-1
 602 1599 l 1,282,-1
 602 1398 l 1,283,-1
 401 1398 l 1,280,-1
602 -198 m 1,284,-1
 602 -396 l 1,285,-1
 401 -396 l 1,286,-1
 401 -198 l 1,287,-1
 602 -198 l 1,284,-1
401 -198 m 1,288,-1
 401 -2 l 1,289,-1
 602 -2 l 1,290,-1
 602 -198 l 1,291,-1
 401 -198 l 1,288,-1
401 -2 m 1,292,-1
 401 199 l 1,293,-1
 602 199 l 1,294,-1
 602 -2 l 1,295,-1
 401 -2 l 1,292,-1
401 199 m 1,296,-1
 401 399 l 1,297,-1
 602 399 l 1,298,-1
 602 199 l 1,299,-1
 401 199 l 1,296,-1
401 399 m 1,300,-1
 401 600 l 1,301,-1
 602 600 l 1,302,-1
 602 399 l 1,303,-1
 401 399 l 1,300,-1
401 600 m 1,304,-1
 401 800 l 1,305,-1
 602 800 l 1,306,-1
 602 600 l 1,307,-1
 401 600 l 1,304,-1
401 800 m 1,308,-1
 401 1001 l 1,309,-1
 602 1001 l 1,310,-1
 602 800 l 1,311,-1
 401 800 l 1,308,-1
401 1001 m 1,312,-1
 401 1202 l 1,313,-1
 602 1202 l 1,314,-1
 602 1001 l 1,315,-1
 401 1001 l 1,312,-1
401 1202 m 1,316,-1
 401 1398 l 1,317,-1
 602 1398 l 1,318,-1
 602 1202 l 1,319,-1
 401 1202 l 1,316,-1
201 1398 m 1,320,-1
 201 1599 l 1,321,-1
 401 1599 l 1,322,-1
 401 1398 l 1,323,-1
 201 1398 l 1,320,-1
401 -198 m 1,324,-1
 401 -396 l 1,325,-1
 201 -396 l 1,326,-1
 201 -198 l 1,327,-1
 401 -198 l 1,324,-1
201 -198 m 1,328,-1
 201 -2 l 1,329,-1
 401 -2 l 1,330,-1
 401 -198 l 1,331,-1
 201 -198 l 1,328,-1
201 -2 m 1,332,-1
 201 199 l 1,333,-1
 401 199 l 1,334,-1
 401 -2 l 1,335,-1
 201 -2 l 1,332,-1
201 199 m 1,336,-1
 201 399 l 1,337,-1
 401 399 l 1,338,-1
 401 199 l 1,339,-1
 201 199 l 1,336,-1
201 399 m 1,340,-1
 201 600 l 1,341,-1
 401 600 l 1,342,-1
 401 399 l 1,343,-1
 201 399 l 1,340,-1
201 600 m 1,344,-1
 201 800 l 1,345,-1
 401 800 l 1,346,-1
 401 600 l 1,347,-1
 201 600 l 1,344,-1
201 800 m 1,348,-1
 201 1001 l 1,349,-1
 401 1001 l 1,350,-1
 401 800 l 1,351,-1
 201 800 l 1,348,-1
201 1001 m 1,352,-1
 201 1202 l 1,353,-1
 401 1202 l 1,354,-1
 401 1001 l 1,355,-1
 201 1001 l 1,352,-1
201 1202 m 1,356,-1
 201 1398 l 1,357,-1
 401 1398 l 1,358,-1
 401 1202 l 1,359,-1
 201 1202 l 1,356,-1
0 1398 m 1,360,-1
 0 1599 l 1,361,-1
 201 1599 l 1,362,-1
 201 1398 l 1,363,-1
 0 1398 l 1,360,-1
201 -198 m 1,364,-1
 201 -396 l 1,365,-1
 0 -396 l 1,366,-1
 0 -198 l 1,367,-1
 201 -198 l 1,364,-1
0 -198 m 1,368,-1
 0 -2 l 1,369,-1
 201 -2 l 1,370,-1
 201 -198 l 1,371,-1
 0 -198 l 1,368,-1
0 -2 m 1,372,-1
 0 199 l 1,373,-1
 201 199 l 1,374,-1
 201 -2 l 1,375,-1
 0 -2 l 1,372,-1
0 199 m 1,376,-1
 0 399 l 1,377,-1
 201 399 l 1,378,-1
 201 199 l 1,379,-1
 0 199 l 1,376,-1
0 399 m 1,380,-1
 0 600 l 1,381,-1
 201 600 l 1,382,-1
 201 399 l 1,383,-1
 0 399 l 1,380,-1
0 600 m 1,384,-1
 0 800 l 1,385,-1
 201 800 l 1,386,-1
 201 600 l 1,387,-1
 0 600 l 1,384,-1
0 800 m 1,388,-1
 0 1001 l 1,389,-1
 201 1001 l 1,390,-1
 201 800 l 1,391,-1
 0 800 l 1,388,-1
0 1001 m 1,392,-1
 0 1202 l 1,393,-1
 201 1202 l 1,394,-1
 201 1001 l 1,395,-1
 0 1001 l 1,392,-1
0 1202 m 1,396,-1
 0 1398 l 1,397,-1
 201 1398 l 1,398,-1
 201 1202 l 1,399,-1
 0 1202 l 1,396,-1
EndSplineSet
Validated: 5
EndChar

StartChar: A
Encoding: 65 65 36
Width: 1801
Flags: W
LayerCount: 2
Fore
SplineSet
1998 -198 m 1,0,-1
 1998 -396 l 1,1,-1
 1801 -396 l 1,2,-1
 1801 -198 l 1,3,-1
 1998 -198 l 1,0,-1
1801 -198 m 1,4,-1
 1801 -2 l 1,5,-1
 1998 -2 l 1,6,-1
 1998 -198 l 1,7,-1
 1801 -198 l 1,4,-1
1801 -2 m 1,8,-1
 1801 199 l 1,9,-1
 1998 199 l 1,10,-1
 1998 -2 l 1,11,-1
 1801 -2 l 1,8,-1
1801 199 m 1,12,-1
 1801 399 l 1,13,-1
 1998 399 l 1,14,-1
 1998 199 l 1,15,-1
 1801 199 l 1,12,-1
1801 399 m 1,16,-1
 1801 600 l 1,17,-1
 1998 600 l 1,18,-1
 1998 399 l 1,19,-1
 1801 399 l 1,16,-1
1801 600 m 1,20,-1
 1801 800 l 1,21,-1
 1998 800 l 1,22,-1
 1998 600 l 1,23,-1
 1801 600 l 1,20,-1
1801 800 m 1,24,-1
 1801 1001 l 1,25,-1
 1998 1001 l 1,26,-1
 1998 800 l 1,27,-1
 1801 800 l 1,24,-1
1801 1001 m 1,28,-1
 1801 1202 l 1,29,-1
 1998 1202 l 1,30,-1
 1998 1001 l 1,31,-1
 1801 1001 l 1,28,-1
1801 -198 m 1,32,-1
 1801 -396 l 1,33,-1
 1601 -396 l 1,34,-1
 1601 -198 l 1,35,-1
 1801 -198 l 1,32,-1
1601 -198 m 1,36,-1
 1601 -2 l 1,37,-1
 1801 -2 l 1,38,-1
 1801 -198 l 1,39,-1
 1601 -198 l 1,36,-1
1601 -2 m 1,40,-1
 1601 199 l 1,41,-1
 1801 199 l 1,42,-1
 1801 -2 l 1,43,-1
 1601 -2 l 1,40,-1
1601 199 m 1,44,-1
 1601 399 l 1,45,-1
 1801 399 l 1,46,-1
 1801 199 l 1,47,-1
 1601 199 l 1,44,-1
1601 399 m 1,48,-1
 1601 600 l 1,49,-1
 1801 600 l 1,50,-1
 1801 399 l 1,51,-1
 1601 399 l 1,48,-1
1601 600 m 1,52,-1
 1601 800 l 1,53,-1
 1801 800 l 1,54,-1
 1801 600 l 1,55,-1
 1601 600 l 1,52,-1
1601 800 m 1,56,-1
 1601 1001 l 1,57,-1
 1801 1001 l 1,58,-1
 1801 800 l 1,59,-1
 1601 800 l 1,56,-1
1601 1001 m 1,60,-1
 1601 1202 l 1,61,-1
 1801 1202 l 1,62,-1
 1801 1001 l 1,63,-1
 1601 1001 l 1,60,-1
1601 1202 m 1,64,-1
 1601 1398 l 1,65,-1
 1801 1398 l 1,66,-1
 1801 1202 l 1,67,-1
 1601 1202 l 1,64,-1
1400 1398 m 1,68,-1
 1400 1599 l 1,69,-1
 1601 1599 l 1,70,-1
 1601 1398 l 1,71,-1
 1400 1398 l 1,68,-1
1601 -198 m 1,72,-1
 1601 -396 l 1,73,-1
 1400 -396 l 1,74,-1
 1400 -198 l 1,75,-1
 1601 -198 l 1,72,-1
1400 -198 m 1,76,-1
 1400 -2 l 1,77,-1
 1601 -2 l 1,78,-1
 1601 -198 l 1,79,-1
 1400 -198 l 1,76,-1
1400 1202 m 1,80,-1
 1400 1398 l 1,81,-1
 1601 1398 l 1,82,-1
 1601 1202 l 1,83,-1
 1400 1202 l 1,80,-1
1200 1398 m 1,84,-1
 1200 1599 l 1,85,-1
 1400 1599 l 1,86,-1
 1400 1398 l 1,87,-1
 1200 1398 l 1,84,-1
1400 -198 m 1,88,-1
 1400 -396 l 1,89,-1
 1200 -396 l 1,90,-1
 1200 -198 l 1,91,-1
 1400 -198 l 1,88,-1
1200 -198 m 1,92,-1
 1200 -2 l 1,93,-1
 1400 -2 l 1,94,-1
 1400 -198 l 1,95,-1
 1200 -198 l 1,92,-1
999 1398 m 1,96,-1
 999 1599 l 1,97,-1
 1200 1599 l 1,98,-1
 1200 1398 l 1,99,-1
 999 1398 l 1,96,-1
999 -198 m 1,100,-1
 999 -2 l 1,101,-1
 1200 -2 l 1,102,-1
 1200 -198 l 1,103,-1
 999 -198 l 1,100,-1
999 -2 m 1,104,-1
 999 199 l 1,105,-1
 1200 199 l 1,106,-1
 1200 -2 l 1,107,-1
 999 -2 l 1,104,-1
999 199 m 1,108,-1
 999 399 l 1,109,-1
 1200 399 l 1,110,-1
 1200 199 l 1,111,-1
 999 199 l 1,108,-1
999 600 m 1,112,-1
 999 800 l 1,113,-1
 1200 800 l 1,114,-1
 1200 600 l 1,115,-1
 999 600 l 1,112,-1
999 800 m 1,116,-1
 999 1001 l 1,117,-1
 1200 1001 l 1,118,-1
 1200 800 l 1,119,-1
 999 800 l 1,116,-1
999 1001 m 1,120,-1
 999 1202 l 1,121,-1
 1200 1202 l 1,122,-1
 1200 1001 l 1,123,-1
 999 1001 l 1,120,-1
798 1398 m 1,124,-1
 798 1599 l 1,125,-1
 999 1599 l 1,126,-1
 999 1398 l 1,127,-1
 798 1398 l 1,124,-1
999 -198 m 1,128,-1
 999 -396 l 1,129,-1
 798 -396 l 1,130,-1
 798 -198 l 1,131,-1
 999 -198 l 1,128,-1
798 -198 m 1,132,-1
 798 -2 l 1,133,-1
 999 -2 l 1,134,-1
 999 -198 l 1,135,-1
 798 -198 l 1,132,-1
798 -2 m 1,136,-1
 798 199 l 1,137,-1
 999 199 l 1,138,-1
 999 -2 l 1,139,-1
 798 -2 l 1,136,-1
798 199 m 1,140,-1
 798 399 l 1,141,-1
 999 399 l 1,142,-1
 999 199 l 1,143,-1
 798 199 l 1,140,-1
798 600 m 1,144,-1
 798 800 l 1,145,-1
 999 800 l 1,146,-1
 999 600 l 1,147,-1
 798 600 l 1,144,-1
798 800 m 1,148,-1
 798 1001 l 1,149,-1
 999 1001 l 1,150,-1
 999 800 l 1,151,-1
 798 800 l 1,148,-1
798 1001 m 1,152,-1
 798 1202 l 1,153,-1
 999 1202 l 1,154,-1
 999 1001 l 1,155,-1
 798 1001 l 1,152,-1
602 1398 m 1,156,-1
 602 1599 l 1,157,-1
 798 1599 l 1,158,-1
 798 1398 l 1,159,-1
 602 1398 l 1,156,-1
798 -198 m 1,160,-1
 798 -396 l 1,161,-1
 602 -396 l 1,162,-1
 602 -198 l 1,163,-1
 798 -198 l 1,160,-1
602 -198 m 1,164,-1
 602 -2 l 1,165,-1
 798 -2 l 1,166,-1
 798 -198 l 1,167,-1
 602 -198 l 1,164,-1
602 -2 m 1,168,-1
 602 199 l 1,169,-1
 798 199 l 1,170,-1
 798 -2 l 1,171,-1
 602 -2 l 1,168,-1
602 199 m 1,172,-1
 602 399 l 1,173,-1
 798 399 l 1,174,-1
 798 199 l 1,175,-1
 602 199 l 1,172,-1
602 600 m 1,176,-1
 602 800 l 1,177,-1
 798 800 l 1,178,-1
 798 600 l 1,179,-1
 602 600 l 1,176,-1
602 800 m 1,180,-1
 602 1001 l 1,181,-1
 798 1001 l 1,182,-1
 798 800 l 1,183,-1
 602 800 l 1,180,-1
602 1001 m 1,184,-1
 602 1202 l 1,185,-1
 798 1202 l 1,186,-1
 798 1001 l 1,187,-1
 602 1001 l 1,184,-1
401 1398 m 1,188,-1
 401 1599 l 1,189,-1
 602 1599 l 1,190,-1
 602 1398 l 1,191,-1
 401 1398 l 1,188,-1
602 -198 m 1,192,-1
 602 -396 l 1,193,-1
 401 -396 l 1,194,-1
 401 -198 l 1,195,-1
 602 -198 l 1,192,-1
401 -198 m 1,196,-1
 401 -2 l 1,197,-1
 602 -2 l 1,198,-1
 602 -198 l 1,199,-1
 401 -198 l 1,196,-1
201 1398 m 1,200,-1
 201 1599 l 1,201,-1
 401 1599 l 1,202,-1
 401 1398 l 1,203,-1
 201 1398 l 1,200,-1
401 -198 m 1,204,-1
 401 -396 l 1,205,-1
 201 -396 l 1,206,-1
 201 -198 l 1,207,-1
 401 -198 l 1,204,-1
201 -198 m 1,208,-1
 201 -2 l 1,209,-1
 401 -2 l 1,210,-1
 401 -198 l 1,211,-1
 201 -198 l 1,208,-1
201 1202 m 1,212,-1
 201 1398 l 1,213,-1
 401 1398 l 1,214,-1
 401 1202 l 1,215,-1
 201 1202 l 1,212,-1
0 -198 m 1,216,-1
 0 -2 l 1,217,-1
 201 -2 l 1,218,-1
 201 -198 l 1,219,-1
 0 -198 l 1,216,-1
0 -2 m 1,220,-1
 0 199 l 1,221,-1
 201 199 l 1,222,-1
 201 -2 l 1,223,-1
 0 -2 l 1,220,-1
0 199 m 1,224,-1
 0 399 l 1,225,-1
 201 399 l 1,226,-1
 201 199 l 1,227,-1
 0 199 l 1,224,-1
0 399 m 1,228,-1
 0 600 l 1,229,-1
 201 600 l 1,230,-1
 201 399 l 1,231,-1
 0 399 l 1,228,-1
0 600 m 1,232,-1
 0 800 l 1,233,-1
 201 800 l 1,234,-1
 201 600 l 1,235,-1
 0 600 l 1,232,-1
0 800 m 1,236,-1
 0 1001 l 1,237,-1
 201 1001 l 1,238,-1
 201 800 l 1,239,-1
 0 800 l 1,236,-1
0 1001 m 1,240,-1
 0 1202 l 1,241,-1
 201 1202 l 1,242,-1
 201 1001 l 1,243,-1
 0 1001 l 1,240,-1
0 1202 m 1,244,-1
 0 1398 l 1,245,-1
 201 1398 l 1,246,-1
 201 1202 l 1,247,-1
 0 1202 l 1,244,-1
EndSplineSet
Validated: 5
EndChar

StartChar: B
Encoding: 66 66 37
Width: 1801
Flags: W
LayerCount: 2
Fore
SplineSet
1801 -198 m 1,0,-1
 1801 -2 l 1,1,-1
 1998 -2 l 1,2,-1
 1998 -198 l 1,3,-1
 1801 -198 l 1,0,-1
1801 -2 m 1,4,-1
 1801 199 l 1,5,-1
 1998 199 l 1,6,-1
 1998 -2 l 1,7,-1
 1801 -2 l 1,4,-1
1801 199 m 1,8,-1
 1801 399 l 1,9,-1
 1998 399 l 1,10,-1
 1998 199 l 1,11,-1
 1801 199 l 1,8,-1
1801 399 m 1,12,-1
 1801 600 l 1,13,-1
 1998 600 l 1,14,-1
 1998 399 l 1,15,-1
 1801 399 l 1,12,-1
1801 600 m 1,16,-1
 1801 800 l 1,17,-1
 1998 800 l 1,18,-1
 1998 600 l 1,19,-1
 1801 600 l 1,16,-1
1801 800 m 1,20,-1
 1801 1001 l 1,21,-1
 1998 1001 l 1,22,-1
 1998 800 l 1,23,-1
 1801 800 l 1,20,-1
1801 1001 m 1,24,-1
 1801 1202 l 1,25,-1
 1998 1202 l 1,26,-1
 1998 1001 l 1,27,-1
 1801 1001 l 1,24,-1
1801 -198 m 1,28,-1
 1801 -396 l 1,29,-1
 1601 -396 l 1,30,-1
 1601 -198 l 1,31,-1
 1801 -198 l 1,28,-1
1601 -198 m 1,32,-1
 1601 -2 l 1,33,-1
 1801 -2 l 1,34,-1
 1801 -198 l 1,35,-1
 1601 -198 l 1,32,-1
1601 -2 m 1,36,-1
 1601 199 l 1,37,-1
 1801 199 l 1,38,-1
 1801 -2 l 1,39,-1
 1601 -2 l 1,36,-1
1601 199 m 1,40,-1
 1601 399 l 1,41,-1
 1801 399 l 1,42,-1
 1801 199 l 1,43,-1
 1601 199 l 1,40,-1
1601 399 m 1,44,-1
 1601 600 l 1,45,-1
 1801 600 l 1,46,-1
 1801 399 l 1,47,-1
 1601 399 l 1,44,-1
1601 600 m 1,48,-1
 1601 800 l 1,49,-1
 1801 800 l 1,50,-1
 1801 600 l 1,51,-1
 1601 600 l 1,48,-1
1601 800 m 1,52,-1
 1601 1001 l 1,53,-1
 1801 1001 l 1,54,-1
 1801 800 l 1,55,-1
 1601 800 l 1,52,-1
1601 1001 m 1,56,-1
 1601 1202 l 1,57,-1
 1801 1202 l 1,58,-1
 1801 1001 l 1,59,-1
 1601 1001 l 1,56,-1
1601 1202 m 1,60,-1
 1601 1398 l 1,61,-1
 1801 1398 l 1,62,-1
 1801 1202 l 1,63,-1
 1601 1202 l 1,60,-1
1400 1398 m 1,64,-1
 1400 1599 l 1,65,-1
 1601 1599 l 1,66,-1
 1601 1398 l 1,67,-1
 1400 1398 l 1,64,-1
1601 -198 m 1,68,-1
 1601 -396 l 1,69,-1
 1400 -396 l 1,70,-1
 1400 -198 l 1,71,-1
 1601 -198 l 1,68,-1
1400 -198 m 1,72,-1
 1400 -2 l 1,73,-1
 1601 -2 l 1,74,-1
 1601 -198 l 1,75,-1
 1400 -198 l 1,72,-1
1400 -2 m 1,76,-1
 1400 199 l 1,77,-1
 1601 199 l 1,78,-1
 1601 -2 l 1,79,-1
 1400 -2 l 1,76,-1
1400 600 m 1,80,-1
 1400 800 l 1,81,-1
 1601 800 l 1,82,-1
 1601 600 l 1,83,-1
 1400 600 l 1,80,-1
1400 1202 m 1,84,-1
 1400 1398 l 1,85,-1
 1601 1398 l 1,86,-1
 1601 1202 l 1,87,-1
 1400 1202 l 1,84,-1
1200 1398 m 1,88,-1
 1200 1599 l 1,89,-1
 1400 1599 l 1,90,-1
 1400 1398 l 1,91,-1
 1200 1398 l 1,88,-1
1400 -198 m 1,92,-1
 1400 -396 l 1,93,-1
 1200 -396 l 1,94,-1
 1200 -198 l 1,95,-1
 1400 -198 l 1,92,-1
1200 -198 m 1,96,-1
 1200 -2 l 1,97,-1
 1400 -2 l 1,98,-1
 1400 -198 l 1,99,-1
 1200 -198 l 1,96,-1
999 1398 m 1,100,-1
 999 1599 l 1,101,-1
 1200 1599 l 1,102,-1
 1200 1398 l 1,103,-1
 999 1398 l 1,100,-1
1200 -198 m 1,104,-1
 1200 -396 l 1,105,-1
 999 -396 l 1,106,-1
 999 -198 l 1,107,-1
 1200 -198 l 1,104,-1
999 -198 m 1,108,-1
 999 -2 l 1,109,-1
 1200 -2 l 1,110,-1
 1200 -198 l 1,111,-1
 999 -198 l 1,108,-1
999 199 m 1,112,-1
 999 399 l 1,113,-1
 1200 399 l 1,114,-1
 1200 199 l 1,115,-1
 999 199 l 1,112,-1
999 399 m 1,116,-1
 999 600 l 1,117,-1
 1200 600 l 1,118,-1
 1200 399 l 1,119,-1
 999 399 l 1,116,-1
999 800 m 1,120,-1
 999 1001 l 1,121,-1
 1200 1001 l 1,122,-1
 1200 800 l 1,123,-1
 999 800 l 1,120,-1
999 1001 m 1,124,-1
 999 1202 l 1,125,-1
 1200 1202 l 1,126,-1
 1200 1001 l 1,127,-1
 999 1001 l 1,124,-1
798 1398 m 1,128,-1
 798 1599 l 1,129,-1
 999 1599 l 1,130,-1
 999 1398 l 1,131,-1
 798 1398 l 1,128,-1
999 -198 m 1,132,-1
 999 -396 l 1,133,-1
 798 -396 l 1,134,-1
 798 -198 l 1,135,-1
 999 -198 l 1,132,-1
798 -198 m 1,136,-1
 798 -2 l 1,137,-1
 999 -2 l 1,138,-1
 999 -198 l 1,139,-1
 798 -198 l 1,136,-1
798 199 m 1,140,-1
 798 399 l 1,141,-1
 999 399 l 1,142,-1
 999 199 l 1,143,-1
 798 199 l 1,140,-1
798 399 m 1,144,-1
 798 600 l 1,145,-1
 999 600 l 1,146,-1
 999 399 l 1,147,-1
 798 399 l 1,144,-1
798 800 m 1,148,-1
 798 1001 l 1,149,-1
 999 1001 l 1,150,-1
 999 800 l 1,151,-1
 798 800 l 1,148,-1
798 1001 m 1,152,-1
 798 1202 l 1,153,-1
 999 1202 l 1,154,-1
 999 1001 l 1,155,-1
 798 1001 l 1,152,-1
602 1398 m 1,156,-1
 602 1599 l 1,157,-1
 798 1599 l 1,158,-1
 798 1398 l 1,159,-1
 602 1398 l 1,156,-1
798 -198 m 1,160,-1
 798 -396 l 1,161,-1
 602 -396 l 1,162,-1
 602 -198 l 1,163,-1
 798 -198 l 1,160,-1
602 -198 m 1,164,-1
 602 -2 l 1,165,-1
 798 -2 l 1,166,-1
 798 -198 l 1,167,-1
 602 -198 l 1,164,-1
602 199 m 1,168,-1
 602 399 l 1,169,-1
 798 399 l 1,170,-1
 798 199 l 1,171,-1
 602 199 l 1,168,-1
602 399 m 1,172,-1
 602 600 l 1,173,-1
 798 600 l 1,174,-1
 798 399 l 1,175,-1
 602 399 l 1,172,-1
602 800 m 1,176,-1
 602 1001 l 1,177,-1
 798 1001 l 1,178,-1
 798 800 l 1,179,-1
 602 800 l 1,176,-1
602 1001 m 1,180,-1
 602 1202 l 1,181,-1
 798 1202 l 1,182,-1
 798 1001 l 1,183,-1
 602 1001 l 1,180,-1
401 1398 m 1,184,-1
 401 1599 l 1,185,-1
 602 1599 l 1,186,-1
 602 1398 l 1,187,-1
 401 1398 l 1,184,-1
602 -198 m 1,188,-1
 602 -396 l 1,189,-1
 401 -396 l 1,190,-1
 401 -198 l 1,191,-1
 602 -198 l 1,188,-1
401 -198 m 1,192,-1
 401 -2 l 1,193,-1
 602 -2 l 1,194,-1
 602 -198 l 1,195,-1
 401 -198 l 1,192,-1
201 1398 m 1,196,-1
 201 1599 l 1,197,-1
 401 1599 l 1,198,-1
 401 1398 l 1,199,-1
 201 1398 l 1,196,-1
401 -198 m 1,200,-1
 401 -396 l 1,201,-1
 201 -396 l 1,202,-1
 201 -198 l 1,203,-1
 401 -198 l 1,200,-1
201 -198 m 1,204,-1
 201 -2 l 1,205,-1
 401 -2 l 1,206,-1
 401 -198 l 1,207,-1
 201 -198 l 1,204,-1
0 1398 m 1,208,-1
 0 1599 l 1,209,-1
 201 1599 l 1,210,-1
 201 1398 l 1,211,-1
 0 1398 l 1,208,-1
0 -198 m 1,212,-1
 0 -2 l 1,213,-1
 201 -2 l 1,214,-1
 201 -198 l 1,215,-1
 0 -198 l 1,212,-1
0 -2 m 1,216,-1
 0 199 l 1,217,-1
 201 199 l 1,218,-1
 201 -2 l 1,219,-1
 0 -2 l 1,216,-1
0 199 m 1,220,-1
 0 399 l 1,221,-1
 201 399 l 1,222,-1
 201 199 l 1,223,-1
 0 199 l 1,220,-1
0 399 m 1,224,-1
 0 600 l 1,225,-1
 201 600 l 1,226,-1
 201 399 l 1,227,-1
 0 399 l 1,224,-1
0 600 m 1,228,-1
 0 800 l 1,229,-1
 201 800 l 1,230,-1
 201 600 l 1,231,-1
 0 600 l 1,228,-1
0 800 m 1,232,-1
 0 1001 l 1,233,-1
 201 1001 l 1,234,-1
 201 800 l 1,235,-1
 0 800 l 1,232,-1
0 1001 m 1,236,-1
 0 1202 l 1,237,-1
 201 1202 l 1,238,-1
 201 1001 l 1,239,-1
 0 1001 l 1,236,-1
0 1202 m 1,240,-1
 0 1398 l 1,241,-1
 201 1398 l 1,242,-1
 201 1202 l 1,243,-1
 0 1202 l 1,240,-1
EndSplineSet
Validated: 5
EndChar

StartChar: C
Encoding: 67 67 38
Width: 1801
Flags: W
LayerCount: 2
Fore
SplineSet
1801 -198 m 1,0,-1
 1801 -2 l 1,1,-1
 1998 -2 l 1,2,-1
 1998 -198 l 1,3,-1
 1801 -198 l 1,0,-1
1801 -2 m 1,4,-1
 1801 199 l 1,5,-1
 1998 199 l 1,6,-1
 1998 -2 l 1,7,-1
 1801 -2 l 1,4,-1
1801 199 m 1,8,-1
 1801 399 l 1,9,-1
 1998 399 l 1,10,-1
 1998 199 l 1,11,-1
 1801 199 l 1,8,-1
1801 600 m 1,12,-1
 1801 800 l 1,13,-1
 1998 800 l 1,14,-1
 1998 600 l 1,15,-1
 1801 600 l 1,12,-1
1801 800 m 1,16,-1
 1801 1001 l 1,17,-1
 1998 1001 l 1,18,-1
 1998 800 l 1,19,-1
 1801 800 l 1,16,-1
1801 1001 m 1,20,-1
 1801 1202 l 1,21,-1
 1998 1202 l 1,22,-1
 1998 1001 l 1,23,-1
 1801 1001 l 1,20,-1
1801 -198 m 1,24,-1
 1801 -396 l 1,25,-1
 1601 -396 l 1,26,-1
 1601 -198 l 1,27,-1
 1801 -198 l 1,24,-1
1601 -198 m 1,28,-1
 1601 -2 l 1,29,-1
 1801 -2 l 1,30,-1
 1801 -198 l 1,31,-1
 1601 -198 l 1,28,-1
1601 -2 m 1,32,-1
 1601 199 l 1,33,-1
 1801 199 l 1,34,-1
 1801 -2 l 1,35,-1
 1601 -2 l 1,32,-1
1601 199 m 1,36,-1
 1601 399 l 1,37,-1
 1801 399 l 1,38,-1
 1801 199 l 1,39,-1
 1601 199 l 1,36,-1
1601 399 m 1,40,-1
 1601 600 l 1,41,-1
 1801 600 l 1,42,-1
 1801 399 l 1,43,-1
 1601 399 l 1,40,-1
1601 600 m 1,44,-1
 1601 800 l 1,45,-1
 1801 800 l 1,46,-1
 1801 600 l 1,47,-1
 1601 600 l 1,44,-1
1601 800 m 1,48,-1
 1601 1001 l 1,49,-1
 1801 1001 l 1,50,-1
 1801 800 l 1,51,-1
 1601 800 l 1,48,-1
1601 1001 m 1,52,-1
 1601 1202 l 1,53,-1
 1801 1202 l 1,54,-1
 1801 1001 l 1,55,-1
 1601 1001 l 1,52,-1
1601 1202 m 1,56,-1
 1601 1398 l 1,57,-1
 1801 1398 l 1,58,-1
 1801 1202 l 1,59,-1
 1601 1202 l 1,56,-1
1400 1398 m 1,60,-1
 1400 1599 l 1,61,-1
 1601 1599 l 1,62,-1
 1601 1398 l 1,63,-1
 1400 1398 l 1,60,-1
1601 -198 m 1,64,-1
 1601 -396 l 1,65,-1
 1400 -396 l 1,66,-1
 1400 -198 l 1,67,-1
 1601 -198 l 1,64,-1
1400 -198 m 1,68,-1
 1400 -2 l 1,69,-1
 1601 -2 l 1,70,-1
 1601 -198 l 1,71,-1
 1400 -198 l 1,68,-1
1400 -2 m 1,72,-1
 1400 199 l 1,73,-1
 1601 199 l 1,74,-1
 1601 -2 l 1,75,-1
 1400 -2 l 1,72,-1
1400 399 m 1,76,-1
 1400 600 l 1,77,-1
 1601 600 l 1,78,-1
 1601 399 l 1,79,-1
 1400 399 l 1,76,-1
1400 600 m 1,80,-1
 1400 800 l 1,81,-1
 1601 800 l 1,82,-1
 1601 600 l 1,83,-1
 1400 600 l 1,80,-1
1400 800 m 1,84,-1
 1400 1001 l 1,85,-1
 1601 1001 l 1,86,-1
 1601 800 l 1,87,-1
 1400 800 l 1,84,-1
1400 1202 m 1,88,-1
 1400 1398 l 1,89,-1
 1601 1398 l 1,90,-1
 1601 1202 l 1,91,-1
 1400 1202 l 1,88,-1
1200 1398 m 1,92,-1
 1200 1599 l 1,93,-1
 1400 1599 l 1,94,-1
 1400 1398 l 1,95,-1
 1200 1398 l 1,92,-1
1400 -198 m 1,96,-1
 1400 -396 l 1,97,-1
 1200 -396 l 1,98,-1
 1200 -198 l 1,99,-1
 1400 -198 l 1,96,-1
1200 -198 m 1,100,-1
 1200 -2 l 1,101,-1
 1400 -2 l 1,102,-1
 1400 -198 l 1,103,-1
 1200 -198 l 1,100,-1
1200 399 m 1,104,-1
 1200 600 l 1,105,-1
 1400 600 l 1,106,-1
 1400 399 l 1,107,-1
 1200 399 l 1,104,-1
1200 600 m 1,108,-1
 1200 800 l 1,109,-1
 1400 800 l 1,110,-1
 1400 600 l 1,111,-1
 1200 600 l 1,108,-1
1200 800 m 1,112,-1
 1200 1001 l 1,113,-1
 1400 1001 l 1,114,-1
 1400 800 l 1,115,-1
 1200 800 l 1,112,-1
999 1398 m 1,116,-1
 999 1599 l 1,117,-1
 1200 1599 l 1,118,-1
 1200 1398 l 1,119,-1
 999 1398 l 1,116,-1
1200 -198 m 1,120,-1
 1200 -396 l 1,121,-1
 999 -396 l 1,122,-1
 999 -198 l 1,123,-1
 1200 -198 l 1,120,-1
999 -198 m 1,124,-1
 999 -2 l 1,125,-1
 1200 -2 l 1,126,-1
 1200 -198 l 1,127,-1
 999 -198 l 1,124,-1
999 199 m 1,128,-1
 999 399 l 1,129,-1
 1200 399 l 1,130,-1
 1200 199 l 1,131,-1
 999 199 l 1,128,-1
999 399 m 1,132,-1
 999 600 l 1,133,-1
 1200 600 l 1,134,-1
 1200 399 l 1,135,-1
 999 399 l 1,132,-1
999 600 m 1,136,-1
 999 800 l 1,137,-1
 1200 800 l 1,138,-1
 1200 600 l 1,139,-1
 999 600 l 1,136,-1
999 800 m 1,140,-1
 999 1001 l 1,141,-1
 1200 1001 l 1,142,-1
 1200 800 l 1,143,-1
 999 800 l 1,140,-1
999 1001 m 1,144,-1
 999 1202 l 1,145,-1
 1200 1202 l 1,146,-1
 1200 1001 l 1,147,-1
 999 1001 l 1,144,-1
798 1398 m 1,148,-1
 798 1599 l 1,149,-1
 999 1599 l 1,150,-1
 999 1398 l 1,151,-1
 798 1398 l 1,148,-1
999 -198 m 1,152,-1
 999 -396 l 1,153,-1
 798 -396 l 1,154,-1
 798 -198 l 1,155,-1
 999 -198 l 1,152,-1
798 -198 m 1,156,-1
 798 -2 l 1,157,-1
 999 -2 l 1,158,-1
 999 -198 l 1,159,-1
 798 -198 l 1,156,-1
798 199 m 1,160,-1
 798 399 l 1,161,-1
 999 399 l 1,162,-1
 999 199 l 1,163,-1
 798 199 l 1,160,-1
798 399 m 1,164,-1
 798 600 l 1,165,-1
 999 600 l 1,166,-1
 999 399 l 1,167,-1
 798 399 l 1,164,-1
798 600 m 1,168,-1
 798 800 l 1,169,-1
 999 800 l 1,170,-1
 999 600 l 1,171,-1
 798 600 l 1,168,-1
798 800 m 1,172,-1
 798 1001 l 1,173,-1
 999 1001 l 1,174,-1
 999 800 l 1,175,-1
 798 800 l 1,172,-1
798 1001 m 1,176,-1
 798 1202 l 1,177,-1
 999 1202 l 1,178,-1
 999 1001 l 1,179,-1
 798 1001 l 1,176,-1
602 1398 m 1,180,-1
 602 1599 l 1,181,-1
 798 1599 l 1,182,-1
 798 1398 l 1,183,-1
 602 1398 l 1,180,-1
798 -198 m 1,184,-1
 798 -396 l 1,185,-1
 602 -396 l 1,186,-1
 602 -198 l 1,187,-1
 798 -198 l 1,184,-1
602 -198 m 1,188,-1
 602 -2 l 1,189,-1
 798 -2 l 1,190,-1
 798 -198 l 1,191,-1
 602 -198 l 1,188,-1
602 199 m 1,192,-1
 602 399 l 1,193,-1
 798 399 l 1,194,-1
 798 199 l 1,195,-1
 602 199 l 1,192,-1
602 399 m 1,196,-1
 602 600 l 1,197,-1
 798 600 l 1,198,-1
 798 399 l 1,199,-1
 602 399 l 1,196,-1
602 600 m 1,200,-1
 602 800 l 1,201,-1
 798 800 l 1,202,-1
 798 600 l 1,203,-1
 602 600 l 1,200,-1
602 800 m 1,204,-1
 602 1001 l 1,205,-1
 798 1001 l 1,206,-1
 798 800 l 1,207,-1
 602 800 l 1,204,-1
602 1001 m 1,208,-1
 602 1202 l 1,209,-1
 798 1202 l 1,210,-1
 798 1001 l 1,211,-1
 602 1001 l 1,208,-1
401 1398 m 1,212,-1
 401 1599 l 1,213,-1
 602 1599 l 1,214,-1
 602 1398 l 1,215,-1
 401 1398 l 1,212,-1
602 -198 m 1,216,-1
 602 -396 l 1,217,-1
 401 -396 l 1,218,-1
 401 -198 l 1,219,-1
 602 -198 l 1,216,-1
401 -198 m 1,220,-1
 401 -2 l 1,221,-1
 602 -2 l 1,222,-1
 602 -198 l 1,223,-1
 401 -198 l 1,220,-1
201 1398 m 1,224,-1
 201 1599 l 1,225,-1
 401 1599 l 1,226,-1
 401 1398 l 1,227,-1
 201 1398 l 1,224,-1
201 -198 m 1,228,-1
 201 -2 l 1,229,-1
 401 -2 l 1,230,-1
 401 -198 l 1,231,-1
 201 -198 l 1,228,-1
201 -2 m 1,232,-1
 201 199 l 1,233,-1
 401 199 l 1,234,-1
 401 -2 l 1,235,-1
 201 -2 l 1,232,-1
201 1202 m 1,236,-1
 201 1398 l 1,237,-1
 401 1398 l 1,238,-1
 401 1202 l 1,239,-1
 201 1202 l 1,236,-1
0 -2 m 1,240,-1
 0 199 l 1,241,-1
 201 199 l 1,242,-1
 201 -2 l 1,243,-1
 0 -2 l 1,240,-1
0 199 m 1,244,-1
 0 399 l 1,245,-1
 201 399 l 1,246,-1
 201 199 l 1,247,-1
 0 199 l 1,244,-1
0 399 m 1,248,-1
 0 600 l 1,249,-1
 201 600 l 1,250,-1
 201 399 l 1,251,-1
 0 399 l 1,248,-1
0 600 m 1,252,-1
 0 800 l 1,253,-1
 201 800 l 1,254,-1
 201 600 l 1,255,-1
 0 600 l 1,252,-1
0 800 m 1,256,-1
 0 1001 l 1,257,-1
 201 1001 l 1,258,-1
 201 800 l 1,259,-1
 0 800 l 1,256,-1
0 1001 m 1,260,-1
 0 1202 l 1,261,-1
 201 1202 l 1,262,-1
 201 1001 l 1,263,-1
 0 1001 l 1,260,-1
0 1202 m 1,264,-1
 0 1398 l 1,265,-1
 201 1398 l 1,266,-1
 201 1202 l 1,267,-1
 0 1202 l 1,264,-1
EndSplineSet
Validated: 5
EndChar

StartChar: D
Encoding: 68 68 39
Width: 1801
Flags: W
LayerCount: 2
Fore
SplineSet
1801 -2 m 1,0,-1
 1801 199 l 1,1,-1
 1998 199 l 1,2,-1
 1998 -2 l 1,3,-1
 1801 -2 l 1,0,-1
1801 199 m 1,4,-1
 1801 399 l 1,5,-1
 1998 399 l 1,6,-1
 1998 199 l 1,7,-1
 1801 199 l 1,4,-1
1801 399 m 1,8,-1
 1801 600 l 1,9,-1
 1998 600 l 1,10,-1
 1998 399 l 1,11,-1
 1801 399 l 1,8,-1
1801 600 m 1,12,-1
 1801 800 l 1,13,-1
 1998 800 l 1,14,-1
 1998 600 l 1,15,-1
 1801 600 l 1,12,-1
1801 800 m 1,16,-1
 1801 1001 l 1,17,-1
 1998 1001 l 1,18,-1
 1998 800 l 1,19,-1
 1801 800 l 1,16,-1
1601 -198 m 1,20,-1
 1601 -2 l 1,21,-1
 1801 -2 l 1,22,-1
 1801 -198 l 1,23,-1
 1601 -198 l 1,20,-1
1601 -2 m 1,24,-1
 1601 199 l 1,25,-1
 1801 199 l 1,26,-1
 1801 -2 l 1,27,-1
 1601 -2 l 1,24,-1
1601 199 m 1,28,-1
 1601 399 l 1,29,-1
 1801 399 l 1,30,-1
 1801 199 l 1,31,-1
 1601 199 l 1,28,-1
1601 399 m 1,32,-1
 1601 600 l 1,33,-1
 1801 600 l 1,34,-1
 1801 399 l 1,35,-1
 1601 399 l 1,32,-1
1601 600 m 1,36,-1
 1601 800 l 1,37,-1
 1801 800 l 1,38,-1
 1801 600 l 1,39,-1
 1601 600 l 1,36,-1
1601 800 m 1,40,-1
 1601 1001 l 1,41,-1
 1801 1001 l 1,42,-1
 1801 800 l 1,43,-1
 1601 800 l 1,40,-1
1601 1001 m 1,44,-1
 1601 1202 l 1,45,-1
 1801 1202 l 1,46,-1
 1801 1001 l 1,47,-1
 1601 1001 l 1,44,-1
1601 -198 m 1,48,-1
 1601 -396 l 1,49,-1
 1400 -396 l 1,50,-1
 1400 -198 l 1,51,-1
 1601 -198 l 1,48,-1
1400 -198 m 1,52,-1
 1400 -2 l 1,53,-1
 1601 -2 l 1,54,-1
 1601 -198 l 1,55,-1
 1400 -198 l 1,52,-1
1400 -2 m 1,56,-1
 1400 199 l 1,57,-1
 1601 199 l 1,58,-1
 1601 -2 l 1,59,-1
 1400 -2 l 1,56,-1
1400 199 m 1,60,-1
 1400 399 l 1,61,-1
 1601 399 l 1,62,-1
 1601 199 l 1,63,-1
 1400 199 l 1,60,-1
1400 1001 m 1,64,-1
 1400 1202 l 1,65,-1
 1601 1202 l 1,66,-1
 1601 1001 l 1,67,-1
 1400 1001 l 1,64,-1
1400 1202 m 1,68,-1
 1400 1398 l 1,69,-1
 1601 1398 l 1,70,-1
 1601 1202 l 1,71,-1
 1400 1202 l 1,68,-1
1200 1398 m 1,72,-1
 1200 1599 l 1,73,-1
 1400 1599 l 1,74,-1
 1400 1398 l 1,75,-1
 1200 1398 l 1,72,-1
1400 -198 m 1,76,-1
 1400 -396 l 1,77,-1
 1200 -396 l 1,78,-1
 1200 -198 l 1,79,-1
 1400 -198 l 1,76,-1
1200 -198 m 1,80,-1
 1200 -2 l 1,81,-1
 1400 -2 l 1,82,-1
 1400 -198 l 1,83,-1
 1200 -198 l 1,80,-1
1200 -2 m 1,84,-1
 1200 199 l 1,85,-1
 1400 199 l 1,86,-1
 1400 -2 l 1,87,-1
 1200 -2 l 1,84,-1
1200 1202 m 1,88,-1
 1200 1398 l 1,89,-1
 1400 1398 l 1,90,-1
 1400 1202 l 1,91,-1
 1200 1202 l 1,88,-1
999 1398 m 1,92,-1
 999 1599 l 1,93,-1
 1200 1599 l 1,94,-1
 1200 1398 l 1,95,-1
 999 1398 l 1,92,-1
1200 -198 m 1,96,-1
 1200 -396 l 1,97,-1
 999 -396 l 1,98,-1
 999 -198 l 1,99,-1
 1200 -198 l 1,96,-1
999 -198 m 1,100,-1
 999 -2 l 1,101,-1
 1200 -2 l 1,102,-1
 1200 -198 l 1,103,-1
 999 -198 l 1,100,-1
999 399 m 1,104,-1
 999 600 l 1,105,-1
 1200 600 l 1,106,-1
 1200 399 l 1,107,-1
 999 399 l 1,104,-1
999 600 m 1,108,-1
 999 800 l 1,109,-1
 1200 800 l 1,110,-1
 1200 600 l 1,111,-1
 999 600 l 1,108,-1
999 800 m 1,112,-1
 999 1001 l 1,113,-1
 1200 1001 l 1,114,-1
 1200 800 l 1,115,-1
 999 800 l 1,112,-1
798 1398 m 1,116,-1
 798 1599 l 1,117,-1
 999 1599 l 1,118,-1
 999 1398 l 1,119,-1
 798 1398 l 1,116,-1
999 -198 m 1,120,-1
 999 -396 l 1,121,-1
 798 -396 l 1,122,-1
 798 -198 l 1,123,-1
 999 -198 l 1,120,-1
798 -198 m 1,124,-1
 798 -2 l 1,125,-1
 999 -2 l 1,126,-1
 999 -198 l 1,127,-1
 798 -198 l 1,124,-1
798 199 m 1,128,-1
 798 399 l 1,129,-1
 999 399 l 1,130,-1
 999 199 l 1,131,-1
 798 199 l 1,128,-1
798 399 m 1,132,-1
 798 600 l 1,133,-1
 999 600 l 1,134,-1
 999 399 l 1,135,-1
 798 399 l 1,132,-1
798 600 m 1,136,-1
 798 800 l 1,137,-1
 999 800 l 1,138,-1
 999 600 l 1,139,-1
 798 600 l 1,136,-1
798 800 m 1,140,-1
 798 1001 l 1,141,-1
 999 1001 l 1,142,-1
 999 800 l 1,143,-1
 798 800 l 1,140,-1
798 1001 m 1,144,-1
 798 1202 l 1,145,-1
 999 1202 l 1,146,-1
 999 1001 l 1,147,-1
 798 1001 l 1,144,-1
602 1398 m 1,148,-1
 602 1599 l 1,149,-1
 798 1599 l 1,150,-1
 798 1398 l 1,151,-1
 602 1398 l 1,148,-1
798 -198 m 1,152,-1
 798 -396 l 1,153,-1
 602 -396 l 1,154,-1
 602 -198 l 1,155,-1
 798 -198 l 1,152,-1
602 -198 m 1,156,-1
 602 -2 l 1,157,-1
 798 -2 l 1,158,-1
 798 -198 l 1,159,-1
 602 -198 l 1,156,-1
602 199 m 1,160,-1
 602 399 l 1,161,-1
 798 399 l 1,162,-1
 798 199 l 1,163,-1
 602 199 l 1,160,-1
602 399 m 1,164,-1
 602 600 l 1,165,-1
 798 600 l 1,166,-1
 798 399 l 1,167,-1
 602 399 l 1,164,-1
602 600 m 1,168,-1
 602 800 l 1,169,-1
 798 800 l 1,170,-1
 798 600 l 1,171,-1
 602 600 l 1,168,-1
602 800 m 1,172,-1
 602 1001 l 1,173,-1
 798 1001 l 1,174,-1
 798 800 l 1,175,-1
 602 800 l 1,172,-1
602 1001 m 1,176,-1
 602 1202 l 1,177,-1
 798 1202 l 1,178,-1
 798 1001 l 1,179,-1
 602 1001 l 1,176,-1
401 1398 m 1,180,-1
 401 1599 l 1,181,-1
 602 1599 l 1,182,-1
 602 1398 l 1,183,-1
 401 1398 l 1,180,-1
602 -198 m 1,184,-1
 602 -396 l 1,185,-1
 401 -396 l 1,186,-1
 401 -198 l 1,187,-1
 602 -198 l 1,184,-1
401 -198 m 1,188,-1
 401 -2 l 1,189,-1
 602 -2 l 1,190,-1
 602 -198 l 1,191,-1
 401 -198 l 1,188,-1
201 1398 m 1,192,-1
 201 1599 l 1,193,-1
 401 1599 l 1,194,-1
 401 1398 l 1,195,-1
 201 1398 l 1,192,-1
401 -198 m 1,196,-1
 401 -396 l 1,197,-1
 201 -396 l 1,198,-1
 201 -198 l 1,199,-1
 401 -198 l 1,196,-1
201 -198 m 1,200,-1
 201 -2 l 1,201,-1
 401 -2 l 1,202,-1
 401 -198 l 1,203,-1
 201 -198 l 1,200,-1
0 1398 m 1,204,-1
 0 1599 l 1,205,-1
 201 1599 l 1,206,-1
 201 1398 l 1,207,-1
 0 1398 l 1,204,-1
0 -198 m 1,208,-1
 0 -2 l 1,209,-1
 201 -2 l 1,210,-1
 201 -198 l 1,211,-1
 0 -198 l 1,208,-1
0 -2 m 1,212,-1
 0 199 l 1,213,-1
 201 199 l 1,214,-1
 201 -2 l 1,215,-1
 0 -2 l 1,212,-1
0 199 m 1,216,-1
 0 399 l 1,217,-1
 201 399 l 1,218,-1
 201 199 l 1,219,-1
 0 199 l 1,216,-1
0 399 m 1,220,-1
 0 600 l 1,221,-1
 201 600 l 1,222,-1
 201 399 l 1,223,-1
 0 399 l 1,220,-1
0 600 m 1,224,-1
 0 800 l 1,225,-1
 201 800 l 1,226,-1
 201 600 l 1,227,-1
 0 600 l 1,224,-1
0 800 m 1,228,-1
 0 1001 l 1,229,-1
 201 1001 l 1,230,-1
 201 800 l 1,231,-1
 0 800 l 1,228,-1
0 1001 m 1,232,-1
 0 1202 l 1,233,-1
 201 1202 l 1,234,-1
 201 1001 l 1,235,-1
 0 1001 l 1,232,-1
0 1202 m 1,236,-1
 0 1398 l 1,237,-1
 201 1398 l 1,238,-1
 201 1202 l 1,239,-1
 0 1202 l 1,236,-1
EndSplineSet
Validated: 5
EndChar

StartChar: E
Encoding: 69 69 40
Width: 1801
Flags: W
LayerCount: 2
Fore
SplineSet
1998 -198 m 1,0,-1
 1998 -396 l 1,1,-1
 1801 -396 l 1,2,-1
 1801 -198 l 1,3,-1
 1998 -198 l 1,0,-1
1801 -198 m 1,4,-1
 1801 -2 l 1,5,-1
 1998 -2 l 1,6,-1
 1998 -198 l 1,7,-1
 1801 -198 l 1,4,-1
1801 -2 m 1,8,-1
 1801 199 l 1,9,-1
 1998 199 l 1,10,-1
 1998 -2 l 1,11,-1
 1801 -2 l 1,8,-1
1801 800 m 1,12,-1
 1801 1001 l 1,13,-1
 1998 1001 l 1,14,-1
 1998 800 l 1,15,-1
 1801 800 l 1,12,-1
1801 1001 m 1,16,-1
 1801 1202 l 1,17,-1
 1998 1202 l 1,18,-1
 1998 1001 l 1,19,-1
 1801 1001 l 1,16,-1
1801 1202 m 1,20,-1
 1801 1398 l 1,21,-1
 1998 1398 l 1,22,-1
 1998 1202 l 1,23,-1
 1801 1202 l 1,20,-1
1601 1398 m 1,24,-1
 1601 1599 l 1,25,-1
 1801 1599 l 1,26,-1
 1801 1398 l 1,27,-1
 1601 1398 l 1,24,-1
1801 -198 m 1,28,-1
 1801 -396 l 1,29,-1
 1601 -396 l 1,30,-1
 1601 -198 l 1,31,-1
 1801 -198 l 1,28,-1
1601 -198 m 1,32,-1
 1601 -2 l 1,33,-1
 1801 -2 l 1,34,-1
 1801 -198 l 1,35,-1
 1601 -198 l 1,32,-1
1601 -2 m 1,36,-1
 1601 199 l 1,37,-1
 1801 199 l 1,38,-1
 1801 -2 l 1,39,-1
 1601 -2 l 1,36,-1
1601 199 m 1,40,-1
 1601 399 l 1,41,-1
 1801 399 l 1,42,-1
 1801 199 l 1,43,-1
 1601 199 l 1,40,-1
1601 399 m 1,44,-1
 1601 600 l 1,45,-1
 1801 600 l 1,46,-1
 1801 399 l 1,47,-1
 1601 399 l 1,44,-1
1601 600 m 1,48,-1
 1601 800 l 1,49,-1
 1801 800 l 1,50,-1
 1801 600 l 1,51,-1
 1601 600 l 1,48,-1
1601 800 m 1,52,-1
 1601 1001 l 1,53,-1
 1801 1001 l 1,54,-1
 1801 800 l 1,55,-1
 1601 800 l 1,52,-1
1601 1001 m 1,56,-1
 1601 1202 l 1,57,-1
 1801 1202 l 1,58,-1
 1801 1001 l 1,59,-1
 1601 1001 l 1,56,-1
1601 1202 m 1,60,-1
 1601 1398 l 1,61,-1
 1801 1398 l 1,62,-1
 1801 1202 l 1,63,-1
 1601 1202 l 1,60,-1
1400 1398 m 1,64,-1
 1400 1599 l 1,65,-1
 1601 1599 l 1,66,-1
 1601 1398 l 1,67,-1
 1400 1398 l 1,64,-1
1601 -198 m 1,68,-1
 1601 -396 l 1,69,-1
 1400 -396 l 1,70,-1
 1400 -198 l 1,71,-1
 1601 -198 l 1,68,-1
1400 -198 m 1,72,-1
 1400 -2 l 1,73,-1
 1601 -2 l 1,74,-1
 1601 -198 l 1,75,-1
 1400 -198 l 1,72,-1
1400 199 m 1,76,-1
 1400 399 l 1,77,-1
 1601 399 l 1,78,-1
 1601 199 l 1,79,-1
 1400 199 l 1,76,-1
1400 399 m 1,80,-1
 1400 600 l 1,81,-1
 1601 600 l 1,82,-1
 1601 399 l 1,83,-1
 1400 399 l 1,80,-1
1400 600 m 1,84,-1
 1400 800 l 1,85,-1
 1601 800 l 1,86,-1
 1601 600 l 1,87,-1
 1400 600 l 1,84,-1
1400 800 m 1,88,-1
 1400 1001 l 1,89,-1
 1601 1001 l 1,90,-1
 1601 800 l 1,91,-1
 1400 800 l 1,88,-1
1400 1001 m 1,92,-1
 1400 1202 l 1,93,-1
 1601 1202 l 1,94,-1
 1601 1001 l 1,95,-1
 1400 1001 l 1,92,-1
1200 1398 m 1,96,-1
 1200 1599 l 1,97,-1
 1400 1599 l 1,98,-1
 1400 1398 l 1,99,-1
 1200 1398 l 1,96,-1
1400 -198 m 1,100,-1
 1400 -396 l 1,101,-1
 1200 -396 l 1,102,-1
 1200 -198 l 1,103,-1
 1400 -198 l 1,100,-1
1200 -198 m 1,104,-1
 1200 -2 l 1,105,-1
 1400 -2 l 1,106,-1
 1400 -198 l 1,107,-1
 1200 -198 l 1,104,-1
1200 199 m 1,108,-1
 1200 399 l 1,109,-1
 1400 399 l 1,110,-1
 1400 199 l 1,111,-1
 1200 199 l 1,108,-1
1200 399 m 1,112,-1
 1200 600 l 1,113,-1
 1400 600 l 1,114,-1
 1400 399 l 1,115,-1
 1200 399 l 1,112,-1
1200 800 m 1,116,-1
 1200 1001 l 1,117,-1
 1400 1001 l 1,118,-1
 1400 800 l 1,119,-1
 1200 800 l 1,116,-1
1200 1001 m 1,120,-1
 1200 1202 l 1,121,-1
 1400 1202 l 1,122,-1
 1400 1001 l 1,123,-1
 1200 1001 l 1,120,-1
999 1398 m 1,124,-1
 999 1599 l 1,125,-1
 1200 1599 l 1,126,-1
 1200 1398 l 1,127,-1
 999 1398 l 1,124,-1
1200 -198 m 1,128,-1
 1200 -396 l 1,129,-1
 999 -396 l 1,130,-1
 999 -198 l 1,131,-1
 1200 -198 l 1,128,-1
999 -198 m 1,132,-1
 999 -2 l 1,133,-1
 1200 -2 l 1,134,-1
 1200 -198 l 1,135,-1
 999 -198 l 1,132,-1
999 199 m 1,136,-1
 999 399 l 1,137,-1
 1200 399 l 1,138,-1
 1200 199 l 1,139,-1
 999 199 l 1,136,-1
999 399 m 1,140,-1
 999 600 l 1,141,-1
 1200 600 l 1,142,-1
 1200 399 l 1,143,-1
 999 399 l 1,140,-1
999 800 m 1,144,-1
 999 1001 l 1,145,-1
 1200 1001 l 1,146,-1
 1200 800 l 1,147,-1
 999 800 l 1,144,-1
999 1001 m 1,148,-1
 999 1202 l 1,149,-1
 1200 1202 l 1,150,-1
 1200 1001 l 1,151,-1
 999 1001 l 1,148,-1
798 1398 m 1,152,-1
 798 1599 l 1,153,-1
 999 1599 l 1,154,-1
 999 1398 l 1,155,-1
 798 1398 l 1,152,-1
999 -198 m 1,156,-1
 999 -396 l 1,157,-1
 798 -396 l 1,158,-1
 798 -198 l 1,159,-1
 999 -198 l 1,156,-1
798 -198 m 1,160,-1
 798 -2 l 1,161,-1
 999 -2 l 1,162,-1
 999 -198 l 1,163,-1
 798 -198 l 1,160,-1
798 199 m 1,164,-1
 798 399 l 1,165,-1
 999 399 l 1,166,-1
 999 199 l 1,167,-1
 798 199 l 1,164,-1
798 399 m 1,168,-1
 798 600 l 1,169,-1
 999 600 l 1,170,-1
 999 399 l 1,171,-1
 798 399 l 1,168,-1
798 800 m 1,172,-1
 798 1001 l 1,173,-1
 999 1001 l 1,174,-1
 999 800 l 1,175,-1
 798 800 l 1,172,-1
798 1001 m 1,176,-1
 798 1202 l 1,177,-1
 999 1202 l 1,178,-1
 999 1001 l 1,179,-1
 798 1001 l 1,176,-1
602 1398 m 1,180,-1
 602 1599 l 1,181,-1
 798 1599 l 1,182,-1
 798 1398 l 1,183,-1
 602 1398 l 1,180,-1
798 -198 m 1,184,-1
 798 -396 l 1,185,-1
 602 -396 l 1,186,-1
 602 -198 l 1,187,-1
 798 -198 l 1,184,-1
602 -198 m 1,188,-1
 602 -2 l 1,189,-1
 798 -2 l 1,190,-1
 798 -198 l 1,191,-1
 602 -198 l 1,188,-1
602 199 m 1,192,-1
 602 399 l 1,193,-1
 798 399 l 1,194,-1
 798 199 l 1,195,-1
 602 199 l 1,192,-1
602 399 m 1,196,-1
 602 600 l 1,197,-1
 798 600 l 1,198,-1
 798 399 l 1,199,-1
 602 399 l 1,196,-1
602 800 m 1,200,-1
 602 1001 l 1,201,-1
 798 1001 l 1,202,-1
 798 800 l 1,203,-1
 602 800 l 1,200,-1
602 1001 m 1,204,-1
 602 1202 l 1,205,-1
 798 1202 l 1,206,-1
 798 1001 l 1,207,-1
 602 1001 l 1,204,-1
401 1398 m 1,208,-1
 401 1599 l 1,209,-1
 602 1599 l 1,210,-1
 602 1398 l 1,211,-1
 401 1398 l 1,208,-1
602 -198 m 1,212,-1
 602 -396 l 1,213,-1
 401 -396 l 1,214,-1
 401 -198 l 1,215,-1
 602 -198 l 1,212,-1
401 -198 m 1,216,-1
 401 -2 l 1,217,-1
 602 -2 l 1,218,-1
 602 -198 l 1,219,-1
 401 -198 l 1,216,-1
201 1398 m 1,220,-1
 201 1599 l 1,221,-1
 401 1599 l 1,222,-1
 401 1398 l 1,223,-1
 201 1398 l 1,220,-1
401 -198 m 1,224,-1
 401 -396 l 1,225,-1
 201 -396 l 1,226,-1
 201 -198 l 1,227,-1
 401 -198 l 1,224,-1
201 -198 m 1,228,-1
 201 -2 l 1,229,-1
 401 -2 l 1,230,-1
 401 -198 l 1,231,-1
 201 -198 l 1,228,-1
0 1398 m 1,232,-1
 0 1599 l 1,233,-1
 201 1599 l 1,234,-1
 201 1398 l 1,235,-1
 0 1398 l 1,232,-1
0 -198 m 1,236,-1
 0 -2 l 1,237,-1
 201 -2 l 1,238,-1
 201 -198 l 1,239,-1
 0 -198 l 1,236,-1
0 -2 m 1,240,-1
 0 199 l 1,241,-1
 201 199 l 1,242,-1
 201 -2 l 1,243,-1
 0 -2 l 1,240,-1
0 199 m 1,244,-1
 0 399 l 1,245,-1
 201 399 l 1,246,-1
 201 199 l 1,247,-1
 0 199 l 1,244,-1
0 399 m 1,248,-1
 0 600 l 1,249,-1
 201 600 l 1,250,-1
 201 399 l 1,251,-1
 0 399 l 1,248,-1
0 600 m 1,252,-1
 0 800 l 1,253,-1
 201 800 l 1,254,-1
 201 600 l 1,255,-1
 0 600 l 1,252,-1
0 800 m 1,256,-1
 0 1001 l 1,257,-1
 201 1001 l 1,258,-1
 201 800 l 1,259,-1
 0 800 l 1,256,-1
0 1001 m 1,260,-1
 0 1202 l 1,261,-1
 201 1202 l 1,262,-1
 201 1001 l 1,263,-1
 0 1001 l 1,260,-1
0 1202 m 1,264,-1
 0 1398 l 1,265,-1
 201 1398 l 1,266,-1
 201 1202 l 1,267,-1
 0 1202 l 1,264,-1
EndSplineSet
Validated: 5
EndChar

StartChar: F
Encoding: 70 70 41
Width: 1801
Flags: W
LayerCount: 2
Fore
SplineSet
1801 800 m 1,0,-1
 1801 1001 l 1,1,-1
 1998 1001 l 1,2,-1
 1998 800 l 1,3,-1
 1801 800 l 1,0,-1
1801 1001 m 1,4,-1
 1801 1202 l 1,5,-1
 1998 1202 l 1,6,-1
 1998 1001 l 1,7,-1
 1801 1001 l 1,4,-1
1801 1202 m 1,8,-1
 1801 1398 l 1,9,-1
 1998 1398 l 1,10,-1
 1998 1202 l 1,11,-1
 1801 1202 l 1,8,-1
1601 1398 m 1,12,-1
 1601 1599 l 1,13,-1
 1801 1599 l 1,14,-1
 1801 1398 l 1,15,-1
 1601 1398 l 1,12,-1
1601 199 m 1,16,-1
 1601 399 l 1,17,-1
 1801 399 l 1,18,-1
 1801 199 l 1,19,-1
 1601 199 l 1,16,-1
1601 399 m 1,20,-1
 1601 600 l 1,21,-1
 1801 600 l 1,22,-1
 1801 399 l 1,23,-1
 1601 399 l 1,20,-1
1601 600 m 1,24,-1
 1601 800 l 1,25,-1
 1801 800 l 1,26,-1
 1801 600 l 1,27,-1
 1601 600 l 1,24,-1
1601 800 m 1,28,-1
 1601 1001 l 1,29,-1
 1801 1001 l 1,30,-1
 1801 800 l 1,31,-1
 1601 800 l 1,28,-1
1601 1001 m 1,32,-1
 1601 1202 l 1,33,-1
 1801 1202 l 1,34,-1
 1801 1001 l 1,35,-1
 1601 1001 l 1,32,-1
1601 1202 m 1,36,-1
 1601 1398 l 1,37,-1
 1801 1398 l 1,38,-1
 1801 1202 l 1,39,-1
 1601 1202 l 1,36,-1
1400 1398 m 1,40,-1
 1400 1599 l 1,41,-1
 1601 1599 l 1,42,-1
 1601 1398 l 1,43,-1
 1400 1398 l 1,40,-1
1400 199 m 1,44,-1
 1400 399 l 1,45,-1
 1601 399 l 1,46,-1
 1601 199 l 1,47,-1
 1400 199 l 1,44,-1
1400 399 m 1,48,-1
 1400 600 l 1,49,-1
 1601 600 l 1,50,-1
 1601 399 l 1,51,-1
 1400 399 l 1,48,-1
1400 600 m 1,52,-1
 1400 800 l 1,53,-1
 1601 800 l 1,54,-1
 1601 600 l 1,55,-1
 1400 600 l 1,52,-1
1400 800 m 1,56,-1
 1400 1001 l 1,57,-1
 1601 1001 l 1,58,-1
 1601 800 l 1,59,-1
 1400 800 l 1,56,-1
1400 1001 m 1,60,-1
 1400 1202 l 1,61,-1
 1601 1202 l 1,62,-1
 1601 1001 l 1,63,-1
 1400 1001 l 1,60,-1
1200 1398 m 1,64,-1
 1200 1599 l 1,65,-1
 1400 1599 l 1,66,-1
 1400 1398 l 1,67,-1
 1200 1398 l 1,64,-1
1200 199 m 1,68,-1
 1200 399 l 1,69,-1
 1400 399 l 1,70,-1
 1400 199 l 1,71,-1
 1200 199 l 1,68,-1
1200 399 m 1,72,-1
 1200 600 l 1,73,-1
 1400 600 l 1,74,-1
 1400 399 l 1,75,-1
 1200 399 l 1,72,-1
1200 800 m 1,76,-1
 1200 1001 l 1,77,-1
 1400 1001 l 1,78,-1
 1400 800 l 1,79,-1
 1200 800 l 1,76,-1
1200 1001 m 1,80,-1
 1200 1202 l 1,81,-1
 1400 1202 l 1,82,-1
 1400 1001 l 1,83,-1
 1200 1001 l 1,80,-1
999 1398 m 1,84,-1
 999 1599 l 1,85,-1
 1200 1599 l 1,86,-1
 1200 1398 l 1,87,-1
 999 1398 l 1,84,-1
999 199 m 1,88,-1
 999 399 l 1,89,-1
 1200 399 l 1,90,-1
 1200 199 l 1,91,-1
 999 199 l 1,88,-1
999 399 m 1,92,-1
 999 600 l 1,93,-1
 1200 600 l 1,94,-1
 1200 399 l 1,95,-1
 999 399 l 1,92,-1
999 800 m 1,96,-1
 999 1001 l 1,97,-1
 1200 1001 l 1,98,-1
 1200 800 l 1,99,-1
 999 800 l 1,96,-1
999 1001 m 1,100,-1
 999 1202 l 1,101,-1
 1200 1202 l 1,102,-1
 1200 1001 l 1,103,-1
 999 1001 l 1,100,-1
798 1398 m 1,104,-1
 798 1599 l 1,105,-1
 999 1599 l 1,106,-1
 999 1398 l 1,107,-1
 798 1398 l 1,104,-1
999 -198 m 1,108,-1
 999 -396 l 1,109,-1
 798 -396 l 1,110,-1
 798 -198 l 1,111,-1
 999 -198 l 1,108,-1
798 -198 m 1,112,-1
 798 -2 l 1,113,-1
 999 -2 l 1,114,-1
 999 -198 l 1,115,-1
 798 -198 l 1,112,-1
798 -2 m 1,116,-1
 798 199 l 1,117,-1
 999 199 l 1,118,-1
 999 -2 l 1,119,-1
 798 -2 l 1,116,-1
798 199 m 1,120,-1
 798 399 l 1,121,-1
 999 399 l 1,122,-1
 999 199 l 1,123,-1
 798 199 l 1,120,-1
798 399 m 1,124,-1
 798 600 l 1,125,-1
 999 600 l 1,126,-1
 999 399 l 1,127,-1
 798 399 l 1,124,-1
798 800 m 1,128,-1
 798 1001 l 1,129,-1
 999 1001 l 1,130,-1
 999 800 l 1,131,-1
 798 800 l 1,128,-1
798 1001 m 1,132,-1
 798 1202 l 1,133,-1
 999 1202 l 1,134,-1
 999 1001 l 1,135,-1
 798 1001 l 1,132,-1
602 1398 m 1,136,-1
 602 1599 l 1,137,-1
 798 1599 l 1,138,-1
 798 1398 l 1,139,-1
 602 1398 l 1,136,-1
798 -198 m 1,140,-1
 798 -396 l 1,141,-1
 602 -396 l 1,142,-1
 602 -198 l 1,143,-1
 798 -198 l 1,140,-1
602 -198 m 1,144,-1
 602 -2 l 1,145,-1
 798 -2 l 1,146,-1
 798 -198 l 1,147,-1
 602 -198 l 1,144,-1
602 -2 m 1,148,-1
 602 199 l 1,149,-1
 798 199 l 1,150,-1
 798 -2 l 1,151,-1
 602 -2 l 1,148,-1
602 199 m 1,152,-1
 602 399 l 1,153,-1
 798 399 l 1,154,-1
 798 199 l 1,155,-1
 602 199 l 1,152,-1
602 399 m 1,156,-1
 602 600 l 1,157,-1
 798 600 l 1,158,-1
 798 399 l 1,159,-1
 602 399 l 1,156,-1
602 800 m 1,160,-1
 602 1001 l 1,161,-1
 798 1001 l 1,162,-1
 798 800 l 1,163,-1
 602 800 l 1,160,-1
602 1001 m 1,164,-1
 602 1202 l 1,165,-1
 798 1202 l 1,166,-1
 798 1001 l 1,167,-1
 602 1001 l 1,164,-1
401 1398 m 1,168,-1
 401 1599 l 1,169,-1
 602 1599 l 1,170,-1
 602 1398 l 1,171,-1
 401 1398 l 1,168,-1
602 -198 m 1,172,-1
 602 -396 l 1,173,-1
 401 -396 l 1,174,-1
 401 -198 l 1,175,-1
 602 -198 l 1,172,-1
401 -198 m 1,176,-1
 401 -2 l 1,177,-1
 602 -2 l 1,178,-1
 602 -198 l 1,179,-1
 401 -198 l 1,176,-1
201 1398 m 1,180,-1
 201 1599 l 1,181,-1
 401 1599 l 1,182,-1
 401 1398 l 1,183,-1
 201 1398 l 1,180,-1
401 -198 m 1,184,-1
 401 -396 l 1,185,-1
 201 -396 l 1,186,-1
 201 -198 l 1,187,-1
 401 -198 l 1,184,-1
201 -198 m 1,188,-1
 201 -2 l 1,189,-1
 401 -2 l 1,190,-1
 401 -198 l 1,191,-1
 201 -198 l 1,188,-1
0 1398 m 1,192,-1
 0 1599 l 1,193,-1
 201 1599 l 1,194,-1
 201 1398 l 1,195,-1
 0 1398 l 1,192,-1
0 -198 m 1,196,-1
 0 -2 l 1,197,-1
 201 -2 l 1,198,-1
 201 -198 l 1,199,-1
 0 -198 l 1,196,-1
0 -2 m 1,200,-1
 0 199 l 1,201,-1
 201 199 l 1,202,-1
 201 -2 l 1,203,-1
 0 -2 l 1,200,-1
0 199 m 1,204,-1
 0 399 l 1,205,-1
 201 399 l 1,206,-1
 201 199 l 1,207,-1
 0 199 l 1,204,-1
0 399 m 1,208,-1
 0 600 l 1,209,-1
 201 600 l 1,210,-1
 201 399 l 1,211,-1
 0 399 l 1,208,-1
0 600 m 1,212,-1
 0 800 l 1,213,-1
 201 800 l 1,214,-1
 201 600 l 1,215,-1
 0 600 l 1,212,-1
0 800 m 1,216,-1
 0 1001 l 1,217,-1
 201 1001 l 1,218,-1
 201 800 l 1,219,-1
 0 800 l 1,216,-1
0 1001 m 1,220,-1
 0 1202 l 1,221,-1
 201 1202 l 1,222,-1
 201 1001 l 1,223,-1
 0 1001 l 1,220,-1
0 1202 m 1,224,-1
 0 1398 l 1,225,-1
 201 1398 l 1,226,-1
 201 1202 l 1,227,-1
 0 1202 l 1,224,-1
EndSplineSet
Validated: 5
EndChar

StartChar: G
Encoding: 71 71 42
Width: 1801
Flags: W
LayerCount: 2
Fore
SplineSet
1998 -198 m 1,0,-1
 1998 -396 l 1,1,-1
 1801 -396 l 1,2,-1
 1801 -198 l 1,3,-1
 1998 -198 l 1,0,-1
1801 -198 m 1,4,-1
 1801 -2 l 1,5,-1
 1998 -2 l 1,6,-1
 1998 -198 l 1,7,-1
 1801 -198 l 1,4,-1
1801 -2 m 1,8,-1
 1801 199 l 1,9,-1
 1998 199 l 1,10,-1
 1998 -2 l 1,11,-1
 1801 -2 l 1,8,-1
1801 199 m 1,12,-1
 1801 399 l 1,13,-1
 1998 399 l 1,14,-1
 1998 199 l 1,15,-1
 1801 199 l 1,12,-1
1801 399 m 1,16,-1
 1801 600 l 1,17,-1
 1998 600 l 1,18,-1
 1998 399 l 1,19,-1
 1801 399 l 1,16,-1
1801 600 m 1,20,-1
 1801 800 l 1,21,-1
 1998 800 l 1,22,-1
 1998 600 l 1,23,-1
 1801 600 l 1,20,-1
1801 800 m 1,24,-1
 1801 1001 l 1,25,-1
 1998 1001 l 1,26,-1
 1998 800 l 1,27,-1
 1801 800 l 1,24,-1
1801 1001 m 1,28,-1
 1801 1202 l 1,29,-1
 1998 1202 l 1,30,-1
 1998 1001 l 1,31,-1
 1801 1001 l 1,28,-1
1801 -198 m 1,32,-1
 1801 -396 l 1,33,-1
 1601 -396 l 1,34,-1
 1601 -198 l 1,35,-1
 1801 -198 l 1,32,-1
1601 -198 m 1,36,-1
 1601 -2 l 1,37,-1
 1801 -2 l 1,38,-1
 1801 -198 l 1,39,-1
 1601 -198 l 1,36,-1
1601 -2 m 1,40,-1
 1601 199 l 1,41,-1
 1801 199 l 1,42,-1
 1801 -2 l 1,43,-1
 1601 -2 l 1,40,-1
1601 199 m 1,44,-1
 1601 399 l 1,45,-1
 1801 399 l 1,46,-1
 1801 199 l 1,47,-1
 1601 199 l 1,44,-1
1601 399 m 1,48,-1
 1601 600 l 1,49,-1
 1801 600 l 1,50,-1
 1801 399 l 1,51,-1
 1601 399 l 1,48,-1
1601 600 m 1,52,-1
 1601 800 l 1,53,-1
 1801 800 l 1,54,-1
 1801 600 l 1,55,-1
 1601 600 l 1,52,-1
1601 800 m 1,56,-1
 1601 1001 l 1,57,-1
 1801 1001 l 1,58,-1
 1801 800 l 1,59,-1
 1601 800 l 1,56,-1
1601 1001 m 1,60,-1
 1601 1202 l 1,61,-1
 1801 1202 l 1,62,-1
 1801 1001 l 1,63,-1
 1601 1001 l 1,60,-1
1601 1202 m 1,64,-1
 1601 1398 l 1,65,-1
 1801 1398 l 1,66,-1
 1801 1202 l 1,67,-1
 1601 1202 l 1,64,-1
1400 1398 m 1,68,-1
 1400 1599 l 1,69,-1
 1601 1599 l 1,70,-1
 1601 1398 l 1,71,-1
 1400 1398 l 1,68,-1
1601 -198 m 1,72,-1
 1601 -396 l 1,73,-1
 1400 -396 l 1,74,-1
 1400 -198 l 1,75,-1
 1601 -198 l 1,72,-1
1400 -198 m 1,76,-1
 1400 -2 l 1,77,-1
 1601 -2 l 1,78,-1
 1601 -198 l 1,79,-1
 1400 -198 l 1,76,-1
1400 800 m 1,80,-1
 1400 1001 l 1,81,-1
 1601 1001 l 1,82,-1
 1601 800 l 1,83,-1
 1400 800 l 1,80,-1
1400 1202 m 1,84,-1
 1400 1398 l 1,85,-1
 1601 1398 l 1,86,-1
 1601 1202 l 1,87,-1
 1400 1202 l 1,84,-1
1200 1398 m 1,88,-1
 1200 1599 l 1,89,-1
 1400 1599 l 1,90,-1
 1400 1398 l 1,91,-1
 1200 1398 l 1,88,-1
1400 -198 m 1,92,-1
 1400 -396 l 1,93,-1
 1200 -396 l 1,94,-1
 1200 -198 l 1,95,-1
 1400 -198 l 1,92,-1
1200 -198 m 1,96,-1
 1200 -2 l 1,97,-1
 1400 -2 l 1,98,-1
 1400 -198 l 1,99,-1
 1200 -198 l 1,96,-1
1200 -2 m 1,100,-1
 1200 199 l 1,101,-1
 1400 199 l 1,102,-1
 1400 -2 l 1,103,-1
 1200 -2 l 1,100,-1
1200 800 m 1,104,-1
 1200 1001 l 1,105,-1
 1400 1001 l 1,106,-1
 1400 800 l 1,107,-1
 1200 800 l 1,104,-1
999 1398 m 1,108,-1
 999 1599 l 1,109,-1
 1200 1599 l 1,110,-1
 1200 1398 l 1,111,-1
 999 1398 l 1,108,-1
1200 -198 m 1,112,-1
 1200 -396 l 1,113,-1
 999 -396 l 1,114,-1
 999 -198 l 1,115,-1
 1200 -198 l 1,112,-1
999 -198 m 1,116,-1
 999 -2 l 1,117,-1
 1200 -2 l 1,118,-1
 1200 -198 l 1,119,-1
 999 -198 l 1,116,-1
999 199 m 1,120,-1
 999 399 l 1,121,-1
 1200 399 l 1,122,-1
 1200 199 l 1,123,-1
 999 199 l 1,120,-1
999 399 m 1,124,-1
 999 600 l 1,125,-1
 1200 600 l 1,126,-1
 1200 399 l 1,127,-1
 999 399 l 1,124,-1
999 800 m 1,128,-1
 999 1001 l 1,129,-1
 1200 1001 l 1,130,-1
 1200 800 l 1,131,-1
 999 800 l 1,128,-1
999 1001 m 1,132,-1
 999 1202 l 1,133,-1
 1200 1202 l 1,134,-1
 1200 1001 l 1,135,-1
 999 1001 l 1,132,-1
798 1398 m 1,136,-1
 798 1599 l 1,137,-1
 999 1599 l 1,138,-1
 999 1398 l 1,139,-1
 798 1398 l 1,136,-1
999 -198 m 1,140,-1
 999 -396 l 1,141,-1
 798 -396 l 1,142,-1
 798 -198 l 1,143,-1
 999 -198 l 1,140,-1
798 -198 m 1,144,-1
 798 -2 l 1,145,-1
 999 -2 l 1,146,-1
 999 -198 l 1,147,-1
 798 -198 l 1,144,-1
798 199 m 1,148,-1
 798 399 l 1,149,-1
 999 399 l 1,150,-1
 999 199 l 1,151,-1
 798 199 l 1,148,-1
798 399 m 1,152,-1
 798 600 l 1,153,-1
 999 600 l 1,154,-1
 999 399 l 1,155,-1
 798 399 l 1,152,-1
798 600 m 1,156,-1
 798 800 l 1,157,-1
 999 800 l 1,158,-1
 999 600 l 1,159,-1
 798 600 l 1,156,-1
798 800 m 1,160,-1
 798 1001 l 1,161,-1
 999 1001 l 1,162,-1
 999 800 l 1,163,-1
 798 800 l 1,160,-1
798 1001 m 1,164,-1
 798 1202 l 1,165,-1
 999 1202 l 1,166,-1
 999 1001 l 1,167,-1
 798 1001 l 1,164,-1
602 1398 m 1,168,-1
 602 1599 l 1,169,-1
 798 1599 l 1,170,-1
 798 1398 l 1,171,-1
 602 1398 l 1,168,-1
798 -198 m 1,172,-1
 798 -396 l 1,173,-1
 602 -396 l 1,174,-1
 602 -198 l 1,175,-1
 798 -198 l 1,172,-1
602 -198 m 1,176,-1
 602 -2 l 1,177,-1
 798 -2 l 1,178,-1
 798 -198 l 1,179,-1
 602 -198 l 1,176,-1
602 199 m 1,180,-1
 602 399 l 1,181,-1
 798 399 l 1,182,-1
 798 199 l 1,183,-1
 602 199 l 1,180,-1
602 399 m 1,184,-1
 602 600 l 1,185,-1
 798 600 l 1,186,-1
 798 399 l 1,187,-1
 602 399 l 1,184,-1
602 600 m 1,188,-1
 602 800 l 1,189,-1
 798 800 l 1,190,-1
 798 600 l 1,191,-1
 602 600 l 1,188,-1
602 800 m 1,192,-1
 602 1001 l 1,193,-1
 798 1001 l 1,194,-1
 798 800 l 1,195,-1
 602 800 l 1,192,-1
602 1001 m 1,196,-1
 602 1202 l 1,197,-1
 798 1202 l 1,198,-1
 798 1001 l 1,199,-1
 602 1001 l 1,196,-1
401 1398 m 1,200,-1
 401 1599 l 1,201,-1
 602 1599 l 1,202,-1
 602 1398 l 1,203,-1
 401 1398 l 1,200,-1
602 -198 m 1,204,-1
 602 -396 l 1,205,-1
 401 -396 l 1,206,-1
 401 -198 l 1,207,-1
 602 -198 l 1,204,-1
401 -198 m 1,208,-1
 401 -2 l 1,209,-1
 602 -2 l 1,210,-1
 602 -198 l 1,211,-1
 401 -198 l 1,208,-1
201 1398 m 1,212,-1
 201 1599 l 1,213,-1
 401 1599 l 1,214,-1
 401 1398 l 1,215,-1
 201 1398 l 1,212,-1
201 -198 m 1,216,-1
 201 -2 l 1,217,-1
 401 -2 l 1,218,-1
 401 -198 l 1,219,-1
 201 -198 l 1,216,-1
201 -2 m 1,220,-1
 201 199 l 1,221,-1
 401 199 l 1,222,-1
 401 -2 l 1,223,-1
 201 -2 l 1,220,-1
201 1202 m 1,224,-1
 201 1398 l 1,225,-1
 401 1398 l 1,226,-1
 401 1202 l 1,227,-1
 201 1202 l 1,224,-1
0 -2 m 1,228,-1
 0 199 l 1,229,-1
 201 199 l 1,230,-1
 201 -2 l 1,231,-1
 0 -2 l 1,228,-1
0 199 m 1,232,-1
 0 399 l 1,233,-1
 201 399 l 1,234,-1
 201 199 l 1,235,-1
 0 199 l 1,232,-1
0 399 m 1,236,-1
 0 600 l 1,237,-1
 201 600 l 1,238,-1
 201 399 l 1,239,-1
 0 399 l 1,236,-1
0 600 m 1,240,-1
 0 800 l 1,241,-1
 201 800 l 1,242,-1
 201 600 l 1,243,-1
 0 600 l 1,240,-1
0 800 m 1,244,-1
 0 1001 l 1,245,-1
 201 1001 l 1,246,-1
 201 800 l 1,247,-1
 0 800 l 1,244,-1
0 1001 m 1,248,-1
 0 1202 l 1,249,-1
 201 1202 l 1,250,-1
 201 1001 l 1,251,-1
 0 1001 l 1,248,-1
0 1202 m 1,252,-1
 0 1398 l 1,253,-1
 201 1398 l 1,254,-1
 201 1202 l 1,255,-1
 0 1202 l 1,252,-1
EndSplineSet
Validated: 5
EndChar

StartChar: H
Encoding: 72 72 43
Width: 1801
Flags: W
LayerCount: 2
Fore
SplineSet
1998 -198 m 1,0,-1
 1998 -396 l 1,1,-1
 1801 -396 l 1,2,-1
 1801 -198 l 1,3,-1
 1998 -198 l 1,0,-1
1801 -198 m 1,4,-1
 1801 -2 l 1,5,-1
 1998 -2 l 1,6,-1
 1998 -198 l 1,7,-1
 1801 -198 l 1,4,-1
1801 -2 m 1,8,-1
 1801 199 l 1,9,-1
 1998 199 l 1,10,-1
 1998 -2 l 1,11,-1
 1801 -2 l 1,8,-1
1801 199 m 1,12,-1
 1801 399 l 1,13,-1
 1998 399 l 1,14,-1
 1998 199 l 1,15,-1
 1801 199 l 1,12,-1
1801 399 m 1,16,-1
 1801 600 l 1,17,-1
 1998 600 l 1,18,-1
 1998 399 l 1,19,-1
 1801 399 l 1,16,-1
1801 600 m 1,20,-1
 1801 800 l 1,21,-1
 1998 800 l 1,22,-1
 1998 600 l 1,23,-1
 1801 600 l 1,20,-1
1801 800 m 1,24,-1
 1801 1001 l 1,25,-1
 1998 1001 l 1,26,-1
 1998 800 l 1,27,-1
 1801 800 l 1,24,-1
1801 1001 m 1,28,-1
 1801 1202 l 1,29,-1
 1998 1202 l 1,30,-1
 1998 1001 l 1,31,-1
 1801 1001 l 1,28,-1
1801 1202 m 1,32,-1
 1801 1398 l 1,33,-1
 1998 1398 l 1,34,-1
 1998 1202 l 1,35,-1
 1801 1202 l 1,32,-1
1601 1398 m 1,36,-1
 1601 1599 l 1,37,-1
 1801 1599 l 1,38,-1
 1801 1398 l 1,39,-1
 1601 1398 l 1,36,-1
1801 -198 m 1,40,-1
 1801 -396 l 1,41,-1
 1601 -396 l 1,42,-1
 1601 -198 l 1,43,-1
 1801 -198 l 1,40,-1
1601 -198 m 1,44,-1
 1601 -2 l 1,45,-1
 1801 -2 l 1,46,-1
 1801 -198 l 1,47,-1
 1601 -198 l 1,44,-1
1601 -2 m 1,48,-1
 1601 199 l 1,49,-1
 1801 199 l 1,50,-1
 1801 -2 l 1,51,-1
 1601 -2 l 1,48,-1
1601 199 m 1,52,-1
 1601 399 l 1,53,-1
 1801 399 l 1,54,-1
 1801 199 l 1,55,-1
 1601 199 l 1,52,-1
1601 399 m 1,56,-1
 1601 600 l 1,57,-1
 1801 600 l 1,58,-1
 1801 399 l 1,59,-1
 1601 399 l 1,56,-1
1601 600 m 1,60,-1
 1601 800 l 1,61,-1
 1801 800 l 1,62,-1
 1801 600 l 1,63,-1
 1601 600 l 1,60,-1
1601 800 m 1,64,-1
 1601 1001 l 1,65,-1
 1801 1001 l 1,66,-1
 1801 800 l 1,67,-1
 1601 800 l 1,64,-1
1601 1001 m 1,68,-1
 1601 1202 l 1,69,-1
 1801 1202 l 1,70,-1
 1801 1001 l 1,71,-1
 1601 1001 l 1,68,-1
1601 1202 m 1,72,-1
 1601 1398 l 1,73,-1
 1801 1398 l 1,74,-1
 1801 1202 l 1,75,-1
 1601 1202 l 1,72,-1
1400 1398 m 1,76,-1
 1400 1599 l 1,77,-1
 1601 1599 l 1,78,-1
 1601 1398 l 1,79,-1
 1400 1398 l 1,76,-1
1601 -198 m 1,80,-1
 1601 -396 l 1,81,-1
 1400 -396 l 1,82,-1
 1400 -198 l 1,83,-1
 1601 -198 l 1,80,-1
1400 -198 m 1,84,-1
 1400 -2 l 1,85,-1
 1601 -2 l 1,86,-1
 1601 -198 l 1,87,-1
 1400 -198 l 1,84,-1
1200 1398 m 1,88,-1
 1200 1599 l 1,89,-1
 1400 1599 l 1,90,-1
 1400 1398 l 1,91,-1
 1200 1398 l 1,88,-1
1400 -198 m 1,92,-1
 1400 -396 l 1,93,-1
 1200 -396 l 1,94,-1
 1200 -198 l 1,95,-1
 1400 -198 l 1,92,-1
1200 -198 m 1,96,-1
 1200 -2 l 1,97,-1
 1400 -2 l 1,98,-1
 1400 -198 l 1,99,-1
 1200 -198 l 1,96,-1
999 1398 m 1,100,-1
 999 1599 l 1,101,-1
 1200 1599 l 1,102,-1
 1200 1398 l 1,103,-1
 999 1398 l 1,100,-1
999 -198 m 1,104,-1
 999 -2 l 1,105,-1
 1200 -2 l 1,106,-1
 1200 -198 l 1,107,-1
 999 -198 l 1,104,-1
999 -2 m 1,108,-1
 999 199 l 1,109,-1
 1200 199 l 1,110,-1
 1200 -2 l 1,111,-1
 999 -2 l 1,108,-1
999 199 m 1,112,-1
 999 399 l 1,113,-1
 1200 399 l 1,114,-1
 1200 199 l 1,115,-1
 999 199 l 1,112,-1
999 399 m 1,116,-1
 999 600 l 1,117,-1
 1200 600 l 1,118,-1
 1200 399 l 1,119,-1
 999 399 l 1,116,-1
999 800 m 1,120,-1
 999 1001 l 1,121,-1
 1200 1001 l 1,122,-1
 1200 800 l 1,123,-1
 999 800 l 1,120,-1
999 1001 m 1,124,-1
 999 1202 l 1,125,-1
 1200 1202 l 1,126,-1
 1200 1001 l 1,127,-1
 999 1001 l 1,124,-1
999 1202 m 1,128,-1
 999 1398 l 1,129,-1
 1200 1398 l 1,130,-1
 1200 1202 l 1,131,-1
 999 1202 l 1,128,-1
999 -198 m 1,132,-1
 999 -396 l 1,133,-1
 798 -396 l 1,134,-1
 798 -198 l 1,135,-1
 999 -198 l 1,132,-1
798 -198 m 1,136,-1
 798 -2 l 1,137,-1
 999 -2 l 1,138,-1
 999 -198 l 1,139,-1
 798 -198 l 1,136,-1
798 -2 m 1,140,-1
 798 199 l 1,141,-1
 999 199 l 1,142,-1
 999 -2 l 1,143,-1
 798 -2 l 1,140,-1
798 199 m 1,144,-1
 798 399 l 1,145,-1
 999 399 l 1,146,-1
 999 199 l 1,147,-1
 798 199 l 1,144,-1
798 399 m 1,148,-1
 798 600 l 1,149,-1
 999 600 l 1,150,-1
 999 399 l 1,151,-1
 798 399 l 1,148,-1
798 800 m 1,152,-1
 798 1001 l 1,153,-1
 999 1001 l 1,154,-1
 999 800 l 1,155,-1
 798 800 l 1,152,-1
798 1001 m 1,156,-1
 798 1202 l 1,157,-1
 999 1202 l 1,158,-1
 999 1001 l 1,159,-1
 798 1001 l 1,156,-1
798 1202 m 1,160,-1
 798 1398 l 1,161,-1
 999 1398 l 1,162,-1
 999 1202 l 1,163,-1
 798 1202 l 1,160,-1
602 1398 m 1,164,-1
 602 1599 l 1,165,-1
 798 1599 l 1,166,-1
 798 1398 l 1,167,-1
 602 1398 l 1,164,-1
798 -198 m 1,168,-1
 798 -396 l 1,169,-1
 602 -396 l 1,170,-1
 602 -198 l 1,171,-1
 798 -198 l 1,168,-1
602 -198 m 1,172,-1
 602 -2 l 1,173,-1
 798 -2 l 1,174,-1
 798 -198 l 1,175,-1
 602 -198 l 1,172,-1
602 -2 m 1,176,-1
 602 199 l 1,177,-1
 798 199 l 1,178,-1
 798 -2 l 1,179,-1
 602 -2 l 1,176,-1
602 199 m 1,180,-1
 602 399 l 1,181,-1
 798 399 l 1,182,-1
 798 199 l 1,183,-1
 602 199 l 1,180,-1
602 399 m 1,184,-1
 602 600 l 1,185,-1
 798 600 l 1,186,-1
 798 399 l 1,187,-1
 602 399 l 1,184,-1
602 800 m 1,188,-1
 602 1001 l 1,189,-1
 798 1001 l 1,190,-1
 798 800 l 1,191,-1
 602 800 l 1,188,-1
602 1001 m 1,192,-1
 602 1202 l 1,193,-1
 798 1202 l 1,194,-1
 798 1001 l 1,195,-1
 602 1001 l 1,192,-1
602 1202 m 1,196,-1
 602 1398 l 1,197,-1
 798 1398 l 1,198,-1
 798 1202 l 1,199,-1
 602 1202 l 1,196,-1
401 1398 m 1,200,-1
 401 1599 l 1,201,-1
 602 1599 l 1,202,-1
 602 1398 l 1,203,-1
 401 1398 l 1,200,-1
602 -198 m 1,204,-1
 602 -396 l 1,205,-1
 401 -396 l 1,206,-1
 401 -198 l 1,207,-1
 602 -198 l 1,204,-1
401 -198 m 1,208,-1
 401 -2 l 1,209,-1
 602 -2 l 1,210,-1
 602 -198 l 1,211,-1
 401 -198 l 1,208,-1
201 1398 m 1,212,-1
 201 1599 l 1,213,-1
 401 1599 l 1,214,-1
 401 1398 l 1,215,-1
 201 1398 l 1,212,-1
401 -198 m 1,216,-1
 401 -396 l 1,217,-1
 201 -396 l 1,218,-1
 201 -198 l 1,219,-1
 401 -198 l 1,216,-1
201 -198 m 1,220,-1
 201 -2 l 1,221,-1
 401 -2 l 1,222,-1
 401 -198 l 1,223,-1
 201 -198 l 1,220,-1
0 1398 m 1,224,-1
 0 1599 l 1,225,-1
 201 1599 l 1,226,-1
 201 1398 l 1,227,-1
 0 1398 l 1,224,-1
0 -198 m 1,228,-1
 0 -2 l 1,229,-1
 201 -2 l 1,230,-1
 201 -198 l 1,231,-1
 0 -198 l 1,228,-1
0 -2 m 1,232,-1
 0 199 l 1,233,-1
 201 199 l 1,234,-1
 201 -2 l 1,235,-1
 0 -2 l 1,232,-1
0 199 m 1,236,-1
 0 399 l 1,237,-1
 201 399 l 1,238,-1
 201 199 l 1,239,-1
 0 199 l 1,236,-1
0 399 m 1,240,-1
 0 600 l 1,241,-1
 201 600 l 1,242,-1
 201 399 l 1,243,-1
 0 399 l 1,240,-1
0 600 m 1,244,-1
 0 800 l 1,245,-1
 201 800 l 1,246,-1
 201 600 l 1,247,-1
 0 600 l 1,244,-1
0 800 m 1,248,-1
 0 1001 l 1,249,-1
 201 1001 l 1,250,-1
 201 800 l 1,251,-1
 0 800 l 1,248,-1
0 1001 m 1,252,-1
 0 1202 l 1,253,-1
 201 1202 l 1,254,-1
 201 1001 l 1,255,-1
 0 1001 l 1,252,-1
0 1202 m 1,256,-1
 0 1398 l 1,257,-1
 201 1398 l 1,258,-1
 201 1202 l 1,259,-1
 0 1202 l 1,256,-1
EndSplineSet
Validated: 5
EndChar

StartChar: I
Encoding: 73 73 44
Width: 798
Flags: W
LayerCount: 2
Fore
SplineSet
999 -198 m 1,0,-1
 999 -396 l 1,1,-1
 798 -396 l 1,2,-1
 798 -198 l 1,3,-1
 999 -198 l 1,0,-1
798 -198 m 1,4,-1
 798 -2 l 1,5,-1
 999 -2 l 1,6,-1
 999 -198 l 1,7,-1
 798 -198 l 1,4,-1
798 -2 m 1,8,-1
 798 199 l 1,9,-1
 999 199 l 1,10,-1
 999 -2 l 1,11,-1
 798 -2 l 1,8,-1
798 199 m 1,12,-1
 798 399 l 1,13,-1
 999 399 l 1,14,-1
 999 199 l 1,15,-1
 798 199 l 1,12,-1
798 399 m 1,16,-1
 798 600 l 1,17,-1
 999 600 l 1,18,-1
 999 399 l 1,19,-1
 798 399 l 1,16,-1
798 600 m 1,20,-1
 798 800 l 1,21,-1
 999 800 l 1,22,-1
 999 600 l 1,23,-1
 798 600 l 1,20,-1
798 800 m 1,24,-1
 798 1001 l 1,25,-1
 999 1001 l 1,26,-1
 999 800 l 1,27,-1
 798 800 l 1,24,-1
798 1001 m 1,28,-1
 798 1202 l 1,29,-1
 999 1202 l 1,30,-1
 999 1001 l 1,31,-1
 798 1001 l 1,28,-1
798 1202 m 1,32,-1
 798 1398 l 1,33,-1
 999 1398 l 1,34,-1
 999 1202 l 1,35,-1
 798 1202 l 1,32,-1
602 1398 m 1,36,-1
 602 1599 l 1,37,-1
 798 1599 l 1,38,-1
 798 1398 l 1,39,-1
 602 1398 l 1,36,-1
798 -198 m 1,40,-1
 798 -396 l 1,41,-1
 602 -396 l 1,42,-1
 602 -198 l 1,43,-1
 798 -198 l 1,40,-1
602 -198 m 1,44,-1
 602 -2 l 1,45,-1
 798 -2 l 1,46,-1
 798 -198 l 1,47,-1
 602 -198 l 1,44,-1
602 -2 m 1,48,-1
 602 199 l 1,49,-1
 798 199 l 1,50,-1
 798 -2 l 1,51,-1
 602 -2 l 1,48,-1
602 199 m 1,52,-1
 602 399 l 1,53,-1
 798 399 l 1,54,-1
 798 199 l 1,55,-1
 602 199 l 1,52,-1
602 399 m 1,56,-1
 602 600 l 1,57,-1
 798 600 l 1,58,-1
 798 399 l 1,59,-1
 602 399 l 1,56,-1
602 600 m 1,60,-1
 602 800 l 1,61,-1
 798 800 l 1,62,-1
 798 600 l 1,63,-1
 602 600 l 1,60,-1
602 800 m 1,64,-1
 602 1001 l 1,65,-1
 798 1001 l 1,66,-1
 798 800 l 1,67,-1
 602 800 l 1,64,-1
602 1001 m 1,68,-1
 602 1202 l 1,69,-1
 798 1202 l 1,70,-1
 798 1001 l 1,71,-1
 602 1001 l 1,68,-1
602 1202 m 1,72,-1
 602 1398 l 1,73,-1
 798 1398 l 1,74,-1
 798 1202 l 1,75,-1
 602 1202 l 1,72,-1
401 1398 m 1,76,-1
 401 1599 l 1,77,-1
 602 1599 l 1,78,-1
 602 1398 l 1,79,-1
 401 1398 l 1,76,-1
602 -198 m 1,80,-1
 602 -396 l 1,81,-1
 401 -396 l 1,82,-1
 401 -198 l 1,83,-1
 602 -198 l 1,80,-1
401 -198 m 1,84,-1
 401 -2 l 1,85,-1
 602 -2 l 1,86,-1
 602 -198 l 1,87,-1
 401 -198 l 1,84,-1
201 1398 m 1,88,-1
 201 1599 l 1,89,-1
 401 1599 l 1,90,-1
 401 1398 l 1,91,-1
 201 1398 l 1,88,-1
401 -198 m 1,92,-1
 401 -396 l 1,93,-1
 201 -396 l 1,94,-1
 201 -198 l 1,95,-1
 401 -198 l 1,92,-1
201 -198 m 1,96,-1
 201 -2 l 1,97,-1
 401 -2 l 1,98,-1
 401 -198 l 1,99,-1
 201 -198 l 1,96,-1
0 1398 m 1,100,-1
 0 1599 l 1,101,-1
 201 1599 l 1,102,-1
 201 1398 l 1,103,-1
 0 1398 l 1,100,-1
0 -198 m 1,104,-1
 0 -2 l 1,105,-1
 201 -2 l 1,106,-1
 201 -198 l 1,107,-1
 0 -198 l 1,104,-1
0 -2 m 1,108,-1
 0 199 l 1,109,-1
 201 199 l 1,110,-1
 201 -2 l 1,111,-1
 0 -2 l 1,108,-1
0 199 m 1,112,-1
 0 399 l 1,113,-1
 201 399 l 1,114,-1
 201 199 l 1,115,-1
 0 199 l 1,112,-1
0 399 m 1,116,-1
 0 600 l 1,117,-1
 201 600 l 1,118,-1
 201 399 l 1,119,-1
 0 399 l 1,116,-1
0 600 m 1,120,-1
 0 800 l 1,121,-1
 201 800 l 1,122,-1
 201 600 l 1,123,-1
 0 600 l 1,120,-1
0 800 m 1,124,-1
 0 1001 l 1,125,-1
 201 1001 l 1,126,-1
 201 800 l 1,127,-1
 0 800 l 1,124,-1
0 1001 m 1,128,-1
 0 1202 l 1,129,-1
 201 1202 l 1,130,-1
 201 1001 l 1,131,-1
 0 1001 l 1,128,-1
0 1202 m 1,132,-1
 0 1398 l 1,133,-1
 201 1398 l 1,134,-1
 201 1202 l 1,135,-1
 0 1202 l 1,132,-1
EndSplineSet
Validated: 5
EndChar

StartChar: J
Encoding: 74 74 45
Width: 1801
Flags: W
LayerCount: 2
Fore
SplineSet
1801 -198 m 1,0,-1
 1801 -2 l 1,1,-1
 1998 -2 l 1,2,-1
 1998 -198 l 1,3,-1
 1801 -198 l 1,0,-1
1801 -2 m 1,4,-1
 1801 199 l 1,5,-1
 1998 199 l 1,6,-1
 1998 -2 l 1,7,-1
 1801 -2 l 1,4,-1
1801 199 m 1,8,-1
 1801 399 l 1,9,-1
 1998 399 l 1,10,-1
 1998 199 l 1,11,-1
 1801 199 l 1,8,-1
1801 399 m 1,12,-1
 1801 600 l 1,13,-1
 1998 600 l 1,14,-1
 1998 399 l 1,15,-1
 1801 399 l 1,12,-1
1801 600 m 1,16,-1
 1801 800 l 1,17,-1
 1998 800 l 1,18,-1
 1998 600 l 1,19,-1
 1801 600 l 1,16,-1
1801 800 m 1,20,-1
 1801 1001 l 1,21,-1
 1998 1001 l 1,22,-1
 1998 800 l 1,23,-1
 1801 800 l 1,20,-1
1801 1001 m 1,24,-1
 1801 1202 l 1,25,-1
 1998 1202 l 1,26,-1
 1998 1001 l 1,27,-1
 1801 1001 l 1,24,-1
1801 1202 m 1,28,-1
 1801 1398 l 1,29,-1
 1998 1398 l 1,30,-1
 1998 1202 l 1,31,-1
 1801 1202 l 1,28,-1
1601 1398 m 1,32,-1
 1601 1599 l 1,33,-1
 1801 1599 l 1,34,-1
 1801 1398 l 1,35,-1
 1601 1398 l 1,32,-1
1801 -198 m 1,36,-1
 1801 -396 l 1,37,-1
 1601 -396 l 1,38,-1
 1601 -198 l 1,39,-1
 1801 -198 l 1,36,-1
1601 -198 m 1,40,-1
 1601 -2 l 1,41,-1
 1801 -2 l 1,42,-1
 1801 -198 l 1,43,-1
 1601 -198 l 1,40,-1
1601 -2 m 1,44,-1
 1601 199 l 1,45,-1
 1801 199 l 1,46,-1
 1801 -2 l 1,47,-1
 1601 -2 l 1,44,-1
1601 199 m 1,48,-1
 1601 399 l 1,49,-1
 1801 399 l 1,50,-1
 1801 199 l 1,51,-1
 1601 199 l 1,48,-1
1601 399 m 1,52,-1
 1601 600 l 1,53,-1
 1801 600 l 1,54,-1
 1801 399 l 1,55,-1
 1601 399 l 1,52,-1
1601 600 m 1,56,-1
 1601 800 l 1,57,-1
 1801 800 l 1,58,-1
 1801 600 l 1,59,-1
 1601 600 l 1,56,-1
1601 800 m 1,60,-1
 1601 1001 l 1,61,-1
 1801 1001 l 1,62,-1
 1801 800 l 1,63,-1
 1601 800 l 1,60,-1
1601 1001 m 1,64,-1
 1601 1202 l 1,65,-1
 1801 1202 l 1,66,-1
 1801 1001 l 1,67,-1
 1601 1001 l 1,64,-1
1601 1202 m 1,68,-1
 1601 1398 l 1,69,-1
 1801 1398 l 1,70,-1
 1801 1202 l 1,71,-1
 1601 1202 l 1,68,-1
1400 1398 m 1,72,-1
 1400 1599 l 1,73,-1
 1601 1599 l 1,74,-1
 1601 1398 l 1,75,-1
 1400 1398 l 1,72,-1
1601 -198 m 1,76,-1
 1601 -396 l 1,77,-1
 1400 -396 l 1,78,-1
 1400 -198 l 1,79,-1
 1601 -198 l 1,76,-1
1400 -198 m 1,80,-1
 1400 -2 l 1,81,-1
 1601 -2 l 1,82,-1
 1601 -198 l 1,83,-1
 1400 -198 l 1,80,-1
1400 -2 m 1,84,-1
 1400 199 l 1,85,-1
 1601 199 l 1,86,-1
 1601 -2 l 1,87,-1
 1400 -2 l 1,84,-1
1200 1398 m 1,88,-1
 1200 1599 l 1,89,-1
 1400 1599 l 1,90,-1
 1400 1398 l 1,91,-1
 1200 1398 l 1,88,-1
1400 -198 m 1,92,-1
 1400 -396 l 1,93,-1
 1200 -396 l 1,94,-1
 1200 -198 l 1,95,-1
 1400 -198 l 1,92,-1
1200 -198 m 1,96,-1
 1200 -2 l 1,97,-1
 1400 -2 l 1,98,-1
 1400 -198 l 1,99,-1
 1200 -198 l 1,96,-1
999 1398 m 1,100,-1
 999 1599 l 1,101,-1
 1200 1599 l 1,102,-1
 1200 1398 l 1,103,-1
 999 1398 l 1,100,-1
1200 -198 m 1,104,-1
 1200 -396 l 1,105,-1
 999 -396 l 1,106,-1
 999 -198 l 1,107,-1
 1200 -198 l 1,104,-1
999 -198 m 1,108,-1
 999 -2 l 1,109,-1
 1200 -2 l 1,110,-1
 1200 -198 l 1,111,-1
 999 -198 l 1,108,-1
999 199 m 1,112,-1
 999 399 l 1,113,-1
 1200 399 l 1,114,-1
 1200 199 l 1,115,-1
 999 199 l 1,112,-1
999 399 m 1,116,-1
 999 600 l 1,117,-1
 1200 600 l 1,118,-1
 1200 399 l 1,119,-1
 999 399 l 1,116,-1
999 600 m 1,120,-1
 999 800 l 1,121,-1
 1200 800 l 1,122,-1
 1200 600 l 1,123,-1
 999 600 l 1,120,-1
999 800 m 1,124,-1
 999 1001 l 1,125,-1
 1200 1001 l 1,126,-1
 1200 800 l 1,127,-1
 999 800 l 1,124,-1
999 1001 m 1,128,-1
 999 1202 l 1,129,-1
 1200 1202 l 1,130,-1
 1200 1001 l 1,131,-1
 999 1001 l 1,128,-1
999 1202 m 1,132,-1
 999 1398 l 1,133,-1
 1200 1398 l 1,134,-1
 1200 1202 l 1,135,-1
 999 1202 l 1,132,-1
999 -198 m 1,136,-1
 999 -396 l 1,137,-1
 798 -396 l 1,138,-1
 798 -198 l 1,139,-1
 999 -198 l 1,136,-1
798 -198 m 1,140,-1
 798 -2 l 1,141,-1
 999 -2 l 1,142,-1
 999 -198 l 1,143,-1
 798 -198 l 1,140,-1
798 199 m 1,144,-1
 798 399 l 1,145,-1
 999 399 l 1,146,-1
 999 199 l 1,147,-1
 798 199 l 1,144,-1
798 399 m 1,148,-1
 798 600 l 1,149,-1
 999 600 l 1,150,-1
 999 399 l 1,151,-1
 798 399 l 1,148,-1
798 600 m 1,152,-1
 798 800 l 1,153,-1
 999 800 l 1,154,-1
 999 600 l 1,155,-1
 798 600 l 1,152,-1
798 -198 m 1,156,-1
 798 -396 l 1,157,-1
 602 -396 l 1,158,-1
 602 -198 l 1,159,-1
 798 -198 l 1,156,-1
602 -198 m 1,160,-1
 602 -2 l 1,161,-1
 798 -2 l 1,162,-1
 798 -198 l 1,163,-1
 602 -198 l 1,160,-1
602 199 m 1,164,-1
 602 399 l 1,165,-1
 798 399 l 1,166,-1
 798 199 l 1,167,-1
 602 199 l 1,164,-1
602 399 m 1,168,-1
 602 600 l 1,169,-1
 798 600 l 1,170,-1
 798 399 l 1,171,-1
 602 399 l 1,168,-1
602 600 m 1,172,-1
 602 800 l 1,173,-1
 798 800 l 1,174,-1
 798 600 l 1,175,-1
 602 600 l 1,172,-1
602 -198 m 1,176,-1
 602 -396 l 1,177,-1
 401 -396 l 1,178,-1
 401 -198 l 1,179,-1
 602 -198 l 1,176,-1
401 -198 m 1,180,-1
 401 -2 l 1,181,-1
 602 -2 l 1,182,-1
 602 -198 l 1,183,-1
 401 -198 l 1,180,-1
401 600 m 1,184,-1
 401 800 l 1,185,-1
 602 800 l 1,186,-1
 602 600 l 1,187,-1
 401 600 l 1,184,-1
201 -198 m 1,188,-1
 201 -2 l 1,189,-1
 401 -2 l 1,190,-1
 401 -198 l 1,191,-1
 201 -198 l 1,188,-1
201 -2 m 1,192,-1
 201 199 l 1,193,-1
 401 199 l 1,194,-1
 401 -2 l 1,195,-1
 201 -2 l 1,192,-1
201 600 m 1,196,-1
 201 800 l 1,197,-1
 401 800 l 1,198,-1
 401 600 l 1,199,-1
 201 600 l 1,196,-1
0 -2 m 1,200,-1
 0 199 l 1,201,-1
 201 199 l 1,202,-1
 201 -2 l 1,203,-1
 0 -2 l 1,200,-1
0 199 m 1,204,-1
 0 399 l 1,205,-1
 201 399 l 1,206,-1
 201 199 l 1,207,-1
 0 199 l 1,204,-1
0 399 m 1,208,-1
 0 600 l 1,209,-1
 201 600 l 1,210,-1
 201 399 l 1,211,-1
 0 399 l 1,208,-1
0 600 m 1,212,-1
 0 800 l 1,213,-1
 201 800 l 1,214,-1
 201 600 l 1,215,-1
 0 600 l 1,212,-1
EndSplineSet
Validated: 5
EndChar

StartChar: K
Encoding: 75 75 46
Width: 1801
Flags: W
LayerCount: 2
Fore
SplineSet
1998 -198 m 1,0,-1
 1998 -396 l 1,1,-1
 1801 -396 l 1,2,-1
 1801 -198 l 1,3,-1
 1998 -198 l 1,0,-1
1801 -198 m 1,4,-1
 1801 -2 l 1,5,-1
 1998 -2 l 1,6,-1
 1998 -198 l 1,7,-1
 1801 -198 l 1,4,-1
1801 -2 m 1,8,-1
 1801 199 l 1,9,-1
 1998 199 l 1,10,-1
 1998 -2 l 1,11,-1
 1801 -2 l 1,8,-1
1801 800 m 1,12,-1
 1801 1001 l 1,13,-1
 1998 1001 l 1,14,-1
 1998 800 l 1,15,-1
 1801 800 l 1,12,-1
1801 1001 m 1,16,-1
 1801 1202 l 1,17,-1
 1998 1202 l 1,18,-1
 1998 1001 l 1,19,-1
 1801 1001 l 1,16,-1
1801 1202 m 1,20,-1
 1801 1398 l 1,21,-1
 1998 1398 l 1,22,-1
 1998 1202 l 1,23,-1
 1801 1202 l 1,20,-1
1601 1398 m 1,24,-1
 1601 1599 l 1,25,-1
 1801 1599 l 1,26,-1
 1801 1398 l 1,27,-1
 1601 1398 l 1,24,-1
1801 -198 m 1,28,-1
 1801 -396 l 1,29,-1
 1601 -396 l 1,30,-1
 1601 -198 l 1,31,-1
 1801 -198 l 1,28,-1
1601 -198 m 1,32,-1
 1601 -2 l 1,33,-1
 1801 -2 l 1,34,-1
 1801 -198 l 1,35,-1
 1601 -198 l 1,32,-1
1601 -2 m 1,36,-1
 1601 199 l 1,37,-1
 1801 199 l 1,38,-1
 1801 -2 l 1,39,-1
 1601 -2 l 1,36,-1
1601 199 m 1,40,-1
 1601 399 l 1,41,-1
 1801 399 l 1,42,-1
 1801 199 l 1,43,-1
 1601 199 l 1,40,-1
1601 600 m 1,44,-1
 1601 800 l 1,45,-1
 1801 800 l 1,46,-1
 1801 600 l 1,47,-1
 1601 600 l 1,44,-1
1601 800 m 1,48,-1
 1601 1001 l 1,49,-1
 1801 1001 l 1,50,-1
 1801 800 l 1,51,-1
 1601 800 l 1,48,-1
1601 1001 m 1,52,-1
 1601 1202 l 1,53,-1
 1801 1202 l 1,54,-1
 1801 1001 l 1,55,-1
 1601 1001 l 1,52,-1
1601 1202 m 1,56,-1
 1601 1398 l 1,57,-1
 1801 1398 l 1,58,-1
 1801 1202 l 1,59,-1
 1601 1202 l 1,56,-1
1400 1398 m 1,60,-1
 1400 1599 l 1,61,-1
 1601 1599 l 1,62,-1
 1601 1398 l 1,63,-1
 1400 1398 l 1,60,-1
1601 -198 m 1,64,-1
 1601 -396 l 1,65,-1
 1400 -396 l 1,66,-1
 1400 -198 l 1,67,-1
 1601 -198 l 1,64,-1
1400 -198 m 1,68,-1
 1400 -2 l 1,69,-1
 1601 -2 l 1,70,-1
 1601 -198 l 1,71,-1
 1400 -198 l 1,68,-1
1400 199 m 1,72,-1
 1400 399 l 1,73,-1
 1601 399 l 1,74,-1
 1601 199 l 1,75,-1
 1400 199 l 1,72,-1
1400 399 m 1,76,-1
 1400 600 l 1,77,-1
 1601 600 l 1,78,-1
 1601 399 l 1,79,-1
 1400 399 l 1,76,-1
1400 600 m 1,80,-1
 1400 800 l 1,81,-1
 1601 800 l 1,82,-1
 1601 600 l 1,83,-1
 1400 600 l 1,80,-1
1400 800 m 1,84,-1
 1400 1001 l 1,85,-1
 1601 1001 l 1,86,-1
 1601 800 l 1,87,-1
 1400 800 l 1,84,-1
1400 1001 m 1,88,-1
 1400 1202 l 1,89,-1
 1601 1202 l 1,90,-1
 1601 1001 l 1,91,-1
 1400 1001 l 1,88,-1
1200 1398 m 1,92,-1
 1200 1599 l 1,93,-1
 1400 1599 l 1,94,-1
 1400 1398 l 1,95,-1
 1200 1398 l 1,92,-1
1400 -198 m 1,96,-1
 1400 -396 l 1,97,-1
 1200 -396 l 1,98,-1
 1200 -198 l 1,99,-1
 1400 -198 l 1,96,-1
1200 -198 m 1,100,-1
 1200 -2 l 1,101,-1
 1400 -2 l 1,102,-1
 1400 -198 l 1,103,-1
 1200 -198 l 1,100,-1
1200 399 m 1,104,-1
 1200 600 l 1,105,-1
 1400 600 l 1,106,-1
 1400 399 l 1,107,-1
 1200 399 l 1,104,-1
1200 600 m 1,108,-1
 1200 800 l 1,109,-1
 1400 800 l 1,110,-1
 1400 600 l 1,111,-1
 1200 600 l 1,108,-1
1200 800 m 1,112,-1
 1200 1001 l 1,113,-1
 1400 1001 l 1,114,-1
 1400 800 l 1,115,-1
 1200 800 l 1,112,-1
999 1398 m 1,116,-1
 999 1599 l 1,117,-1
 1200 1599 l 1,118,-1
 1200 1398 l 1,119,-1
 999 1398 l 1,116,-1
999 -198 m 1,120,-1
 999 -2 l 1,121,-1
 1200 -2 l 1,122,-1
 1200 -198 l 1,123,-1
 999 -198 l 1,120,-1
999 -2 m 1,124,-1
 999 199 l 1,125,-1
 1200 199 l 1,126,-1
 1200 -2 l 1,127,-1
 999 -2 l 1,124,-1
999 600 m 1,128,-1
 999 800 l 1,129,-1
 1200 800 l 1,130,-1
 1200 600 l 1,131,-1
 999 600 l 1,128,-1
999 1202 m 1,132,-1
 999 1398 l 1,133,-1
 1200 1398 l 1,134,-1
 1200 1202 l 1,135,-1
 999 1202 l 1,132,-1
999 -198 m 1,136,-1
 999 -396 l 1,137,-1
 798 -396 l 1,138,-1
 798 -198 l 1,139,-1
 999 -198 l 1,136,-1
798 -198 m 1,140,-1
 798 -2 l 1,141,-1
 999 -2 l 1,142,-1
 999 -198 l 1,143,-1
 798 -198 l 1,140,-1
798 -2 m 1,144,-1
 798 199 l 1,145,-1
 999 199 l 1,146,-1
 999 -2 l 1,147,-1
 798 -2 l 1,144,-1
798 199 m 1,148,-1
 798 399 l 1,149,-1
 999 399 l 1,150,-1
 999 199 l 1,151,-1
 798 199 l 1,148,-1
798 1001 m 1,152,-1
 798 1202 l 1,153,-1
 999 1202 l 1,154,-1
 999 1001 l 1,155,-1
 798 1001 l 1,152,-1
798 1202 m 1,156,-1
 798 1398 l 1,157,-1
 999 1398 l 1,158,-1
 999 1202 l 1,159,-1
 798 1202 l 1,156,-1
602 1398 m 1,160,-1
 602 1599 l 1,161,-1
 798 1599 l 1,162,-1
 798 1398 l 1,163,-1
 602 1398 l 1,160,-1
798 -198 m 1,164,-1
 798 -396 l 1,165,-1
 602 -396 l 1,166,-1
 602 -198 l 1,167,-1
 798 -198 l 1,164,-1
602 -198 m 1,168,-1
 602 -2 l 1,169,-1
 798 -2 l 1,170,-1
 798 -198 l 1,171,-1
 602 -198 l 1,168,-1
602 -2 m 1,172,-1
 602 199 l 1,173,-1
 798 199 l 1,174,-1
 798 -2 l 1,175,-1
 602 -2 l 1,172,-1
602 199 m 1,176,-1
 602 399 l 1,177,-1
 798 399 l 1,178,-1
 798 199 l 1,179,-1
 602 199 l 1,176,-1
602 399 m 1,180,-1
 602 600 l 1,181,-1
 798 600 l 1,182,-1
 798 399 l 1,183,-1
 602 399 l 1,180,-1
602 800 m 1,184,-1
 602 1001 l 1,185,-1
 798 1001 l 1,186,-1
 798 800 l 1,187,-1
 602 800 l 1,184,-1
602 1001 m 1,188,-1
 602 1202 l 1,189,-1
 798 1202 l 1,190,-1
 798 1001 l 1,191,-1
 602 1001 l 1,188,-1
602 1202 m 1,192,-1
 602 1398 l 1,193,-1
 798 1398 l 1,194,-1
 798 1202 l 1,195,-1
 602 1202 l 1,192,-1
401 1398 m 1,196,-1
 401 1599 l 1,197,-1
 602 1599 l 1,198,-1
 602 1398 l 1,199,-1
 401 1398 l 1,196,-1
602 -198 m 1,200,-1
 602 -396 l 1,201,-1
 401 -396 l 1,202,-1
 401 -198 l 1,203,-1
 602 -198 l 1,200,-1
401 -198 m 1,204,-1
 401 -2 l 1,205,-1
 602 -2 l 1,206,-1
 602 -198 l 1,207,-1
 401 -198 l 1,204,-1
201 1398 m 1,208,-1
 201 1599 l 1,209,-1
 401 1599 l 1,210,-1
 401 1398 l 1,211,-1
 201 1398 l 1,208,-1
401 -198 m 1,212,-1
 401 -396 l 1,213,-1
 201 -396 l 1,214,-1
 201 -198 l 1,215,-1
 401 -198 l 1,212,-1
201 -198 m 1,216,-1
 201 -2 l 1,217,-1
 401 -2 l 1,218,-1
 401 -198 l 1,219,-1
 201 -198 l 1,216,-1
0 1398 m 1,220,-1
 0 1599 l 1,221,-1
 201 1599 l 1,222,-1
 201 1398 l 1,223,-1
 0 1398 l 1,220,-1
0 -198 m 1,224,-1
 0 -2 l 1,225,-1
 201 -2 l 1,226,-1
 201 -198 l 1,227,-1
 0 -198 l 1,224,-1
0 -2 m 1,228,-1
 0 199 l 1,229,-1
 201 199 l 1,230,-1
 201 -2 l 1,231,-1
 0 -2 l 1,228,-1
0 199 m 1,232,-1
 0 399 l 1,233,-1
 201 399 l 1,234,-1
 201 199 l 1,235,-1
 0 199 l 1,232,-1
0 399 m 1,236,-1
 0 600 l 1,237,-1
 201 600 l 1,238,-1
 201 399 l 1,239,-1
 0 399 l 1,236,-1
0 600 m 1,240,-1
 0 800 l 1,241,-1
 201 800 l 1,242,-1
 201 600 l 1,243,-1
 0 600 l 1,240,-1
0 800 m 1,244,-1
 0 1001 l 1,245,-1
 201 1001 l 1,246,-1
 201 800 l 1,247,-1
 0 800 l 1,244,-1
0 1001 m 1,248,-1
 0 1202 l 1,249,-1
 201 1202 l 1,250,-1
 201 1001 l 1,251,-1
 0 1001 l 1,248,-1
0 1202 m 1,252,-1
 0 1398 l 1,253,-1
 201 1398 l 1,254,-1
 201 1202 l 1,255,-1
 0 1202 l 1,252,-1
EndSplineSet
Validated: 5
EndChar

StartChar: L
Encoding: 76 76 47
Width: 1601
Flags: W
LayerCount: 2
Fore
SplineSet
1801 -198 m 1,0,-1
 1801 -396 l 1,1,-1
 1601 -396 l 1,2,-1
 1601 -198 l 1,3,-1
 1801 -198 l 1,0,-1
1601 -198 m 1,4,-1
 1601 -2 l 1,5,-1
 1801 -2 l 1,6,-1
 1801 -198 l 1,7,-1
 1601 -198 l 1,4,-1
1601 -2 m 1,8,-1
 1601 199 l 1,9,-1
 1801 199 l 1,10,-1
 1801 -2 l 1,11,-1
 1601 -2 l 1,8,-1
1601 -198 m 1,12,-1
 1601 -396 l 1,13,-1
 1400 -396 l 1,14,-1
 1400 -198 l 1,15,-1
 1601 -198 l 1,12,-1
1400 -198 m 1,16,-1
 1400 -2 l 1,17,-1
 1601 -2 l 1,18,-1
 1601 -198 l 1,19,-1
 1400 -198 l 1,16,-1
1400 -2 m 1,20,-1
 1400 199 l 1,21,-1
 1601 199 l 1,22,-1
 1601 -2 l 1,23,-1
 1400 -2 l 1,20,-1
1400 199 m 1,24,-1
 1400 399 l 1,25,-1
 1601 399 l 1,26,-1
 1601 199 l 1,27,-1
 1400 199 l 1,24,-1
1400 -198 m 1,28,-1
 1400 -396 l 1,29,-1
 1200 -396 l 1,30,-1
 1200 -198 l 1,31,-1
 1400 -198 l 1,28,-1
1200 -198 m 1,32,-1
 1200 -2 l 1,33,-1
 1400 -2 l 1,34,-1
 1400 -198 l 1,35,-1
 1200 -198 l 1,32,-1
1200 199 m 1,36,-1
 1200 399 l 1,37,-1
 1400 399 l 1,38,-1
 1400 199 l 1,39,-1
 1200 199 l 1,36,-1
1200 -198 m 1,40,-1
 1200 -396 l 1,41,-1
 999 -396 l 1,42,-1
 999 -198 l 1,43,-1
 1200 -198 l 1,40,-1
999 -198 m 1,44,-1
 999 -2 l 1,45,-1
 1200 -2 l 1,46,-1
 1200 -198 l 1,47,-1
 999 -198 l 1,44,-1
999 199 m 1,48,-1
 999 399 l 1,49,-1
 1200 399 l 1,50,-1
 1200 199 l 1,51,-1
 999 199 l 1,48,-1
999 -198 m 1,52,-1
 999 -396 l 1,53,-1
 798 -396 l 1,54,-1
 798 -198 l 1,55,-1
 999 -198 l 1,52,-1
798 -198 m 1,56,-1
 798 -2 l 1,57,-1
 999 -2 l 1,58,-1
 999 -198 l 1,59,-1
 798 -198 l 1,56,-1
798 199 m 1,60,-1
 798 399 l 1,61,-1
 999 399 l 1,62,-1
 999 199 l 1,63,-1
 798 199 l 1,60,-1
798 399 m 1,64,-1
 798 600 l 1,65,-1
 999 600 l 1,66,-1
 999 399 l 1,67,-1
 798 399 l 1,64,-1
798 600 m 1,68,-1
 798 800 l 1,69,-1
 999 800 l 1,70,-1
 999 600 l 1,71,-1
 798 600 l 1,68,-1
798 800 m 1,72,-1
 798 1001 l 1,73,-1
 999 1001 l 1,74,-1
 999 800 l 1,75,-1
 798 800 l 1,72,-1
798 1001 m 1,76,-1
 798 1202 l 1,77,-1
 999 1202 l 1,78,-1
 999 1001 l 1,79,-1
 798 1001 l 1,76,-1
798 1202 m 1,80,-1
 798 1398 l 1,81,-1
 999 1398 l 1,82,-1
 999 1202 l 1,83,-1
 798 1202 l 1,80,-1
602 1398 m 1,84,-1
 602 1599 l 1,85,-1
 798 1599 l 1,86,-1
 798 1398 l 1,87,-1
 602 1398 l 1,84,-1
798 -198 m 1,88,-1
 798 -396 l 1,89,-1
 602 -396 l 1,90,-1
 602 -198 l 1,91,-1
 798 -198 l 1,88,-1
602 -198 m 1,92,-1
 602 -2 l 1,93,-1
 798 -2 l 1,94,-1
 798 -198 l 1,95,-1
 602 -198 l 1,92,-1
602 199 m 1,96,-1
 602 399 l 1,97,-1
 798 399 l 1,98,-1
 798 199 l 1,99,-1
 602 199 l 1,96,-1
602 399 m 1,100,-1
 602 600 l 1,101,-1
 798 600 l 1,102,-1
 798 399 l 1,103,-1
 602 399 l 1,100,-1
602 600 m 1,104,-1
 602 800 l 1,105,-1
 798 800 l 1,106,-1
 798 600 l 1,107,-1
 602 600 l 1,104,-1
602 800 m 1,108,-1
 602 1001 l 1,109,-1
 798 1001 l 1,110,-1
 798 800 l 1,111,-1
 602 800 l 1,108,-1
602 1001 m 1,112,-1
 602 1202 l 1,113,-1
 798 1202 l 1,114,-1
 798 1001 l 1,115,-1
 602 1001 l 1,112,-1
602 1202 m 1,116,-1
 602 1398 l 1,117,-1
 798 1398 l 1,118,-1
 798 1202 l 1,119,-1
 602 1202 l 1,116,-1
401 1398 m 1,120,-1
 401 1599 l 1,121,-1
 602 1599 l 1,122,-1
 602 1398 l 1,123,-1
 401 1398 l 1,120,-1
602 -198 m 1,124,-1
 602 -396 l 1,125,-1
 401 -396 l 1,126,-1
 401 -198 l 1,127,-1
 602 -198 l 1,124,-1
401 -198 m 1,128,-1
 401 -2 l 1,129,-1
 602 -2 l 1,130,-1
 602 -198 l 1,131,-1
 401 -198 l 1,128,-1
201 1398 m 1,132,-1
 201 1599 l 1,133,-1
 401 1599 l 1,134,-1
 401 1398 l 1,135,-1
 201 1398 l 1,132,-1
401 -198 m 1,136,-1
 401 -396 l 1,137,-1
 201 -396 l 1,138,-1
 201 -198 l 1,139,-1
 401 -198 l 1,136,-1
201 -198 m 1,140,-1
 201 -2 l 1,141,-1
 401 -2 l 1,142,-1
 401 -198 l 1,143,-1
 201 -198 l 1,140,-1
0 1398 m 1,144,-1
 0 1599 l 1,145,-1
 201 1599 l 1,146,-1
 201 1398 l 1,147,-1
 0 1398 l 1,144,-1
0 -198 m 1,148,-1
 0 -2 l 1,149,-1
 201 -2 l 1,150,-1
 201 -198 l 1,151,-1
 0 -198 l 1,148,-1
0 -2 m 1,152,-1
 0 199 l 1,153,-1
 201 199 l 1,154,-1
 201 -2 l 1,155,-1
 0 -2 l 1,152,-1
0 199 m 1,156,-1
 0 399 l 1,157,-1
 201 399 l 1,158,-1
 201 199 l 1,159,-1
 0 199 l 1,156,-1
0 399 m 1,160,-1
 0 600 l 1,161,-1
 201 600 l 1,162,-1
 201 399 l 1,163,-1
 0 399 l 1,160,-1
0 600 m 1,164,-1
 0 800 l 1,165,-1
 201 800 l 1,166,-1
 201 600 l 1,167,-1
 0 600 l 1,164,-1
0 800 m 1,168,-1
 0 1001 l 1,169,-1
 201 1001 l 1,170,-1
 201 800 l 1,171,-1
 0 800 l 1,168,-1
0 1001 m 1,172,-1
 0 1202 l 1,173,-1
 201 1202 l 1,174,-1
 201 1001 l 1,175,-1
 0 1001 l 1,172,-1
0 1202 m 1,176,-1
 0 1398 l 1,177,-1
 201 1398 l 1,178,-1
 201 1202 l 1,179,-1
 0 1202 l 1,176,-1
EndSplineSet
Validated: 5
EndChar

StartChar: M
Encoding: 77 77 48
Width: 1801
Flags: W
LayerCount: 2
Fore
SplineSet
1998 -198 m 1,0,-1
 1998 -396 l 1,1,-1
 1801 -396 l 1,2,-1
 1801 -198 l 1,3,-1
 1998 -198 l 1,0,-1
1801 -198 m 1,4,-1
 1801 -2 l 1,5,-1
 1998 -2 l 1,6,-1
 1998 -198 l 1,7,-1
 1801 -198 l 1,4,-1
1801 -2 m 1,8,-1
 1801 199 l 1,9,-1
 1998 199 l 1,10,-1
 1998 -2 l 1,11,-1
 1801 -2 l 1,8,-1
1801 199 m 1,12,-1
 1801 399 l 1,13,-1
 1998 399 l 1,14,-1
 1998 199 l 1,15,-1
 1801 199 l 1,12,-1
1801 399 m 1,16,-1
 1801 600 l 1,17,-1
 1998 600 l 1,18,-1
 1998 399 l 1,19,-1
 1801 399 l 1,16,-1
1801 600 m 1,20,-1
 1801 800 l 1,21,-1
 1998 800 l 1,22,-1
 1998 600 l 1,23,-1
 1801 600 l 1,20,-1
1801 800 m 1,24,-1
 1801 1001 l 1,25,-1
 1998 1001 l 1,26,-1
 1998 800 l 1,27,-1
 1801 800 l 1,24,-1
1801 1001 m 1,28,-1
 1801 1202 l 1,29,-1
 1998 1202 l 1,30,-1
 1998 1001 l 1,31,-1
 1801 1001 l 1,28,-1
1801 1202 m 1,32,-1
 1801 1398 l 1,33,-1
 1998 1398 l 1,34,-1
 1998 1202 l 1,35,-1
 1801 1202 l 1,32,-1
1601 1398 m 1,36,-1
 1601 1599 l 1,37,-1
 1801 1599 l 1,38,-1
 1801 1398 l 1,39,-1
 1601 1398 l 1,36,-1
1801 -198 m 1,40,-1
 1801 -396 l 1,41,-1
 1601 -396 l 1,42,-1
 1601 -198 l 1,43,-1
 1801 -198 l 1,40,-1
1601 -198 m 1,44,-1
 1601 -2 l 1,45,-1
 1801 -2 l 1,46,-1
 1801 -198 l 1,47,-1
 1601 -198 l 1,44,-1
1601 -2 m 1,48,-1
 1601 199 l 1,49,-1
 1801 199 l 1,50,-1
 1801 -2 l 1,51,-1
 1601 -2 l 1,48,-1
1601 199 m 1,52,-1
 1601 399 l 1,53,-1
 1801 399 l 1,54,-1
 1801 199 l 1,55,-1
 1601 199 l 1,52,-1
1601 399 m 1,56,-1
 1601 600 l 1,57,-1
 1801 600 l 1,58,-1
 1801 399 l 1,59,-1
 1601 399 l 1,56,-1
1601 600 m 1,60,-1
 1601 800 l 1,61,-1
 1801 800 l 1,62,-1
 1801 600 l 1,63,-1
 1601 600 l 1,60,-1
1601 800 m 1,64,-1
 1601 1001 l 1,65,-1
 1801 1001 l 1,66,-1
 1801 800 l 1,67,-1
 1601 800 l 1,64,-1
1601 1001 m 1,68,-1
 1601 1202 l 1,69,-1
 1801 1202 l 1,70,-1
 1801 1001 l 1,71,-1
 1601 1001 l 1,68,-1
1601 1202 m 1,72,-1
 1601 1398 l 1,73,-1
 1801 1398 l 1,74,-1
 1801 1202 l 1,75,-1
 1601 1202 l 1,72,-1
1400 1398 m 1,76,-1
 1400 1599 l 1,77,-1
 1601 1599 l 1,78,-1
 1601 1398 l 1,79,-1
 1400 1398 l 1,76,-1
1601 -198 m 1,80,-1
 1601 -396 l 1,81,-1
 1400 -396 l 1,82,-1
 1400 -198 l 1,83,-1
 1601 -198 l 1,80,-1
1400 -198 m 1,84,-1
 1400 -2 l 1,85,-1
 1601 -2 l 1,86,-1
 1601 -198 l 1,87,-1
 1400 -198 l 1,84,-1
1200 1398 m 1,88,-1
 1200 1599 l 1,89,-1
 1400 1599 l 1,90,-1
 1400 1398 l 1,91,-1
 1200 1398 l 1,88,-1
1400 -198 m 1,92,-1
 1400 -396 l 1,93,-1
 1200 -396 l 1,94,-1
 1200 -198 l 1,95,-1
 1400 -198 l 1,92,-1
1200 -198 m 1,96,-1
 1200 -2 l 1,97,-1
 1400 -2 l 1,98,-1
 1400 -198 l 1,99,-1
 1200 -198 l 1,96,-1
999 1398 m 1,100,-1
 999 1599 l 1,101,-1
 1200 1599 l 1,102,-1
 1200 1398 l 1,103,-1
 999 1398 l 1,100,-1
999 -198 m 1,104,-1
 999 -2 l 1,105,-1
 1200 -2 l 1,106,-1
 1200 -198 l 1,107,-1
 999 -198 l 1,104,-1
999 -2 m 1,108,-1
 999 199 l 1,109,-1
 1200 199 l 1,110,-1
 1200 -2 l 1,111,-1
 999 -2 l 1,108,-1
999 199 m 1,112,-1
 999 399 l 1,113,-1
 1200 399 l 1,114,-1
 1200 199 l 1,115,-1
 999 199 l 1,112,-1
999 399 m 1,116,-1
 999 600 l 1,117,-1
 1200 600 l 1,118,-1
 1200 399 l 1,119,-1
 999 399 l 1,116,-1
999 600 m 1,120,-1
 999 800 l 1,121,-1
 1200 800 l 1,122,-1
 1200 600 l 1,123,-1
 999 600 l 1,120,-1
999 1202 m 1,124,-1
 999 1398 l 1,125,-1
 1200 1398 l 1,126,-1
 1200 1202 l 1,127,-1
 999 1202 l 1,124,-1
999 -198 m 1,128,-1
 999 -396 l 1,129,-1
 798 -396 l 1,130,-1
 798 -198 l 1,131,-1
 999 -198 l 1,128,-1
798 -198 m 1,132,-1
 798 -2 l 1,133,-1
 999 -2 l 1,134,-1
 999 -198 l 1,135,-1
 798 -198 l 1,132,-1
798 -2 m 1,136,-1
 798 199 l 1,137,-1
 999 199 l 1,138,-1
 999 -2 l 1,139,-1
 798 -2 l 1,136,-1
798 199 m 1,140,-1
 798 399 l 1,141,-1
 999 399 l 1,142,-1
 999 199 l 1,143,-1
 798 199 l 1,140,-1
798 399 m 1,144,-1
 798 600 l 1,145,-1
 999 600 l 1,146,-1
 999 399 l 1,147,-1
 798 399 l 1,144,-1
798 1001 m 1,148,-1
 798 1202 l 1,149,-1
 999 1202 l 1,150,-1
 999 1001 l 1,151,-1
 798 1001 l 1,148,-1
798 1202 m 1,152,-1
 798 1398 l 1,153,-1
 999 1398 l 1,154,-1
 999 1202 l 1,155,-1
 798 1202 l 1,152,-1
602 1398 m 1,156,-1
 602 1599 l 1,157,-1
 798 1599 l 1,158,-1
 798 1398 l 1,159,-1
 602 1398 l 1,156,-1
798 -198 m 1,160,-1
 798 -396 l 1,161,-1
 602 -396 l 1,162,-1
 602 -198 l 1,163,-1
 798 -198 l 1,160,-1
602 -198 m 1,164,-1
 602 -2 l 1,165,-1
 798 -2 l 1,166,-1
 798 -198 l 1,167,-1
 602 -198 l 1,164,-1
602 -2 m 1,168,-1
 602 199 l 1,169,-1
 798 199 l 1,170,-1
 798 -2 l 1,171,-1
 602 -2 l 1,168,-1
602 199 m 1,172,-1
 602 399 l 1,173,-1
 798 399 l 1,174,-1
 798 199 l 1,175,-1
 602 199 l 1,172,-1
602 399 m 1,176,-1
 602 600 l 1,177,-1
 798 600 l 1,178,-1
 798 399 l 1,179,-1
 602 399 l 1,176,-1
602 600 m 1,180,-1
 602 800 l 1,181,-1
 798 800 l 1,182,-1
 798 600 l 1,183,-1
 602 600 l 1,180,-1
602 1202 m 1,184,-1
 602 1398 l 1,185,-1
 798 1398 l 1,186,-1
 798 1202 l 1,187,-1
 602 1202 l 1,184,-1
401 1398 m 1,188,-1
 401 1599 l 1,189,-1
 602 1599 l 1,190,-1
 602 1398 l 1,191,-1
 401 1398 l 1,188,-1
602 -198 m 1,192,-1
 602 -396 l 1,193,-1
 401 -396 l 1,194,-1
 401 -198 l 1,195,-1
 602 -198 l 1,192,-1
401 -198 m 1,196,-1
 401 -2 l 1,197,-1
 602 -2 l 1,198,-1
 602 -198 l 1,199,-1
 401 -198 l 1,196,-1
201 1398 m 1,200,-1
 201 1599 l 1,201,-1
 401 1599 l 1,202,-1
 401 1398 l 1,203,-1
 201 1398 l 1,200,-1
401 -198 m 1,204,-1
 401 -396 l 1,205,-1
 201 -396 l 1,206,-1
 201 -198 l 1,207,-1
 401 -198 l 1,204,-1
201 -198 m 1,208,-1
 201 -2 l 1,209,-1
 401 -2 l 1,210,-1
 401 -198 l 1,211,-1
 201 -198 l 1,208,-1
0 1398 m 1,212,-1
 0 1599 l 1,213,-1
 201 1599 l 1,214,-1
 201 1398 l 1,215,-1
 0 1398 l 1,212,-1
0 -198 m 1,216,-1
 0 -2 l 1,217,-1
 201 -2 l 1,218,-1
 201 -198 l 1,219,-1
 0 -198 l 1,216,-1
0 -2 m 1,220,-1
 0 199 l 1,221,-1
 201 199 l 1,222,-1
 201 -2 l 1,223,-1
 0 -2 l 1,220,-1
0 199 m 1,224,-1
 0 399 l 1,225,-1
 201 399 l 1,226,-1
 201 199 l 1,227,-1
 0 199 l 1,224,-1
0 399 m 1,228,-1
 0 600 l 1,229,-1
 201 600 l 1,230,-1
 201 399 l 1,231,-1
 0 399 l 1,228,-1
0 600 m 1,232,-1
 0 800 l 1,233,-1
 201 800 l 1,234,-1
 201 600 l 1,235,-1
 0 600 l 1,232,-1
0 800 m 1,236,-1
 0 1001 l 1,237,-1
 201 1001 l 1,238,-1
 201 800 l 1,239,-1
 0 800 l 1,236,-1
0 1001 m 1,240,-1
 0 1202 l 1,241,-1
 201 1202 l 1,242,-1
 201 1001 l 1,243,-1
 0 1001 l 1,240,-1
0 1202 m 1,244,-1
 0 1398 l 1,245,-1
 201 1398 l 1,246,-1
 201 1202 l 1,247,-1
 0 1202 l 1,244,-1
EndSplineSet
Validated: 5
EndChar

StartChar: N
Encoding: 78 78 49
Width: 1801
Flags: W
LayerCount: 2
Fore
SplineSet
1998 -198 m 1,0,-1
 1998 -396 l 1,1,-1
 1801 -396 l 1,2,-1
 1801 -198 l 1,3,-1
 1998 -198 l 1,0,-1
1801 -198 m 1,4,-1
 1801 -2 l 1,5,-1
 1998 -2 l 1,6,-1
 1998 -198 l 1,7,-1
 1801 -198 l 1,4,-1
1801 -2 m 1,8,-1
 1801 199 l 1,9,-1
 1998 199 l 1,10,-1
 1998 -2 l 1,11,-1
 1801 -2 l 1,8,-1
1801 199 m 1,12,-1
 1801 399 l 1,13,-1
 1998 399 l 1,14,-1
 1998 199 l 1,15,-1
 1801 199 l 1,12,-1
1801 399 m 1,16,-1
 1801 600 l 1,17,-1
 1998 600 l 1,18,-1
 1998 399 l 1,19,-1
 1801 399 l 1,16,-1
1801 600 m 1,20,-1
 1801 800 l 1,21,-1
 1998 800 l 1,22,-1
 1998 600 l 1,23,-1
 1801 600 l 1,20,-1
1801 800 m 1,24,-1
 1801 1001 l 1,25,-1
 1998 1001 l 1,26,-1
 1998 800 l 1,27,-1
 1801 800 l 1,24,-1
1801 1001 m 1,28,-1
 1801 1202 l 1,29,-1
 1998 1202 l 1,30,-1
 1998 1001 l 1,31,-1
 1801 1001 l 1,28,-1
1801 1202 m 1,32,-1
 1801 1398 l 1,33,-1
 1998 1398 l 1,34,-1
 1998 1202 l 1,35,-1
 1801 1202 l 1,32,-1
1601 1398 m 1,36,-1
 1601 1599 l 1,37,-1
 1801 1599 l 1,38,-1
 1801 1398 l 1,39,-1
 1601 1398 l 1,36,-1
1801 -198 m 1,40,-1
 1801 -396 l 1,41,-1
 1601 -396 l 1,42,-1
 1601 -198 l 1,43,-1
 1801 -198 l 1,40,-1
1601 -198 m 1,44,-1
 1601 -2 l 1,45,-1
 1801 -2 l 1,46,-1
 1801 -198 l 1,47,-1
 1601 -198 l 1,44,-1
1601 -2 m 1,48,-1
 1601 199 l 1,49,-1
 1801 199 l 1,50,-1
 1801 -2 l 1,51,-1
 1601 -2 l 1,48,-1
1601 199 m 1,52,-1
 1601 399 l 1,53,-1
 1801 399 l 1,54,-1
 1801 199 l 1,55,-1
 1601 199 l 1,52,-1
1601 399 m 1,56,-1
 1601 600 l 1,57,-1
 1801 600 l 1,58,-1
 1801 399 l 1,59,-1
 1601 399 l 1,56,-1
1601 600 m 1,60,-1
 1601 800 l 1,61,-1
 1801 800 l 1,62,-1
 1801 600 l 1,63,-1
 1601 600 l 1,60,-1
1601 800 m 1,64,-1
 1601 1001 l 1,65,-1
 1801 1001 l 1,66,-1
 1801 800 l 1,67,-1
 1601 800 l 1,64,-1
1601 1001 m 1,68,-1
 1601 1202 l 1,69,-1
 1801 1202 l 1,70,-1
 1801 1001 l 1,71,-1
 1601 1001 l 1,68,-1
1601 1202 m 1,72,-1
 1601 1398 l 1,73,-1
 1801 1398 l 1,74,-1
 1801 1202 l 1,75,-1
 1601 1202 l 1,72,-1
1400 1398 m 1,76,-1
 1400 1599 l 1,77,-1
 1601 1599 l 1,78,-1
 1601 1398 l 1,79,-1
 1400 1398 l 1,76,-1
1601 -198 m 1,80,-1
 1601 -396 l 1,81,-1
 1400 -396 l 1,82,-1
 1400 -198 l 1,83,-1
 1601 -198 l 1,80,-1
1400 -198 m 1,84,-1
 1400 -2 l 1,85,-1
 1601 -2 l 1,86,-1
 1601 -198 l 1,87,-1
 1400 -198 l 1,84,-1
1200 1398 m 1,88,-1
 1200 1599 l 1,89,-1
 1400 1599 l 1,90,-1
 1400 1398 l 1,91,-1
 1200 1398 l 1,88,-1
1400 -198 m 1,92,-1
 1400 -396 l 1,93,-1
 1200 -396 l 1,94,-1
 1200 -198 l 1,95,-1
 1400 -198 l 1,92,-1
1200 -198 m 1,96,-1
 1200 -2 l 1,97,-1
 1400 -2 l 1,98,-1
 1400 -198 l 1,99,-1
 1200 -198 l 1,96,-1
999 1398 m 1,100,-1
 999 1599 l 1,101,-1
 1200 1599 l 1,102,-1
 1200 1398 l 1,103,-1
 999 1398 l 1,100,-1
999 -198 m 1,104,-1
 999 -2 l 1,105,-1
 1200 -2 l 1,106,-1
 1200 -198 l 1,107,-1
 999 -198 l 1,104,-1
999 -2 m 1,108,-1
 999 199 l 1,109,-1
 1200 199 l 1,110,-1
 1200 -2 l 1,111,-1
 999 -2 l 1,108,-1
999 199 m 1,112,-1
 999 399 l 1,113,-1
 1200 399 l 1,114,-1
 1200 199 l 1,115,-1
 999 199 l 1,112,-1
999 800 m 1,116,-1
 999 1001 l 1,117,-1
 1200 1001 l 1,118,-1
 1200 800 l 1,119,-1
 999 800 l 1,116,-1
999 1001 m 1,120,-1
 999 1202 l 1,121,-1
 1200 1202 l 1,122,-1
 1200 1001 l 1,123,-1
 999 1001 l 1,120,-1
999 1202 m 1,124,-1
 999 1398 l 1,125,-1
 1200 1398 l 1,126,-1
 1200 1202 l 1,127,-1
 999 1202 l 1,124,-1
999 -198 m 1,128,-1
 999 -396 l 1,129,-1
 798 -396 l 1,130,-1
 798 -198 l 1,131,-1
 999 -198 l 1,128,-1
798 -198 m 1,132,-1
 798 -2 l 1,133,-1
 999 -2 l 1,134,-1
 999 -198 l 1,135,-1
 798 -198 l 1,132,-1
798 -2 m 1,136,-1
 798 199 l 1,137,-1
 999 199 l 1,138,-1
 999 -2 l 1,139,-1
 798 -2 l 1,136,-1
798 199 m 1,140,-1
 798 399 l 1,141,-1
 999 399 l 1,142,-1
 999 199 l 1,143,-1
 798 199 l 1,140,-1
798 399 m 1,144,-1
 798 600 l 1,145,-1
 999 600 l 1,146,-1
 999 399 l 1,147,-1
 798 399 l 1,144,-1
798 1001 m 1,148,-1
 798 1202 l 1,149,-1
 999 1202 l 1,150,-1
 999 1001 l 1,151,-1
 798 1001 l 1,148,-1
798 1202 m 1,152,-1
 798 1398 l 1,153,-1
 999 1398 l 1,154,-1
 999 1202 l 1,155,-1
 798 1202 l 1,152,-1
602 1398 m 1,156,-1
 602 1599 l 1,157,-1
 798 1599 l 1,158,-1
 798 1398 l 1,159,-1
 602 1398 l 1,156,-1
798 -198 m 1,160,-1
 798 -396 l 1,161,-1
 602 -396 l 1,162,-1
 602 -198 l 1,163,-1
 798 -198 l 1,160,-1
602 -198 m 1,164,-1
 602 -2 l 1,165,-1
 798 -2 l 1,166,-1
 798 -198 l 1,167,-1
 602 -198 l 1,164,-1
602 -2 m 1,168,-1
 602 199 l 1,169,-1
 798 199 l 1,170,-1
 798 -2 l 1,171,-1
 602 -2 l 1,168,-1
602 199 m 1,172,-1
 602 399 l 1,173,-1
 798 399 l 1,174,-1
 798 199 l 1,175,-1
 602 199 l 1,172,-1
602 399 m 1,176,-1
 602 600 l 1,177,-1
 798 600 l 1,178,-1
 798 399 l 1,179,-1
 602 399 l 1,176,-1
602 600 m 1,180,-1
 602 800 l 1,181,-1
 798 800 l 1,182,-1
 798 600 l 1,183,-1
 602 600 l 1,180,-1
602 1202 m 1,184,-1
 602 1398 l 1,185,-1
 798 1398 l 1,186,-1
 798 1202 l 1,187,-1
 602 1202 l 1,184,-1
401 1398 m 1,188,-1
 401 1599 l 1,189,-1
 602 1599 l 1,190,-1
 602 1398 l 1,191,-1
 401 1398 l 1,188,-1
602 -198 m 1,192,-1
 602 -396 l 1,193,-1
 401 -396 l 1,194,-1
 401 -198 l 1,195,-1
 602 -198 l 1,192,-1
401 -198 m 1,196,-1
 401 -2 l 1,197,-1
 602 -2 l 1,198,-1
 602 -198 l 1,199,-1
 401 -198 l 1,196,-1
201 1398 m 1,200,-1
 201 1599 l 1,201,-1
 401 1599 l 1,202,-1
 401 1398 l 1,203,-1
 201 1398 l 1,200,-1
401 -198 m 1,204,-1
 401 -396 l 1,205,-1
 201 -396 l 1,206,-1
 201 -198 l 1,207,-1
 401 -198 l 1,204,-1
201 -198 m 1,208,-1
 201 -2 l 1,209,-1
 401 -2 l 1,210,-1
 401 -198 l 1,211,-1
 201 -198 l 1,208,-1
0 1398 m 1,212,-1
 0 1599 l 1,213,-1
 201 1599 l 1,214,-1
 201 1398 l 1,215,-1
 0 1398 l 1,212,-1
0 -198 m 1,216,-1
 0 -2 l 1,217,-1
 201 -2 l 1,218,-1
 201 -198 l 1,219,-1
 0 -198 l 1,216,-1
0 -2 m 1,220,-1
 0 199 l 1,221,-1
 201 199 l 1,222,-1
 201 -2 l 1,223,-1
 0 -2 l 1,220,-1
0 199 m 1,224,-1
 0 399 l 1,225,-1
 201 399 l 1,226,-1
 201 199 l 1,227,-1
 0 199 l 1,224,-1
0 399 m 1,228,-1
 0 600 l 1,229,-1
 201 600 l 1,230,-1
 201 399 l 1,231,-1
 0 399 l 1,228,-1
0 600 m 1,232,-1
 0 800 l 1,233,-1
 201 800 l 1,234,-1
 201 600 l 1,235,-1
 0 600 l 1,232,-1
0 800 m 1,236,-1
 0 1001 l 1,237,-1
 201 1001 l 1,238,-1
 201 800 l 1,239,-1
 0 800 l 1,236,-1
0 1001 m 1,240,-1
 0 1202 l 1,241,-1
 201 1202 l 1,242,-1
 201 1001 l 1,243,-1
 0 1001 l 1,240,-1
0 1202 m 1,244,-1
 0 1398 l 1,245,-1
 201 1398 l 1,246,-1
 201 1202 l 1,247,-1
 0 1202 l 1,244,-1
EndSplineSet
Validated: 5
EndChar

StartChar: O
Encoding: 79 79 50
Width: 1801
Flags: W
LayerCount: 2
Fore
SplineSet
1801 -198 m 1,0,-1
 1801 -2 l 1,1,-1
 1998 -2 l 1,2,-1
 1998 -198 l 1,3,-1
 1801 -198 l 1,0,-1
1801 -2 m 1,4,-1
 1801 199 l 1,5,-1
 1998 199 l 1,6,-1
 1998 -2 l 1,7,-1
 1801 -2 l 1,4,-1
1801 199 m 1,8,-1
 1801 399 l 1,9,-1
 1998 399 l 1,10,-1
 1998 199 l 1,11,-1
 1801 199 l 1,8,-1
1801 399 m 1,12,-1
 1801 600 l 1,13,-1
 1998 600 l 1,14,-1
 1998 399 l 1,15,-1
 1801 399 l 1,12,-1
1801 600 m 1,16,-1
 1801 800 l 1,17,-1
 1998 800 l 1,18,-1
 1998 600 l 1,19,-1
 1801 600 l 1,16,-1
1801 800 m 1,20,-1
 1801 1001 l 1,21,-1
 1998 1001 l 1,22,-1
 1998 800 l 1,23,-1
 1801 800 l 1,20,-1
1801 1001 m 1,24,-1
 1801 1202 l 1,25,-1
 1998 1202 l 1,26,-1
 1998 1001 l 1,27,-1
 1801 1001 l 1,24,-1
1801 -198 m 1,28,-1
 1801 -396 l 1,29,-1
 1601 -396 l 1,30,-1
 1601 -198 l 1,31,-1
 1801 -198 l 1,28,-1
1601 -198 m 1,32,-1
 1601 -2 l 1,33,-1
 1801 -2 l 1,34,-1
 1801 -198 l 1,35,-1
 1601 -198 l 1,32,-1
1601 -2 m 1,36,-1
 1601 199 l 1,37,-1
 1801 199 l 1,38,-1
 1801 -2 l 1,39,-1
 1601 -2 l 1,36,-1
1601 199 m 1,40,-1
 1601 399 l 1,41,-1
 1801 399 l 1,42,-1
 1801 199 l 1,43,-1
 1601 199 l 1,40,-1
1601 399 m 1,44,-1
 1601 600 l 1,45,-1
 1801 600 l 1,46,-1
 1801 399 l 1,47,-1
 1601 399 l 1,44,-1
1601 600 m 1,48,-1
 1601 800 l 1,49,-1
 1801 800 l 1,50,-1
 1801 600 l 1,51,-1
 1601 600 l 1,48,-1
1601 800 m 1,52,-1
 1601 1001 l 1,53,-1
 1801 1001 l 1,54,-1
 1801 800 l 1,55,-1
 1601 800 l 1,52,-1
1601 1001 m 1,56,-1
 1601 1202 l 1,57,-1
 1801 1202 l 1,58,-1
 1801 1001 l 1,59,-1
 1601 1001 l 1,56,-1
1601 1202 m 1,60,-1
 1601 1398 l 1,61,-1
 1801 1398 l 1,62,-1
 1801 1202 l 1,63,-1
 1601 1202 l 1,60,-1
1400 1398 m 1,64,-1
 1400 1599 l 1,65,-1
 1601 1599 l 1,66,-1
 1601 1398 l 1,67,-1
 1400 1398 l 1,64,-1
1601 -198 m 1,68,-1
 1601 -396 l 1,69,-1
 1400 -396 l 1,70,-1
 1400 -198 l 1,71,-1
 1601 -198 l 1,68,-1
1400 -198 m 1,72,-1
 1400 -2 l 1,73,-1
 1601 -2 l 1,74,-1
 1601 -198 l 1,75,-1
 1400 -198 l 1,72,-1
1400 -2 m 1,76,-1
 1400 199 l 1,77,-1
 1601 199 l 1,78,-1
 1601 -2 l 1,79,-1
 1400 -2 l 1,76,-1
1400 1202 m 1,80,-1
 1400 1398 l 1,81,-1
 1601 1398 l 1,82,-1
 1601 1202 l 1,83,-1
 1400 1202 l 1,80,-1
1200 1398 m 1,84,-1
 1200 1599 l 1,85,-1
 1400 1599 l 1,86,-1
 1400 1398 l 1,87,-1
 1200 1398 l 1,84,-1
1400 -198 m 1,88,-1
 1400 -396 l 1,89,-1
 1200 -396 l 1,90,-1
 1200 -198 l 1,91,-1
 1400 -198 l 1,88,-1
1200 -198 m 1,92,-1
 1200 -2 l 1,93,-1
 1400 -2 l 1,94,-1
 1400 -198 l 1,95,-1
 1200 -198 l 1,92,-1
999 1398 m 1,96,-1
 999 1599 l 1,97,-1
 1200 1599 l 1,98,-1
 1200 1398 l 1,99,-1
 999 1398 l 1,96,-1
1200 -198 m 1,100,-1
 1200 -396 l 1,101,-1
 999 -396 l 1,102,-1
 999 -198 l 1,103,-1
 1200 -198 l 1,100,-1
999 -198 m 1,104,-1
 999 -2 l 1,105,-1
 1200 -2 l 1,106,-1
 1200 -198 l 1,107,-1
 999 -198 l 1,104,-1
999 199 m 1,108,-1
 999 399 l 1,109,-1
 1200 399 l 1,110,-1
 1200 199 l 1,111,-1
 999 199 l 1,108,-1
999 399 m 1,112,-1
 999 600 l 1,113,-1
 1200 600 l 1,114,-1
 1200 399 l 1,115,-1
 999 399 l 1,112,-1
999 600 m 1,116,-1
 999 800 l 1,117,-1
 1200 800 l 1,118,-1
 1200 600 l 1,119,-1
 999 600 l 1,116,-1
999 800 m 1,120,-1
 999 1001 l 1,121,-1
 1200 1001 l 1,122,-1
 1200 800 l 1,123,-1
 999 800 l 1,120,-1
999 1001 m 1,124,-1
 999 1202 l 1,125,-1
 1200 1202 l 1,126,-1
 1200 1001 l 1,127,-1
 999 1001 l 1,124,-1
798 1398 m 1,128,-1
 798 1599 l 1,129,-1
 999 1599 l 1,130,-1
 999 1398 l 1,131,-1
 798 1398 l 1,128,-1
999 -198 m 1,132,-1
 999 -396 l 1,133,-1
 798 -396 l 1,134,-1
 798 -198 l 1,135,-1
 999 -198 l 1,132,-1
798 -198 m 1,136,-1
 798 -2 l 1,137,-1
 999 -2 l 1,138,-1
 999 -198 l 1,139,-1
 798 -198 l 1,136,-1
798 199 m 1,140,-1
 798 399 l 1,141,-1
 999 399 l 1,142,-1
 999 199 l 1,143,-1
 798 199 l 1,140,-1
798 399 m 1,144,-1
 798 600 l 1,145,-1
 999 600 l 1,146,-1
 999 399 l 1,147,-1
 798 399 l 1,144,-1
798 600 m 1,148,-1
 798 800 l 1,149,-1
 999 800 l 1,150,-1
 999 600 l 1,151,-1
 798 600 l 1,148,-1
798 800 m 1,152,-1
 798 1001 l 1,153,-1
 999 1001 l 1,154,-1
 999 800 l 1,155,-1
 798 800 l 1,152,-1
798 1001 m 1,156,-1
 798 1202 l 1,157,-1
 999 1202 l 1,158,-1
 999 1001 l 1,159,-1
 798 1001 l 1,156,-1
602 1398 m 1,160,-1
 602 1599 l 1,161,-1
 798 1599 l 1,162,-1
 798 1398 l 1,163,-1
 602 1398 l 1,160,-1
798 -198 m 1,164,-1
 798 -396 l 1,165,-1
 602 -396 l 1,166,-1
 602 -198 l 1,167,-1
 798 -198 l 1,164,-1
602 -198 m 1,168,-1
 602 -2 l 1,169,-1
 798 -2 l 1,170,-1
 798 -198 l 1,171,-1
 602 -198 l 1,168,-1
602 199 m 1,172,-1
 602 399 l 1,173,-1
 798 399 l 1,174,-1
 798 199 l 1,175,-1
 602 199 l 1,172,-1
602 399 m 1,176,-1
 602 600 l 1,177,-1
 798 600 l 1,178,-1
 798 399 l 1,179,-1
 602 399 l 1,176,-1
602 600 m 1,180,-1
 602 800 l 1,181,-1
 798 800 l 1,182,-1
 798 600 l 1,183,-1
 602 600 l 1,180,-1
602 800 m 1,184,-1
 602 1001 l 1,185,-1
 798 1001 l 1,186,-1
 798 800 l 1,187,-1
 602 800 l 1,184,-1
602 1001 m 1,188,-1
 602 1202 l 1,189,-1
 798 1202 l 1,190,-1
 798 1001 l 1,191,-1
 602 1001 l 1,188,-1
401 1398 m 1,192,-1
 401 1599 l 1,193,-1
 602 1599 l 1,194,-1
 602 1398 l 1,195,-1
 401 1398 l 1,192,-1
602 -198 m 1,196,-1
 602 -396 l 1,197,-1
 401 -396 l 1,198,-1
 401 -198 l 1,199,-1
 602 -198 l 1,196,-1
401 -198 m 1,200,-1
 401 -2 l 1,201,-1
 602 -2 l 1,202,-1
 602 -198 l 1,203,-1
 401 -198 l 1,200,-1
201 1398 m 1,204,-1
 201 1599 l 1,205,-1
 401 1599 l 1,206,-1
 401 1398 l 1,207,-1
 201 1398 l 1,204,-1
201 -198 m 1,208,-1
 201 -2 l 1,209,-1
 401 -2 l 1,210,-1
 401 -198 l 1,211,-1
 201 -198 l 1,208,-1
201 -2 m 1,212,-1
 201 199 l 1,213,-1
 401 199 l 1,214,-1
 401 -2 l 1,215,-1
 201 -2 l 1,212,-1
201 1202 m 1,216,-1
 201 1398 l 1,217,-1
 401 1398 l 1,218,-1
 401 1202 l 1,219,-1
 201 1202 l 1,216,-1
0 -2 m 1,220,-1
 0 199 l 1,221,-1
 201 199 l 1,222,-1
 201 -2 l 1,223,-1
 0 -2 l 1,220,-1
0 199 m 1,224,-1
 0 399 l 1,225,-1
 201 399 l 1,226,-1
 201 199 l 1,227,-1
 0 199 l 1,224,-1
0 399 m 1,228,-1
 0 600 l 1,229,-1
 201 600 l 1,230,-1
 201 399 l 1,231,-1
 0 399 l 1,228,-1
0 600 m 1,232,-1
 0 800 l 1,233,-1
 201 800 l 1,234,-1
 201 600 l 1,235,-1
 0 600 l 1,232,-1
0 800 m 1,236,-1
 0 1001 l 1,237,-1
 201 1001 l 1,238,-1
 201 800 l 1,239,-1
 0 800 l 1,236,-1
0 1001 m 1,240,-1
 0 1202 l 1,241,-1
 201 1202 l 1,242,-1
 201 1001 l 1,243,-1
 0 1001 l 1,240,-1
0 1202 m 1,244,-1
 0 1398 l 1,245,-1
 201 1398 l 1,246,-1
 201 1202 l 1,247,-1
 0 1202 l 1,244,-1
EndSplineSet
Validated: 5
EndChar

